<?xml version="1.0" standalone="no"?>
<!DOCTYPE svg PUBLIC "-//W3C//DTD SVG 1.1//EN" "http://www.w3.org/Graphics/SVG/1.1/DTD/svg11.dtd" >
<svg xmlns="http://www.w3.org/2000/svg" xmlns:xlink="http://www.w3.org/1999/xlink" version="1.1">
<metadata>
Created by FontForge 20170731 at Thu Nov  3 16:23:57 2016
 By Aleksey,,,
Copyright (c) 2015 by Colophon Foundry. All rights reserved.
</metadata>
<defs>
<font id="BasisGrotesquePro-LightItalic" horiz-adv-x="610" >
  <font-face 
    font-family="Basis Grotesque Pro Light"
    font-weight="300"
    font-style="italic"
    font-stretch="normal"
    units-per-em="1000"
    panose-1="2 0 5 3 4 0 0 9 0 4"
    ascent="800"
    descent="-200"
    x-height="496"
    cap-height="700"
    bbox="-120 -257 1141 934"
    underline-thickness="50"
    underline-position="-150"
    slope="-11"
    unicode-range="U+000D-FB04"
  />
<missing-glyph horiz-adv-x="500" 
 />
    <glyph glyph-name="ff" unicode="ff" horiz-adv-x="559" 
d="M103 0h-60l87 452h-78l9 44h78l22 113q12 63 51 102t113 39q13 0 22.5 -2t15.5 -4l-9 -50q-11 4 -18.5 5t-20.5 1q-31 0 -58 -22t-37 -74l-21 -108h194l22 113q12 63 51 102t113 39q13 0 22.5 -2t15.5 -4l-9 -50q-11 4 -18.5 5t-20.5 1q-31 0 -58 -22t-37 -74l-21 -108
h117l-9 -44h-117l-87 -452h-60l87 452h-194z" />
    <glyph glyph-name="fi" unicode="fi" horiz-adv-x="512" 
d="M406 452h-216l-87 -452h-60l87 452h-78l9 44h78l22 113q12 63 51 102t113 39q13 0 22.5 -2t15.5 -4l-9 -50q-11 4 -18.5 5t-20.5 1q-31 0 -58 -22t-37 -74l-21 -108h276l-97 -496h-60zM441 670h76l-16 -80h-76z" />
    <glyph glyph-name="fl" unicode="fl" horiz-adv-x="511" 
d="M61 496h78l22 113q12 63 51 102t113 39q13 0 22.5 -2t15.5 -4l-9 -50q-11 4 -18.5 5t-20.5 1q-31 0 -58 -22t-37 -74l-21 -108h117l-9 -44h-117l-87 -452h-60l87 452h-78zM454 700h60l-137 -700h-60z" />
    <glyph glyph-name="f_f_i" unicode="ffi" horiz-adv-x="786" 
d="M103 0h-60l87 452h-78l9 44h78l22 113q12 63 51 102t113 39q13 0 22.5 -2t15.5 -4l-9 -50q-11 4 -18.5 5t-20.5 1q-31 0 -58 -22t-37 -74l-21 -108h194l22 113q12 63 51 102t113 39q13 0 22.5 -2t15.5 -4l-9 -50q-11 4 -18.5 5t-20.5 1q-31 0 -58 -22t-37 -74l-21 -108
h295l-97 -496h-60l88 452h-235l-87 -452h-60l87 452h-194zM714 670h76l-16 -80h-76z" />
    <glyph glyph-name="f_f_l" unicode="ffl" horiz-adv-x="785" 
d="M728 700h60l-137 -700h-60zM103 0h-60l87 452h-78l9 44h78l22 113q12 63 51 102t113 39q13 0 22.5 -2t15.5 -4l-9 -50q-11 4 -18.5 5t-20.5 1q-31 0 -58 -22t-37 -74l-21 -108h194l22 113q12 63 51 102t113 39q13 0 22.5 -2t15.5 -4l-9 -50q-11 4 -18.5 5t-20.5 1
q-31 0 -58 -22t-37 -74l-21 -108h117l-9 -44h-117l-87 -452h-60l87 452h-194z" />
    <glyph glyph-name="f_j" unicode="fj" horiz-adv-x="512" 
d="M196 -151q18 -8 37 -8q30 0 46 18.5t22 50.5l105 542h-216l-87 -452h-60l87 452h-78l9 44h78l22 113q12 63 51 102t113 39q13 0 22.5 -2t15.5 -4l-9 -50q-11 4 -18.5 5t-20.5 1q-31 0 -58 -22t-37 -74l-21 -108h276l-114 -590q-5 -24 -13.5 -45.5t-24 -37t-38.5 -25
t-55 -9.5q-15 0 -26.5 2t-22.5 6zM441 670h76l-16 -80h-76z" />
    <glyph glyph-name="f_f_j" unicode="ffj" horiz-adv-x="788" 
d="M103 0h-60l87 452h-78l9 44h78l22 113q12 63 51 102t113 39q13 0 22.5 -2t15.5 -4l-9 -50q-11 4 -18.5 5t-20.5 1q-31 0 -58 -22t-37 -74l-21 -108h194l22 113q12 63 51 102t113 39q13 0 22.5 -2t15.5 -4l-9 -50q-11 4 -18.5 5t-20.5 1q-31 0 -58 -22t-37 -74l-21 -108
h298l-114 -590q-5 -24 -13.5 -45.5t-24 -37t-38.5 -25t-55 -9.5q-15 0 -26.5 2t-22.5 6l15 52q18 -8 37 -8q30 0 46 18.5t22 50.5l105 542h-238l-87 -452h-60l87 452h-194zM717 670h76l-16 -80h-76z" />
    <glyph glyph-name=".notdef" horiz-adv-x="500" 
 />
    <glyph glyph-name=".null" horiz-adv-x="0" 
 />
    <glyph glyph-name="nonmarkingreturn" unicode="&#xd;" horiz-adv-x="289" 
 />
    <glyph glyph-name="NULL" horiz-adv-x="0" 
 />
    <glyph glyph-name="NULL" horiz-adv-x="0" 
 />
    <glyph glyph-name="space" unicode=" " horiz-adv-x="276" 
 />
    <glyph glyph-name="exclam" unicode="!" horiz-adv-x="258" 
d="M178 700h60l-42 -213l-72 -315h-38l50 315zM47 84h82l-17 -84h-82z" />
    <glyph glyph-name="quotedbl" unicode="&#x22;" horiz-adv-x="308" 
d="M261 700h64l-10 -48l-42 -149h-38l16 149zM141 700h64l-10 -48l-42 -149h-38l16 149z" />
    <glyph glyph-name="numbersign" unicode="#" horiz-adv-x="659" 
d="M399 232h-178l-43 -232h-56l43 232h-111v42h119l28 152h-127v42h135l43 232h56l-43 -232h178l43 232h56l-43 -232h111v-42h-119l-28 -152h127v-42h-135l-43 -232h-56zM229 274h178l28 152h-178z" />
    <glyph glyph-name="dollar" unicode="$" horiz-adv-x="640" 
d="M234 -9q-45 7 -79.5 27.5t-58 49t-37 63.5t-16.5 71l54 27q5 -69 40.5 -119t107.5 -64l58 298q-88 25 -126.5 68t-38.5 108q0 45 18.5 80.5t51 60.5t75.5 38.5t92 14.5l17 86h60l-18 -91q62 -12 107 -51t63 -109l-50 -30q-30 114 -130 137l-53 -273q80 -20 124.5 -62
t44.5 -107q0 -47 -17 -88t-49 -71.5t-78 -49t-103 -19.5l-16 -86h-60zM480 201q0 27 -7.5 46.5t-22.5 34t-37.5 25.5t-52.5 21l-56 -286q37 2 69.5 14.5t56 33.5t37 49t13.5 62zM198 527q0 -45 24.5 -76.5t91.5 -52.5l51 264q-32 -1 -62.5 -10t-53.5 -26t-37 -42t-14 -57z
" />
    <glyph glyph-name="percent" unicode="%" horiz-adv-x="885" 
d="M102 519q0 41 14.5 76.5t40 62t61 41.5t77.5 15q75 0 113 -43t38 -110q0 -39 -14 -74.5t-39.5 -63t-61.5 -43.5t-79 -16q-32 0 -59 12t-47.5 32.5t-32 49t-11.5 61.5zM289 664q-28 0 -52 -11t-42 -30.5t-28.5 -45.5t-10.5 -56q0 -51 29.5 -79t74.5 -28q28 0 52 11.5
t42 31t28 45t10 53.5q0 52 -27.5 80.5t-75.5 28.5zM470 141q0 41 14.5 76.5t40 62t61 41.5t77.5 15q75 0 113 -43t38 -110q0 -39 -14 -74.5t-39.5 -63t-61.5 -43.5t-79 -16q-32 0 -59 12t-47.5 32.5t-32 49t-11.5 61.5zM657 286q-28 0 -52 -11t-42 -30.5t-28.5 -45.5
t-10.5 -56q0 -51 29.5 -79t74.5 -28q28 0 52 11.5t42 31t28 45t10 53.5q0 52 -27.5 80.5t-75.5 28.5zM157 37l563 661l36 -33l-563 -661z" />
    <glyph glyph-name="ampersand" unicode="&#x26;" horiz-adv-x="630" 
d="M569 291q-15 -53 -36.5 -100.5t-50.5 -86.5l65 -104h-69l-36 59q-38 -34 -85.5 -53.5t-107.5 -19.5q-43 0 -78.5 15.5t-61 42.5t-39.5 63.5t-14 77.5q0 81 43.5 136.5t126.5 91.5q-13 26 -21 57.5t-8 63.5q0 35 11.5 67.5t33 57.5t53.5 40t73 15q27 0 51.5 -8t43 -23.5
t29.5 -39.5t11 -55q0 -72 -50 -117t-148 -81l149 -240q23 34 41 76t32 91zM258 36q48 0 86.5 17.5t70.5 49.5l-164 268q-40 -16 -66.5 -37t-42 -45t-22 -49.5t-6.5 -51.5q0 -34 11 -62t30.5 -48t46 -31t56.5 -11zM255 537q0 -27 5.5 -53.5t18.5 -50.5q43 15 74.5 30t51.5 32
t30 38t10 49q0 32 -21 57t-60 25q-27 0 -47 -11.5t-34 -29.5t-21 -40.5t-7 -45.5z" />
    <glyph glyph-name="quotesingle" unicode="'" horiz-adv-x="188" 
d="M141 700h64l-10 -48l-42 -149h-38l16 149z" />
    <glyph glyph-name="parenleft" unicode="(" horiz-adv-x="326" 
d="M97 -148q-16 48 -28 121t-12 161t17.5 170.5t46.5 154.5t66 133t76 108h54q-34 -47 -69.5 -109.5t-64.5 -137t-47.5 -157.5t-18.5 -170q0 -44 2.5 -80t7 -68.5t10.5 -62.5t14 -63h-54z" />
    <glyph glyph-name="parenright" unicode=")" horiz-adv-x="326" 
d="M219 700q16 -48 28 -121t12 -161q0 -89 -17.5 -171t-46.5 -154t-66 -133.5t-76 -107.5h-54q34 46 69.5 109t64.5 137.5t47.5 157.5t18.5 170q0 44 -2.5 80t-7 68.5t-10.5 62.5t-14 63h54z" />
    <glyph glyph-name="asterisk" unicode="*" horiz-adv-x="394" 
d="M272 590l101 67l25 -61l-113 -40l93 -43l-40 -60l-79 69l-6 -110h-67l35 110l-94 -66l-32 57l114 43l-90 39l36 62l79 -67l6 110h68z" />
    <glyph glyph-name="plus" unicode="+" horiz-adv-x="487" 
d="M67 388h171l34 172h48l-34 -172h172l-9 -46h-172l-34 -173h-48l34 173h-171z" />
    <glyph glyph-name="comma" unicode="," horiz-adv-x="177" 
d="M6 82h80l-16 -82l-85 -115l-14 10l53 105h-34z" />
    <glyph glyph-name="hyphen" unicode="-" horiz-adv-x="446" 
d="M55 334h350l-9 -46h-350z" />
    <glyph glyph-name="period" unicode="." horiz-adv-x="176" 
d="M5 82h80l-15 -82h-80z" />
    <glyph glyph-name="slash" unicode="/" horiz-adv-x="474" 
d="M486 730h65l-546 -760h-65z" />
    <glyph glyph-name="zero" unicode="0" horiz-adv-x="706" 
d="M665 417q0 -84 -22 -162t-65 -137.5t-107.5 -95.5t-149.5 -36q-59 0 -108 22t-84.5 61t-55.5 94t-20 121q0 83 24 160.5t69 137.5t108.5 96t142.5 36q64 0 113.5 -20.5t84 -59t52.5 -93.5t18 -124zM322 38q68 0 121 30.5t89 81.5t54.5 118t18.5 139q0 59 -14.5 106
t-42 80t-67 51t-88.5 18q-65 0 -116.5 -33t-88 -86t-56 -121t-19.5 -138q0 -59 16 -104.5t44 -77t66 -48t83 -16.5z" />
    <glyph glyph-name="one" unicode="1" horiz-adv-x="344" 
d="M116 612q54 0 96.5 21t74.5 67h52l-137 -700h-58l120 616q-15 -16 -31 -26.5t-35 -17t-41.5 -9.5t-50.5 -3z" />
    <glyph glyph-name="two" unicode="2" horiz-adv-x="574" 
d="M335 310q64 54 96.5 105.5t32.5 108.5q0 65 -39 101.5t-104 36.5q-36 0 -65.5 -12t-50.5 -33.5t-32.5 -51t-11.5 -63.5q0 -14 1.5 -24t3.5 -15l-58 -9q-7 19 -7 55q0 45 16.5 83t47 65t73 42t94.5 15q42 0 77.5 -12.5t61 -37t39.5 -60t14 -80.5q0 -61 -34.5 -122.5
t-114.5 -128.5l-254 -213h335l-12 -60h-439l8 41z" />
    <glyph glyph-name="three" unicode="3" horiz-adv-x="575" 
d="M131 221q-6 -20 -6 -47t9.5 -52t28.5 -43.5t47 -29.5t65 -11q38 0 70 13t55.5 35.5t36.5 54t13 69.5q0 37 -14 63.5t-38.5 43t-57.5 24t-70 7.5l11 56q40 0 75 9.5t60.5 27.5t40 46t14.5 66q0 22 -8.5 41.5t-25.5 34.5t-42 24t-57 9q-31 0 -57.5 -10.5t-46 -29.5t-31 -44
t-11.5 -53v-10t1 -11l-59 -9q-1 5 -1.5 11.5t-0.5 14.5q0 39 15 74.5t42.5 61.5t67 41.5t87.5 15.5q89 0 137 -45.5t48 -115.5q0 -57 -36 -105t-106 -69q24 -8 46 -21t39 -32.5t27.5 -46t10.5 -61.5q0 -50 -16 -92t-46 -73.5t-74 -49t-99 -17.5q-49 0 -88 15t-66 40.5
t-41.5 59.5t-14.5 72q0 16 3.5 33t9.5 28z" />
    <glyph glyph-name="four" unicode="4" horiz-adv-x="565" 
d="M37 202l425 498h60l-97 -498h80l-10 -52h-80l-30 -150h-60l30 150h-328zM104 202h261l75 388z" />
    <glyph glyph-name="five" unicode="5" horiz-adv-x="584" 
d="M178 700h389l-10 -52h-336l-81 -267q36 46 87.5 71.5t102.5 25.5q43 0 79 -14t61.5 -41t39.5 -65t14 -86q0 -60 -19 -112.5t-53.5 -91t-83.5 -60.5t-110 -22q-43 0 -80.5 13t-65 37t-43 57t-15.5 72q0 34 11 59l55 -12q-6 -18 -6 -43q0 -60 39.5 -95.5t111.5 -35.5
q43 0 80 16t63 45.5t41 72.5t15 97q0 39 -12 68t-33 48.5t-49 29t-60 9.5t-60.5 -10.5t-51.5 -27.5t-41 -38t-29 -41l-58 16z" />
    <glyph glyph-name="six" unicode="6" horiz-adv-x="596" 
d="M495 513q10 23 10 48q0 48 -34.5 74.5t-90.5 26.5q-44 0 -85.5 -22.5t-75.5 -64.5t-59 -101.5t-35 -134.5q12 25 34 47t50 38t59.5 25t61.5 9q43 0 80.5 -15.5t65.5 -42.5t44 -64.5t16 -81.5q0 -58 -19 -107t-52.5 -85t-79 -56t-97.5 -20q-50 0 -92.5 18.5t-73 53.5
t-47.5 85.5t-17 115.5q0 47 9 99t27.5 103t46 96.5t64 80.5t82 55.5t100.5 20.5q37 0 69.5 -10.5t56 -30t37 -47.5t13.5 -63q0 -29 -14 -63zM312 406q-40 0 -74 -16.5t-59 -44t-39 -63.5t-14 -75q0 -30 11 -60t32.5 -54t52.5 -39.5t71 -15.5q38 0 71.5 15.5t58 42.5t39 64
t14.5 81q0 35 -12.5 65.5t-35 52.5t-52.5 34.5t-64 12.5z" />
    <glyph glyph-name="seven" unicode="7" horiz-adv-x="531" 
d="M138 0h-66l416 648h-378l11 52h443l-9 -46z" />
    <glyph glyph-name="eight" unicode="8" horiz-adv-x="564" 
d="M255 -14q-42 0 -79.5 13.5t-65.5 39t-44.5 61.5t-16.5 81q0 35 11.5 67t32 58.5t49 46.5t62.5 32q-29 18 -52.5 52.5t-23.5 83.5q0 37 15 71.5t43 61.5t66.5 43.5t86.5 16.5q45 0 80.5 -12.5t60.5 -35t38.5 -52.5t13.5 -64q0 -67 -37 -114t-94 -69q39 -20 68 -57t29 -95
q0 -55 -19.5 -97.5t-52.5 -72t-77.5 -44.5t-93.5 -15zM262 38q34 0 65.5 11t56 33t39.5 53.5t15 73.5q0 31 -11.5 57t-31.5 44t-48.5 28t-61.5 10q-40 0 -72.5 -13t-55.5 -36.5t-35.5 -55.5t-12.5 -69q0 -29 11.5 -54t32 -43t48.5 -28.5t61 -10.5zM338 664
q-33 0 -60.5 -11.5t-48 -31t-32 -45.5t-11.5 -55q0 -60 37 -92.5t91 -32.5q70 0 115 39t45 108q0 29 -11 51.5t-29.5 38t-43 23.5t-52.5 8z" />
    <glyph glyph-name="nine" unicode="9" horiz-adv-x="607" 
d="M135 185q-3 -10 -5 -19.5t-2 -23.5q0 -48 35 -75t89 -27q96 0 161.5 84.5t91.5 240.5q-31 -55 -86 -89t-117 -34q-45 0 -85 15t-70 43t-47.5 68.5t-17.5 91.5q0 57 20 103.5t54 80t79.5 52t95.5 18.5q111 0 172.5 -71t61.5 -202q0 -49 -8 -102t-24 -104t-41 -96
t-59.5 -79t-79 -54t-99.5 -20q-39 0 -72.5 10.5t-58.5 30t-39 47.5t-14 63q0 20 3.5 35t7.5 26zM309 294q42 0 75.5 16.5t57.5 44.5t37 63.5t13 74.5q0 35 -11 65.5t-31 53.5t-50 36.5t-67 13.5q-41 0 -76 -15.5t-60.5 -42.5t-40 -62.5t-14.5 -75.5q0 -45 14 -77.5
t37.5 -53.5t53.5 -31t62 -10z" />
    <glyph glyph-name="colon" unicode=":" horiz-adv-x="176" 
d="M83 472h80l-16 -82h-80zM8 82h80l-16 -82h-80z" />
    <glyph glyph-name="semicolon" unicode=";" horiz-adv-x="176" 
d="M80 472h80l-15 -82h-80zM5 82h80l-16 -82l-85 -115l-14 10l53 105h-34z" />
    <glyph glyph-name="less" unicode="&#x3c;" horiz-adv-x="498" 
d="M57 342l428 194l-10 -61l-375 -168l308 -168l-10 -55l-354 194z" />
    <glyph glyph-name="equal" unicode="=" horiz-adv-x="487" 
d="M80 468h391l-9 -46h-391zM44 278h391l-9 -46h-391z" />
    <glyph glyph-name="greater" unicode="&#x3e;" horiz-adv-x="498" 
d="M446 278l-428 -194l10 61l375 168l-308 168l10 55l354 -194z" />
    <glyph glyph-name="question" unicode="?" horiz-adv-x="525" 
d="M173 84h82l-16 -84h-82zM201 175l2 13q5 31 12.5 54t21 42t34.5 37.5t54 41.5q23 17 45.5 35.5t40.5 40t29 47t11 55.5q0 59 -36 91t-95 32q-36 0 -65 -12.5t-49.5 -33.5t-31.5 -49.5t-11 -59.5q0 -18 3 -34l-55 -10q-4 13 -5 24.5t-1 20.5q0 44 15.5 81.5t44 64.5
t68.5 42.5t90 15.5q44 0 79 -12.5t59 -35t37 -53t13 -66.5q0 -34 -10 -63.5t-29.5 -56.5t-48.5 -53t-68 -53q-20 -14 -35 -27t-26.5 -29t-19.5 -37.5t-13 -52.5h-60z" />
    <glyph glyph-name="at" unicode="@" horiz-adv-x="938" 
d="M629 -88q-54 -34 -112.5 -49t-110.5 -15q-70 0 -135 24t-115 70.5t-80 115t-30 157.5q0 99 34 189.5t97 159.5t152.5 109.5t199.5 40.5q82 0 148 -24.5t112.5 -68t71.5 -104t25 -133.5q0 -69 -18.5 -133t-52 -114t-80 -80t-102.5 -30q-35 0 -56 20.5t-21 55.5q0 8 0.5 17
t3.5 23q-26 -56 -75 -86t-105 -30q-32 0 -60 13t-49 38.5t-33.5 64t-12.5 90.5q0 57 18.5 112t53 98.5t82 70t106.5 26.5q19 0 39.5 -6t37.5 -17.5t30 -29t19 -39.5l15 76h60l-76 -384q-1 -4 -1.5 -8.5t-0.5 -11.5q0 -23 11 -32t28 -9q41 0 74.5 27t57 70t36.5 96.5
t13 106.5q0 57 -19 108t-57.5 89.5t-96.5 61t-135 22.5q-88 0 -164 -35.5t-131.5 -96t-87 -140t-31.5 -167.5q0 -73 23 -132.5t63 -101.5t94.5 -64.5t117.5 -22.5q59 0 110 16t95 40zM394 79q45 0 82 25.5t63.5 65t40.5 86.5t14 90q0 69 -31.5 104.5t-78.5 35.5
q-46 0 -83 -23t-63.5 -59.5t-40.5 -81.5t-14 -88q0 -72 31.5 -113.5t79.5 -41.5z" />
    <glyph glyph-name="A" unicode="A" horiz-adv-x="636" 
d="M363 700h67l141 -700h-60l-43 217h-326l-128 -217h-66zM393 596q-4 19 -5 28.5t-2 13.5q-2 -5 -7 -14t-16 -28l-193 -329h288z" />
    <glyph glyph-name="B" unicode="B" horiz-adv-x="625" 
d="M166 700h235q91 0 139.5 -41.5t48.5 -110.5q0 -31 -11.5 -59.5t-32.5 -51.5t-49.5 -39.5t-62.5 -24.5q20 -7 41 -19.5t38 -32t27.5 -45t10.5 -57.5q0 -52 -21 -93t-57.5 -69t-86 -42.5t-106.5 -14.5h-250zM100 52h165q49 0 90.5 10t71.5 31t46.5 53t16.5 76
q0 34 -12.5 58t-35 38.5t-52.5 21t-64 6.5h-169zM167 398h177q35 0 67.5 9t58 26.5t41 44t15.5 61.5q0 62 -39 85.5t-100 23.5h-172z" />
    <glyph glyph-name="C" unicode="C" horiz-adv-x="736" 
d="M649 170q-54 -88 -127.5 -136t-178.5 -48q-68 0 -121 23t-89 64.5t-55 98t-19 124.5q0 80 28.5 155.5t81 134t126.5 93.5t164 35q99 0 164 -49.5t92 -129.5l-48 -29q-33 86 -88.5 121t-132.5 35q-72 0 -132 -31.5t-103.5 -82.5t-67.5 -116.5t-24 -133.5q0 -57 16.5 -105
t47 -82.5t73 -53.5t93.5 -19q80 0 144.5 41.5t113.5 119.5z" />
    <glyph glyph-name="D" unicode="D" horiz-adv-x="671" 
d="M166 700h180q61 0 112.5 -18t89 -54t59 -90t21.5 -126q0 -89 -28.5 -164t-81.5 -130.5t-129.5 -86.5t-172.5 -31h-187zM214 52q86 1 152 29t111 76t68 113t23 142q0 64 -18.5 108.5t-51 73t-77.5 41.5t-98 13h-108l-115 -596h114z" />
    <glyph glyph-name="E" unicode="E" horiz-adv-x="573" 
d="M166 700h410l-11 -52h-350l-50 -260h322l-10 -52h-322l-55 -284h353l-11 -52h-413z" />
    <glyph glyph-name="F" unicode="F" horiz-adv-x="576" 
d="M166 700h424l-11 -52h-364l-54 -280h334l-10 -52h-334l-62 -316h-60z" />
    <glyph glyph-name="G" unicode="G" horiz-adv-x="751" 
d="M586 124q-49 -71 -109.5 -104.5t-147.5 -33.5q-63 0 -113 23t-85 63.5t-53.5 94.5t-18.5 117q0 92 29.5 171t83 136.5t126.5 90t160 32.5q103 0 167.5 -46t95.5 -123l-47 -31q-31 78 -89.5 113t-136.5 35q-71 0 -131 -30t-104 -81.5t-69 -120t-25 -144.5q0 -50 15.5 -95
t44.5 -79t70 -54t91 -20q53 0 99.5 23t83.5 59.5t62 80.5t35 86h-258l10 52h320l-66 -339h-40v124z" />
    <glyph glyph-name="H" unicode="H" horiz-adv-x="676" 
d="M170 700h60l-62 -317h371l62 317h60l-137 -700h-60l65 331h-371l-65 -331h-60z" />
    <glyph glyph-name="I" unicode="I" horiz-adv-x="236" 
d="M166 700h60l-137 -700h-60z" />
    <glyph glyph-name="J" unicode="J" horiz-adv-x="520" 
d="M434 195q-21 -109 -80.5 -159t-153.5 -50q-36 0 -67.5 12t-55 33t-37 49.5t-13.5 61.5q0 11 1 22.5t4 25.5l59 -6q-4 -17 -4 -36q0 -25 10 -45.5t27 -34.5t39 -22t46 -8q63 0 106 38t58 115l99 509h60z" />
    <glyph glyph-name="K" unicode="K" horiz-adv-x="593" 
d="M166 700h60l-65 -339q11 10 25.5 23.5t27.5 24.5q15 13 31 27l303 264h78l-290 -259l176 -441h-68l-158 399l-144 -125l-53 -274h-60z" />
    <glyph glyph-name="L" unicode="L" horiz-adv-x="555" 
d="M166 700h60l-126 -648h353l-11 -52h-413z" />
    <glyph glyph-name="M" unicode="M" horiz-adv-x="844" 
d="M169 700h66l137 -648l388 648h71l-137 -700h-58l114 586q-4 -7 -12.5 -22t-17.5 -30q-11 -18 -24 -38l-298 -496h-69l-106 498q-3 23 -7 42q-3 17 -6 32.5t-4 22.5l-116 -595h-58z" />
    <glyph glyph-name="N" unicode="N" horiz-adv-x="684" 
d="M166 700h60l250 -562q5 -11 9 -22q4 -9 6.5 -18.5t4.5 -14.5l120 617h58l-137 -700h-60l-250 562q-5 11 -9 22q-4 9 -7 18t-4 15l-120 -617h-58z" />
    <glyph glyph-name="O" unicode="O" horiz-adv-x="770" 
d="M728 404q0 -78 -24 -153t-71 -134t-118 -95t-164 -36q-64 0 -118.5 21t-94.5 61t-62.5 97.5t-22.5 129.5q0 78 26.5 153t76 134.5t120 95.5t158.5 36q67 0 121.5 -20.5t93 -60t59 -97.5t20.5 -132zM352 38q74 0 132.5 30.5t99.5 81t62.5 115.5t21.5 134q0 133 -66 198
t-178 65q-69 0 -126.5 -31.5t-98.5 -83t-63.5 -116.5t-22.5 -131q0 -62 19 -110.5t51 -82.5t75.5 -51.5t93.5 -17.5z" />
    <glyph glyph-name="P" unicode="P" horiz-adv-x="661" 
d="M166 700h255q108 0 162 -51t54 -142q0 -56 -20 -99.5t-56 -74.5t-87 -47t-113 -16h-219l-53 -270h-60zM152 322h211q103 0 158.5 50t55.5 136q0 69 -41 104.5t-120 35.5h-201z" />
    <glyph glyph-name="Q" unicode="Q" horiz-adv-x="770" 
d="M728 404q0 -66 -17.5 -131t-52 -120t-86.5 -95.5t-120 -58.5q12 -24 27.5 -48t32.5 -45l-49 -40q-27 33 -43.5 61.5t-30.5 60.5q-10 -1 -19.5 -1.5t-18.5 -0.5q-64 0 -118.5 21t-94.5 61t-62.5 97.5t-22.5 129.5q0 78 26.5 153t76 134.5t120 95.5t158.5 36
q67 0 121.5 -20.5t93 -60t59 -97.5t20.5 -132zM352 38q74 0 132.5 30.5t99.5 81t62.5 115.5t21.5 134q0 133 -66 198t-178 65q-69 0 -126.5 -31.5t-98.5 -83t-63.5 -116.5t-22.5 -131q0 -62 19 -110.5t51 -82.5t75.5 -51.5t93.5 -17.5z" />
    <glyph glyph-name="R" unicode="R" horiz-adv-x="617" 
d="M334 312h-183l-62 -312h-60l137 700h251q96 0 147.5 -46t51.5 -127q0 -44 -17 -80.5t-46 -64.5t-68.5 -45.5t-84.5 -22.5l114 -314h-64zM161 364h192q40 0 77 10t65 30t44.5 49t16.5 68q0 69 -39 98t-109 29h-191z" />
    <glyph glyph-name="S" unicode="S" horiz-adv-x="640" 
d="M367 662q-33 0 -65 -8.5t-56.5 -26t-40 -42.5t-15.5 -58q0 -57 43.5 -89t130.5 -52q85 -19 134 -59.5t49 -112.5q0 -51 -18.5 -93t-52 -72t-80 -46.5t-102.5 -16.5q-60 0 -104 18t-74 48t-46.5 69t-21.5 81l58 29q3 -41 16 -76t36.5 -61t58 -41t80.5 -15q36 0 70.5 11
t61 32t42.5 51.5t16 68.5q0 32 -10.5 54t-31.5 37.5t-52.5 26.5t-73.5 22q-94 23 -141.5 66t-47.5 113q0 45 18.5 81t51.5 61t79 38.5t100 13.5q81 0 139 -41t81 -125l-51 -31q-20 72 -64.5 108.5t-116.5 36.5z" />
    <glyph glyph-name="T" unicode="T" horiz-adv-x="534" 
d="M100 700h492l-11 -52h-216l-126 -648h-60l126 648h-216z" />
    <glyph glyph-name="U" unicode="U" horiz-adv-x="654" 
d="M563 218q-12 -60 -38 -103.5t-64 -72t-87 -42.5t-106 -14q-46 0 -84 13.5t-65.5 39t-42.5 62.5t-15 84q0 14 1.5 33.5t5.5 38.5l86 443h60l-91 -468q-3 -17 -3.5 -27.5t-0.5 -19.5q0 -63 40.5 -105t116.5 -42q94 0 152 49t74 130l94 483h60z" />
    <glyph glyph-name="V" unicode="V" horiz-adv-x="594" 
d="M84 700h60l94 -569q2 -12 4 -25q2 -11 3.5 -24.5t3.5 -27.5q5 14 11 28t12 25l14 26l315 567h65l-392 -700h-72z" />
    <glyph glyph-name="W" unicode="W" horiz-adv-x="872" 
d="M612 0h-68l-43 635l-290 -635h-69l-59 700h58l41 -561q1 -14 2 -27q1 -11 1.5 -23.5t1.5 -21.5q3 9 9 22t11 24q6 13 13 27l257 560h73l38 -557v-27q0 -11 0.5 -24.5t0.5 -24.5q5 14 11 27t11 24l12 24l260 558h60z" />
    <glyph glyph-name="X" unicode="X" horiz-adv-x="550" 
d="M302 433l212 267h76l-263 -321l159 -379h-64l-136 331l-259 -331h-75l309 388l-139 312h66z" />
    <glyph glyph-name="Y" unicode="Y" horiz-adv-x="526" 
d="M232 292l-151 408h67l106 -313q2 -8 5 -16q2 -7 4.5 -15.5t4.5 -17.5q9 17 19 30q5 7 11 14l234 318h69l-309 -408l-57 -292h-60z" />
    <glyph glyph-name="Z" unicode="Z" horiz-adv-x="582" 
d="M132 700h465l-11 -54l-513 -592h415l-11 -54h-494l11 52l521 594h-394z" />
    <glyph glyph-name="bracketleft" unicode="[" horiz-adv-x="314" 
d="M166 700h172l-10 -50h-114l-145 -750h114l-10 -50h-172z" />
    <glyph glyph-name="backslash" unicode="\" horiz-adv-x="474" 
d="M403 -30h-60l-253 760h60z" />
    <glyph glyph-name="bracketright" unicode="]" horiz-adv-x="314" 
d="M139 -150h-171l10 50h113l145 750h-114l10 50h172z" />
    <glyph glyph-name="asciicircum" unicode="^" horiz-adv-x="414" 
d="M313 700l110 -243h-52l-94 204l-170 -204h-60l202 243h64z" />
    <glyph glyph-name="underscore" unicode="_" horiz-adv-x="422" 
d="M-51 -7h406l-9 -46h-406z" />
    <glyph glyph-name="grave" unicode="`" horiz-adv-x="276" 
d="M261 562h-52l-72 138h82z" />
    <glyph glyph-name="a" unicode="a" horiz-adv-x="596" 
d="M558 496l-97 -496h-60l16 81q-33 -51 -76.5 -73t-97.5 -22q-49 0 -87.5 17.5t-65 48.5t-40.5 73t-14 91q0 63 20.5 116.5t57 93t86.5 62t110 22.5t104.5 -27.5t64.5 -81.5l19 95h60zM250 36q46 0 84.5 20.5t66 56t42.5 82t15 98.5q0 76 -39 121.5t-111 45.5
q-47 0 -86 -19.5t-67 -52.5t-43.5 -77.5t-15.5 -95.5q0 -38 10.5 -71t30.5 -57t48.5 -37.5t64.5 -13.5z" />
    <glyph glyph-name="b" unicode="b" horiz-adv-x="594" 
d="M154 700h60l-54 -280q32 43 81 66.5t105 23.5q42 0 79 -14t64.5 -42t43.5 -70t16 -97q0 -59 -20.5 -113.5t-57.5 -96t-90 -66.5t-117 -25q-60 0 -104.5 31t-63.5 79l-18 -96h-60zM273 36q46 0 85 21.5t67.5 57t44.5 82t16 96.5q0 81 -41.5 124t-113.5 43
q-47 0 -86.5 -21.5t-68 -57t-44.5 -81.5t-16 -95q0 -39 12 -70.5t33.5 -53t50 -33.5t61.5 -12z" />
    <glyph glyph-name="c" unicode="c" horiz-adv-x="553" 
d="M495 132q-42 -75 -99.5 -110.5t-137.5 -35.5q-48 0 -88.5 16t-70 46t-45.5 73t-16 97t19 106t56 93.5t91 67t124 25.5q72 0 123.5 -36.5t74.5 -99.5l-46 -26q-24 58 -65 84t-98 26q-49 0 -88.5 -20t-68 -53t-44 -76.5t-15.5 -89.5q0 -44 12.5 -78t34.5 -57t51 -34.5
t62 -11.5q69 0 114 33.5t80 90.5z" />
    <glyph glyph-name="d" unicode="d" horiz-adv-x="598" 
d="M465 0h-60l16 82q-12 -21 -30.5 -38.5t-41 -30t-48.5 -20t-53 -7.5q-47 0 -86.5 16t-68 46t-45 73.5t-16.5 97.5q0 66 20 119.5t56 92t85.5 59t108.5 20.5q65 0 111 -29.5t70 -79.5l58 299h60zM251 36q46 0 85.5 21t67.5 56.5t44 81t16 94.5q0 39 -13 70.5t-35.5 54
t-53 34.5t-64.5 12q-44 0 -81 -18t-64 -50.5t-42.5 -76.5t-15.5 -96q0 -45 11.5 -79t32.5 -57.5t49.5 -35t62.5 -11.5z" />
    <glyph glyph-name="e" unicode="e" horiz-adv-x="569" 
d="M92 243q-2 -8 -2 -16.5v-16.5q0 -35 12.5 -66.5t35 -55.5t53.5 -38t69 -14q34 0 61.5 9t50 25.5t41.5 40.5t36 54l43 -28q-42 -78 -100.5 -114.5t-138.5 -36.5q-44 0 -84 14t-70.5 43.5t-48.5 74.5t-18 108q0 59 21.5 111t59.5 90.5t89.5 60.5t112.5 22q51 0 91 -15.5
t67 -42.5t41 -63.5t14 -78.5q0 -12 -1.5 -23t-3.5 -25l-4 -19h-427zM311 460q-36 0 -69.5 -11.5t-60.5 -33t-47 -52.5t-29 -70h363q2 11 2 16.5v13.5q0 30 -12 55t-33 43t-50 28.5t-64 10.5z" />
    <glyph glyph-name="f" unicode="f" horiz-adv-x="305" 
d="M61 496h78l22 113q12 63 51 102t113 39q13 0 22.5 -2t15.5 -4l-9 -50q-11 4 -18.5 5t-20.5 1q-31 0 -58 -22t-37 -74l-21 -108h117l-9 -44h-117l-87 -452h-60l87 452h-78z" />
    <glyph glyph-name="g" unicode="g" horiz-adv-x="577" 
d="M80 -39q-10 -17 -10 -42q0 -39 38 -63t96 -24q44 0 76 15t55 42t37.5 63.5t22.5 79.5l11 58q-27 -42 -70.5 -62t-99.5 -20q-41 0 -78.5 14t-66 41.5t-45.5 68.5t-17 96t17.5 106t51 90t83 62.5t114.5 23.5q63 0 110.5 -26t64.5 -68l16 80h60l-92 -471
q-24 -120 -86 -181.5t-176 -61.5q-44 0 -77.5 11t-56.5 29t-34.5 42.5t-11.5 51.5q0 15 4.5 31t12.5 29zM291 460q-46 0 -83 -19.5t-63.5 -52t-41 -74.5t-14.5 -87q0 -41 12 -72.5t33.5 -53t50.5 -32.5t63 -11q47 0 85 20.5t64.5 53.5t40.5 75t14 86q0 38 -11.5 69t-33 52.5
t-51 33.5t-65.5 12z" />
    <glyph glyph-name="h" unicode="h" horiz-adv-x="565" 
d="M426 0h-60l64 325q2 8 3 18t1 18q0 48 -27 73.5t-78 25.5q-31 0 -62 -13.5t-58 -38t-46.5 -58.5t-27.5 -75l-54 -275h-60l137 700h60l-56 -283q34 42 82 67.5t104 25.5q65 0 105.5 -32.5t40.5 -103.5q0 -13 -1 -25t-5 -32z" />
    <glyph glyph-name="i" unicode="i" horiz-adv-x="210" 
d="M113 496h60l-97 -496h-60zM139 670h76l-16 -80h-76z" />
    <glyph glyph-name="j" unicode="j" horiz-adv-x="211" 
d="M-105 -151q18 -8 37 -8q30 0 46 18.5t22 50.5l114 586h60l-114 -590q-5 -24 -13.5 -45.5t-24 -37t-38.5 -25t-55 -9.5q-15 0 -26.5 2t-22.5 6zM140 670h76l-16 -80h-76z" />
    <glyph glyph-name="k" unicode="k" horiz-adv-x="482" 
d="M156 700h60l-78 -400l232 196h80l-199 -170l144 -326h-65l-124 289l-85 -74l-42 -215h-60z" />
    <glyph glyph-name="l" unicode="l" horiz-adv-x="210" 
d="M153 700h60l-137 -700h-60z" />
    <glyph glyph-name="m" unicode="m" horiz-adv-x="803" 
d="M663 0h-60l68 351q5 23 5 38q0 35 -23.5 53t-66.5 18q-23 0 -47.5 -11.5t-47 -36t-41 -62t-28.5 -89.5l-51 -261h-60l68 349q2 9 2.5 14t0.5 13q0 38 -22.5 61t-61.5 23q-26 0 -51 -13t-46.5 -38.5t-39 -62t-26.5 -84.5l-51 -262h-60l96 496h60l-14 -74q23 35 63.5 61.5
t94.5 26.5q44 0 74 -22.5t41 -64.5q31 42 74.5 64.5t91.5 22.5q60 0 95.5 -30t35.5 -85q0 -9 -1 -18.5t-3 -21.5z" />
    <glyph glyph-name="n" unicode="n" horiz-adv-x="558" 
d="M423 0h-60l64 330q3 18 3 35q0 47 -29.5 71t-77.5 24q-31 0 -61.5 -13.5t-56 -37.5t-44.5 -56.5t-26 -71.5l-55 -281h-60l96 496h60l-15 -77q36 49 82 70t100 21q30 0 56.5 -8t47 -25t32 -43.5t11.5 -62.5q0 -11 -1 -21t-3 -24z" />
    <glyph glyph-name="o" unicode="o" horiz-adv-x="592" 
d="M546 291q0 -66 -21 -121.5t-58.5 -96.5t-89.5 -64t-113 -23q-44 0 -85 14t-73.5 42t-52 70.5t-19.5 99.5q0 62 21 116t58.5 94.5t90.5 64t117 23.5q44 0 85 -13.5t72 -40.5t49.5 -68.5t18.5 -96.5zM269 36q44 0 83.5 19t69 52t47 77.5t17.5 96.5q0 83 -47.5 131
t-126.5 48q-49 0 -89 -21.5t-68.5 -56.5t-44.5 -79t-16 -89q0 -39 12.5 -72t36 -56.5t55.5 -36.5t71 -13z" />
    <glyph glyph-name="p" unicode="p" horiz-adv-x="594" 
d="M116 496h60l-14 -75q12 19 30.5 35.5t42 28.5t50.5 18.5t56 6.5q43 0 80.5 -15t65 -44t43 -71.5t15.5 -96.5q0 -56 -19.5 -109t-56 -95t-89 -67.5t-118.5 -25.5q-31 0 -58 8.5t-48.5 22t-36.5 31.5t-23 37l-56 -289h-60zM327 460q-41 0 -79.5 -20t-67.5 -54.5t-46.5 -81
t-17.5 -100.5q0 -76 44 -122t117 -46q46 0 84 21t65.5 55.5t43 79.5t15.5 93q0 87 -43.5 131t-114.5 44z" />
    <glyph glyph-name="q" unicode="q" horiz-adv-x="601" 
d="M427 -204h-60l52 270q-27 -36 -73 -58t-102 -22q-43 0 -81.5 14.5t-67.5 44t-46 72.5t-17 100q0 64 21.5 118t59 93t88.5 60.5t111 21.5q61 0 107 -29t66 -77l18 92h60zM304 460q-43 0 -81.5 -18t-67.5 -50.5t-46 -77t-17 -97.5q0 -89 43 -135t112 -46q44 0 83.5 18.5
t69 51.5t47 77.5t17.5 97.5q0 87 -44 133t-116 46z" />
    <glyph glyph-name="r" unicode="r" horiz-adv-x="330" 
d="M333 454q-12 4 -22 5t-21 1q-26 0 -50.5 -14t-46 -39t-38 -59.5t-24.5 -76.5l-53 -271h-60l96 496h60l-15 -81q29 48 66 71.5t90 23.5q10 0 18 -1t14 -3z" />
    <glyph glyph-name="s" unicode="s" horiz-adv-x="478" 
d="M258 460q-18 0 -38 -5t-36.5 -15.5t-27.5 -26.5t-11 -37q0 -37 27 -57.5t94 -36.5t101 -48t34 -86q0 -37 -14 -67t-39 -51t-59.5 -32.5t-75.5 -11.5q-38 0 -69.5 11.5t-55 31t-38.5 46t-21 55.5l53 29q4 -25 14.5 -47.5t27 -39t39 -26.5t51.5 -10q60 0 93.5 30t33.5 78
q0 21 -5.5 35.5t-19 25t-35 19t-53.5 16.5q-65 17 -102 48t-37 83q0 31 13 57t36 44t54.5 28t68.5 10q71 0 111.5 -33t55.5 -86l-47 -24q-15 51 -47.5 72t-75.5 21z" />
    <glyph glyph-name="t" unicode="t" horiz-adv-x="334" 
d="M68 496h86l26 134h60l-26 -134h119l-9 -44h-119l-64 -333q-3 -17 -3 -29q0 -26 15 -40t40 -14q11 0 19 1.5t19 4.5l-3 -48q-13 -5 -24.5 -6.5t-30.5 -1.5q-42 0 -68.5 23t-26.5 74q0 8 0.5 16.5t2.5 19.5l64 333h-86z" />
    <glyph glyph-name="u" unicode="u" horiz-adv-x="556" 
d="M115 496h60l-61 -314q-3 -16 -3.5 -24t-0.5 -17q0 -47 28.5 -76t81.5 -29q29 0 58.5 13.5t55 39.5t45 63t28.5 84l51 260h60l-96 -496h-60l15 77q-27 -44 -72.5 -67.5t-99.5 -23.5q-70 0 -112.5 39.5t-42.5 109.5q0 11 1 21.5t3 24.5z" />
    <glyph glyph-name="v" unicode="v" horiz-adv-x="474" 
d="M211 0h-60l-102 496h63l81 -423l241 423h64z" />
    <glyph glyph-name="w" unicode="w" horiz-adv-x="676" 
d="M445 65l193 431h60l-229 -496h-71l-38 432l-195 -432h-72l-42 496h60l28 -431l196 431h74z" />
    <glyph glyph-name="x" unicode="x" horiz-adv-x="422" 
d="M211 318l140 178h69l-185 -228l113 -268h-60l-91 222l-174 -222h-73l222 276l-101 220h64z" />
    <glyph glyph-name="y" unicode="y" horiz-adv-x="477" 
d="M-22 -149q18 -8 37 -8q24 0 39.5 11.5t32.5 41.5l65 111l-105 489h60l88 -418l245 418h68l-368 -617q-16 -27 -30.5 -44.5t-29.5 -27.5t-32.5 -14t-40.5 -4q-11 0 -24 2t-24 7z" />
    <glyph glyph-name="z" unicode="z" horiz-adv-x="474" 
d="M383 50l-10 -50h-387l9 50l382 396h-293l10 50h362l-10 -50l-381 -396h318z" />
    <glyph glyph-name="braceleft" unicode="{" horiz-adv-x="360" 
d="M58 302q44 0 64 21.5t27 57.5l36 185q14 72 54 103t117 31h27l-10 -50h-36q-35 0 -59.5 -19.5t-32.5 -56.5l-37 -188q-5 -24 -11.5 -42t-16.5 -30.5t-24 -22t-34 -16.5q21 -10 33.5 -28t12.5 -50q0 -12 -1.5 -22.5t-4.5 -25.5l-29 -151q-2 -10 -3 -18.5t-1 -16.5
q0 -33 16 -48t48 -15h35l-10 -50h-31q-53 0 -84.5 26.5t-31.5 84.5q0 14 2 26.5t6 30.5l28 146q2 9 2.5 16t0.5 16q0 27 -14.5 39.5t-48.5 12.5z" />
    <glyph glyph-name="bar" unicode="|" horiz-adv-x="236" 
d="M173 740h60l-165 -850h-60z" />
    <glyph glyph-name="braceright" unicode="}" horiz-adv-x="360" 
d="M291 248q-44 0 -64 -21.5t-27 -57.5l-36 -185q-14 -72 -54 -103t-117 -31h-27l10 50h36q35 0 59.5 19.5t32.5 56.5l37 188q5 24 11.5 42t16.5 30.5t24 21.5t34 17q-21 10 -33.5 28t-12.5 50q0 12 1.5 22.5t4.5 25.5l29 151q2 10 3 18.5t1 16.5q0 33 -16 48t-48 15h-35
l10 50h31q53 0 84.5 -26.5t31.5 -84.5q0 -14 -2 -26.5t-6 -30.5l-28 -146q-2 -9 -2.5 -16t-0.5 -16q0 -27 14.5 -39.5t48.5 -12.5z" />
    <glyph glyph-name="asciitilde" unicode="~" horiz-adv-x="427" 
d="M142 341q-20 0 -31 -12.5t-11 -32.5q0 -5 2 -13l-55 -9q-2 4 -3 10t-1 18q0 35 23.5 62.5t74.5 27.5q32 0 53 -10.5t37 -22.5t30.5 -22.5t35.5 -10.5q17 0 25.5 11.5t8.5 29.5q0 5 -2 13l55 11q4 -10 4 -29q0 -41 -25.5 -64t-71.5 -23q-31 0 -52 10.5t-36.5 22.5
t-29.5 22.5t-31 10.5z" />
    <glyph glyph-name="uni00A0" unicode="&#xa0;" horiz-adv-x="276" 
 />
    <glyph glyph-name="exclamdown" unicode="&#xa1;" horiz-adv-x="258" 
d="M61 -204h-60l42 213l72 315h38l-50 -315zM192 412h-82l17 84h82z" />
    <glyph glyph-name="cent" unicode="&#xa2;" horiz-adv-x="562" 
d="M500 132q-41 -73 -97 -108.5t-134 -37.5l-18 -96h-60l19 102q-75 15 -121 74t-46 152q0 51 17.5 101.5t51.5 91t83.5 67t114.5 31.5l22 111h60l-22 -113q58 -9 99.5 -44t61.5 -89l-46 -26q-20 48 -51.5 73.5t-73.5 33.5l-81 -417q63 4 105 37t76 87zM106 219
q0 -73 32 -117t82 -58l80 412q-44 -5 -80 -26t-61.5 -53t-39 -73t-13.5 -85z" />
    <glyph glyph-name="sterling" unicode="&#xa3;" horiz-adv-x="556" 
d="M48 372h77q-2 18 -3.5 40t-1.5 48q0 53 16 99t47.5 80.5t77.5 54.5t107 20q39 0 72 -11t56.5 -30.5t37 -48t13.5 -62.5q0 -25 -6 -46t-15 -38l-54 10q8 18 11.5 33.5t3.5 35.5q0 21 -7.5 40t-23 33.5t-39.5 23t-57 8.5q-41 0 -74 -14.5t-56.5 -41t-36.5 -64t-13 -82.5
q0 -25 1.5 -46.5t3.5 -41.5h200l-9 -48h-185q1 -8 1.5 -16t0.5 -22q0 -27 -7.5 -57.5t-21 -61t-32 -60t-39.5 -53.5h358l-10 -54h-426l8 46q23 26 43 53.5t35 58.5t23.5 67.5t8.5 80.5v9t-1 9h-93z" />
    <glyph glyph-name="currency" unicode="&#xa4;" horiz-adv-x="620" 
d="M532 350q0 -42 -11.5 -75.5t-31.5 -59.5l61 -62l-43 -43l-62 61q-30 -22 -65 -33t-70 -11t-70 11t-65 33l-62 -61l-43 43l61 62q-20 26 -31.5 59.5t-11.5 75.5t11.5 75.5t31.5 59.5l-61 62l43 43l62 -61q30 22 65 33t70 11t70 -11t65 -33l62 61l43 -43l-61 -62
q20 -26 31.5 -59.5t11.5 -75.5zM310 180q36 0 65.5 12.5t51 35t33.5 53.5t12 69q0 37 -12 68.5t-33.5 54t-51 35t-65.5 12.5t-65.5 -12.5t-51 -35t-33.5 -54t-12 -68.5q0 -38 12 -69t33.5 -53.5t51 -35t65.5 -12.5z" />
    <glyph glyph-name="yen" unicode="&#xa5;" horiz-adv-x="534" 
d="M95 338h122l-120 362h64l98 -315q2 -7 4 -15q2 -7 4 -15t4 -17q5 8 9 16.5t9 15.5q4 8 10 15l227 315h66l-261 -362h123l-9 -46h-150l-17 -88h150l-9 -46h-150l-31 -158h-60l31 158h-149l9 46h149l17 88h-149z" />
    <glyph glyph-name="brokenbar" unicode="&#xa6;" horiz-adv-x="236" 
d="M103 380l70 360h60l-70 -360h-60zM138 250l-70 -360h-60l70 360h60z" />
    <glyph glyph-name="section" unicode="&#xa7;" horiz-adv-x="511" 
d="M445 302q0 -48 -21 -79t-56 -54q29 -35 29 -82q0 -42 -16 -75.5t-43 -57t-63.5 -35.5t-77.5 -12q-36 0 -68 10.5t-56.5 28.5t-42 41.5t-25.5 50.5l53 33q16 -57 55 -84.5t93 -27.5q25 0 49 8.5t42 23.5t29 36.5t11 47.5q0 22 -6.5 39t-21.5 30.5t-40.5 24t-63.5 19.5
q-69 17 -103.5 54.5t-34.5 86.5q0 47 23.5 75t50.5 45q-14 17 -22.5 39t-8.5 51q0 40 16.5 72.5t45 55.5t65.5 35t78 12q36 0 68 -10.5t56.5 -28.5t42 -41.5t25.5 -50.5l-53 -33q-16 57 -55 84.5t-93 27.5q-29 0 -54 -8.5t-43 -23.5t-28.5 -35.5t-10.5 -44.5q0 -21 6.5 -39
t22.5 -33.5t43.5 -28t69.5 -22.5q37 -9 62 -22.5t41 -30t23 -35t7 -37.5zM243 241q23 -5 43.5 -14t39.5 -20q25 12 40.5 33t15.5 53q0 29 -25 52t-88 37q-23 5 -45 13t-41 19q-22 -12 -37.5 -32.5t-15.5 -46.5q0 -34 24 -56.5t89 -37.5z" />
    <glyph glyph-name="dieresis" unicode="&#xa8;" horiz-adv-x="368" 
d="M286 670h80l-15 -76h-80zM138 670h80l-15 -76h-80z" />
    <glyph glyph-name="copyright" unicode="&#xa9;" horiz-adv-x="848" 
d="M60 350q0 76 28.5 142t78 115.5t116 78t141.5 28.5t141 -28.5t115.5 -78t78.5 -115.5t29 -142t-29 -142t-78.5 -115.5t-115.5 -78t-141 -28.5t-141.5 28.5t-116 78t-78 115.5t-28.5 142zM108 350q0 -66 24.5 -124t67.5 -101t100.5 -68t123.5 -25t123.5 25t100.5 68
t67.5 101t24.5 124t-24.5 124t-67.5 101t-100.5 68t-123.5 25t-123.5 -25t-100.5 -68t-67.5 -101t-24.5 -124zM596 257q-25 -51 -68 -81t-100 -30q-45 0 -81.5 15.5t-62.5 42.5t-40 64.5t-14 81.5t15.5 81.5t41.5 64.5t61.5 42.5t76.5 15.5q63 0 106.5 -28.5t63.5 -77.5
l-32 -21q-23 45 -58.5 65.5t-79.5 20.5q-29 0 -56 -11.5t-47.5 -32.5t-32.5 -51t-12 -68q0 -37 11.5 -67t32 -51t47.5 -32.5t59 -11.5q53 0 85 26.5t52 63.5z" />
    <glyph glyph-name="ordfeminine" unicode="&#xaa;" horiz-adv-x="374" 
d="M289 300q-5 6 -8 16t-3 22q0 5 0.5 10.5t1.5 12.5q-39 -68 -122 -68q-21 0 -39.5 7.5t-33 21t-23 32t-8.5 41.5q0 51 34.5 79t94.5 36l128 16l2 9q2 8 2 11v8q0 31 -22.5 46.5t-56.5 15.5q-41 0 -64.5 -14.5t-23.5 -37.5q0 -7 1 -12l-47 -15q-2 10 -2 21q0 44 37.5 71.5
t95.5 27.5q60 0 96 -26t36 -74q0 -18 -3 -33l-26 -135q-6 -27 -6 -45q0 -11 2.5 -22.5t6.5 -21.5h-50zM176 340q46 0 80.5 37.5t44.5 95.5l2 12l-119 -15q-33 -5 -55.5 -22t-22.5 -47q0 -29 19.5 -45t50.5 -16z" />
    <glyph glyph-name="guillemotleft" unicode="&#xab;" horiz-adv-x="466" 
d="M474 469l-196 -199l110 -189h-64l-114 194l188 194h76zM314 469l-196 -199l110 -189h-64l-114 194l188 194h76z" />
    <glyph glyph-name="logicalnot" unicode="&#xac;" horiz-adv-x="518" 
d="M361 208l25 132h-331l10 50h395l-35 -182h-64z" />
    <glyph glyph-name="registered" unicode="&#xae;" horiz-adv-x="848" 
d="M422 324h-87v-173h-46v398h159q60 0 92 -32t32 -81q0 -46 -28.5 -73t-72.5 -36l99 -176h-50zM335 363h111q39 0 60 20.5t21 52.5t-21 52t-60 20h-111v-145zM60 350q0 76 28.5 142t78 115.5t116 78t141.5 28.5t141 -28.5t115.5 -78t78.5 -115.5t29 -142t-29 -142
t-78.5 -115.5t-115.5 -78t-141 -28.5t-141.5 28.5t-116 78t-78 115.5t-28.5 142zM108 350q0 -66 24.5 -124t67.5 -101t100.5 -68t123.5 -25t123.5 25t100.5 68t67.5 101t24.5 124t-24.5 124t-67.5 101t-100.5 68t-123.5 25t-123.5 -25t-100.5 -68t-67.5 -101t-24.5 -124z
" />
    <glyph glyph-name="macron" unicode="&#xaf;" horiz-adv-x="302" 
d="M119 662h206l-11 -54h-206z" />
    <glyph glyph-name="degree" unicode="&#xb0;" horiz-adv-x="360" 
d="M98 579q0 28 10.5 52.5t28.5 43t43 29t54 10.5t54 -10.5t43 -29t28.5 -43t10.5 -52.5t-10.5 -52.5t-28.5 -43t-43 -29t-54 -10.5t-54 10.5t-43 29t-28.5 43t-10.5 52.5zM146 579q0 -37 24 -63t64 -26t64 26t24 63t-24 63t-64 26t-64 -26t-24 -63z" />
    <glyph glyph-name="plusminus" unicode="&#xb1;" horiz-adv-x="487" 
d="M61 365h171l34 172h48l-34 -172h172l-9 -46h-172l-34 -173h-48l34 173h-171zM0 46h391l-9 -46h-391z" />
    <glyph glyph-name="twosuperior" unicode="&#xb2;" horiz-adv-x="334" 
d="M233 522q27 22 38.5 43.5t11.5 44.5q0 25 -16.5 40t-47.5 15q-35 0 -54 -20t-19 -49q0 -7 2 -17l-44 -6q-3 10 -3 24q0 47 34.5 78.5t89.5 31.5q48 0 77 -26t29 -68q0 -38 -19.5 -67t-52.5 -56l-114 -94h154l-8 -46h-231l7 38z" />
    <glyph glyph-name="threesuperior" unicode="&#xb3;" horiz-adv-x="335" 
d="M140 463q-4 -11 -4 -24q0 -23 19.5 -37.5t48.5 -14.5q33 0 54.5 18.5t21.5 50.5q0 34 -22.5 48.5t-62.5 14.5l7 39q35 0 61 14t26 46q0 25 -16 36t-41 11q-26 0 -45 -13t-19 -35v-7.5t2 -8.5l-41 -4q-2 8 -2 18q0 18 7.5 34.5t21.5 29t34 20.5t45 8q49 0 74 -23t25 -55
q0 -29 -16.5 -52.5t-48.5 -34.5q23 -8 41 -26.5t18 -49.5q0 -26 -9 -48.5t-25.5 -39t-40 -26t-51.5 -9.5q-23 0 -43 7t-35 19t-23.5 28.5t-8.5 35.5q0 11 1.5 21t6.5 18z" />
    <glyph glyph-name="acute" unicode="&#xb4;" horiz-adv-x="276" 
d="M207 700h89l-124 -138h-52z" />
    <glyph glyph-name="mu" unicode="&#xb5;" horiz-adv-x="556" 
d="M115 496h60l-61 -314q-3 -16 -3.5 -24t-0.5 -17q0 -47 28.5 -76t81.5 -29q29 0 58.5 13.5t55 39.5t45 63t28.5 84l51 260h60l-96 -496h-60l15 77q-27 -44 -72.5 -67.5t-99.5 -23.5q-39 0 -71 12.5t-52 35.5q-2 -16 -4 -30l-4 -24t-3 -17l-33 -167h-60z" />
    <glyph glyph-name="paragraph" unicode="&#xb6;" horiz-adv-x="601" 
d="M285 -120h-60l84 434h-43q-38 0 -72 11t-59.5 33t-40.5 53.5t-15 73.5q0 46 19 85.5t53 68.5t81.5 45t104.5 16h305l-10 -52h-60l-149 -768h-60l149 768h-78z" />
    <glyph glyph-name="periodcentered" unicode="&#xb7;" horiz-adv-x="176" 
d="M69 400h80l-15 -82h-80z" />
    <glyph glyph-name="cedilla" unicode="&#xb8;" horiz-adv-x="299" 
d="M24 -75l49 91h48l-50 -75q10 7 22.5 11t24.5 4q27 0 46 -17t19 -53q0 -40 -25.5 -65t-75.5 -25q-35 0 -53 17.5t-23 43.5l40 9q3 -14 13 -22t29 -8t33 11t14 36q0 18 -11 27t-28 9q-15 0 -26.5 -6t-22.5 -14z" />
    <glyph glyph-name="onesuperior" unicode="&#xb9;" horiz-adv-x="239" 
d="M114 657q33 0 52.5 10t35.5 33h44l-69 -350h-48l55 282q-14 -13 -33.5 -18t-45.5 -5z" />
    <glyph glyph-name="ordmasculine" unicode="&#xba;" horiz-adv-x="454" 
d="M430 502q0 -44 -15 -82t-42 -66.5t-65 -44.5t-83 -16q-31 0 -60 11.5t-51 32t-35 49.5t-13 65q0 40 13.5 77.5t39.5 66t64.5 45.5t89.5 17q35 0 64 -11.5t49.5 -31.5t32 -49t11.5 -63zM230 335q33 0 61 13t48.5 35.5t31.5 52t11 62.5q0 52 -32 84.5t-83 32.5
q-35 0 -63.5 -13.5t-48.5 -36t-30.5 -51t-10.5 -59.5q0 -57 34 -88.5t82 -31.5z" />
    <glyph glyph-name="guillemotright" unicode="&#xbb;" horiz-adv-x="466" 
d="M-3 81l196 199l-110 189h64l114 -194l-188 -194h-76zM157 81l196 199l-110 189h64l114 -194l-188 -194h-76z" />
    <glyph glyph-name="onequarter" unicode="&#xbc;" horiz-adv-x="744" 
d="M125 657q33 0 52.5 10t35.5 33h44l-69 -350h-48l55 282q-14 -13 -33.5 -18t-45.5 -5zM79 37l563 661l36 -33l-563 -661zM395 114l214 236h52l-46 -236h40l-9 -44h-40l-14 -70h-50l14 70h-170zM452 114h113l30 157z" />
    <glyph glyph-name="onehalf" unicode="&#xbd;" horiz-adv-x="770" 
d="M124 657q33 0 52.5 10t35.5 33h44l-69 -350h-48l55 282q-14 -13 -33.5 -18t-45.5 -5zM77 36l563 661l36 -33l-563 -661zM609 172q27 22 38.5 43.5t11.5 44.5q0 25 -16.5 40t-47.5 15q-35 0 -54 -20t-19 -49q0 -7 2 -17l-44 -6q-3 10 -3 24q0 47 34.5 78.5t89.5 31.5
q48 0 77 -26t29 -68q0 -38 -19.5 -67t-52.5 -56l-114 -94h154l-8 -46h-231l7 38z" />
    <glyph glyph-name="threequarters" unicode="&#xbe;" horiz-adv-x="813" 
d="M131 36l563 661l36 -33l-563 -661zM459 114l214 236h52l-46 -236h40l-9 -44h-40l-14 -70h-50l14 70h-170zM516 114h113l30 157zM137 463q-4 -11 -4 -24q0 -23 19.5 -37.5t48.5 -14.5q33 0 54.5 18.5t21.5 50.5q0 34 -22.5 48.5t-62.5 14.5l7 39q35 0 61 14t26 46
q0 25 -16 36t-41 11q-26 0 -45 -13t-19 -35v-7.5t2 -8.5l-41 -4q-2 8 -2 18q0 18 7.5 34.5t21.5 29t34 20.5t45 8q49 0 74 -23t25 -55q0 -29 -16.5 -52.5t-48.5 -34.5q23 -8 41 -26.5t18 -49.5q0 -26 -9 -48.5t-25.5 -39t-40 -26t-51.5 -9.5q-23 0 -43 7t-35 19t-23.5 28.5
t-8.5 35.5q0 11 1.5 21t6.5 18z" />
    <glyph glyph-name="questiondown" unicode="&#xbf;" horiz-adv-x="525" 
d="M335 412h-82l16 84h82zM307 321l-2 -13q-5 -32 -12.5 -54.5t-21 -41.5t-34.5 -37.5t-54 -41.5q-23 -17 -45.5 -35.5t-40.5 -40t-29 -47t-11 -55.5q0 -59 36 -91t95 -32q36 0 65 12.5t49.5 33.5t31.5 49t11 60q0 17 -3 34l55 10q4 -13 5 -24.5t1 -20.5q0 -44 -15.5 -81.5
t-44 -64.5t-68.5 -42.5t-90 -15.5q-44 0 -79 12.5t-59 35t-37 53t-13 66.5q0 34 10 63.5t29.5 56.5t48.5 53t68 53q20 14 35 27t26.5 29t19.5 37.5t13 52.5h60z" />
    <glyph glyph-name="Agrave" unicode="&#xc0;" horiz-adv-x="636" 
d="M363 700h67l141 -700h-60l-43 217h-326l-128 -217h-66zM393 596q-4 19 -5 28.5t-2 13.5q-2 -5 -7 -14t-16 -28l-193 -329h288zM426 766h-52l-72 138h82z" />
    <glyph glyph-name="Aacute" unicode="&#xc1;" horiz-adv-x="636" 
d="M363 700h67l141 -700h-60l-43 217h-326l-128 -217h-66zM393 596q-4 19 -5 28.5t-2 13.5q-2 -5 -7 -14t-16 -28l-193 -329h288zM467 904h89l-124 -138h-52z" />
    <glyph glyph-name="Acircumflex" unicode="&#xc2;" horiz-adv-x="636" 
d="M363 700h67l141 -700h-60l-43 217h-326l-128 -217h-66zM393 596q-4 19 -5 28.5t-2 13.5q-2 -5 -7 -14t-16 -28l-193 -329h288zM397 904h54l73 -138h-50l-61 78l-86 -78h-56z" />
    <glyph glyph-name="Atilde" unicode="&#xc3;" horiz-adv-x="636" 
d="M363 700h67l141 -700h-60l-43 217h-326l-128 -217h-66zM393 596q-4 19 -5 28.5t-2 13.5q-2 -5 -7 -14t-16 -28l-193 -329h288zM331 838q-17 0 -27.5 -11t-10.5 -27q0 -6 0.5 -9.5t1.5 -6.5l-51 -10q-2 5 -3 11.5t-1 15.5q0 35 22.5 61t70.5 26q30 0 48.5 -10.5t32 -23.5
t26 -23.5t32.5 -10.5q17 0 27 10.5t10 26.5q0 5 -0.5 9t-1.5 8l51 10q2 -7 3 -15t1 -16q0 -41 -24.5 -62t-63.5 -21q-33 0 -52 10.5t-32 23.5t-25.5 23.5t-33.5 10.5z" />
    <glyph glyph-name="Adieresis" unicode="&#xc4;" horiz-adv-x="636" 
d="M363 700h67l141 -700h-60l-43 217h-326l-128 -217h-66zM393 596q-4 19 -5 28.5t-2 13.5q-2 -5 -7 -14t-16 -28l-193 -329h288zM463 874h80l-15 -76h-80zM315 874h80l-15 -76h-80z" />
    <glyph glyph-name="Aring" unicode="&#xc5;" horiz-adv-x="636" 
d="M363 700h67l141 -700h-60l-43 217h-326l-128 -217h-66zM393 596q-4 19 -5 28.5t-2 13.5q-2 -5 -7 -14t-16 -28l-193 -329h288zM312 839q0 40 28 67.5t68 27.5t68 -27.5t28 -67.5t-28 -67.5t-68 -27.5t-68 27.5t-28 67.5zM356 839q0 -22 14.5 -37.5t37.5 -15.5t37.5 15.5
t14.5 37.5t-14.5 37.5t-37.5 15.5t-37.5 -15.5t-14.5 -37.5z" />
    <glyph glyph-name="AE" unicode="&#xc6;" horiz-adv-x="910" 
d="M405 217h-250l-139 -217h-68l446 700h519l-11 -52h-354l-50 -260h326l-10 -52h-326l-55 -284h357l-11 -52h-417zM186 267h228l74 381h-59z" />
    <glyph glyph-name="Ccedilla" unicode="&#xc7;" horiz-adv-x="736" 
d="M255 -75l35 65q-56 9 -99 35t-72 66t-44.5 92t-15.5 113q0 80 28.5 155.5t81 134t126.5 93.5t164 35q99 0 164 -49.5t92 -129.5l-48 -29q-33 86 -88.5 121t-132.5 35q-72 0 -132 -31.5t-103.5 -82.5t-67.5 -116.5t-24 -133.5q0 -57 16.5 -105t47 -82.5t73 -53.5t93.5 -19
q80 0 144.5 41.5t113.5 119.5l42 -29q-54 -88 -127.5 -136t-178.5 -48h-11l-30 -45q10 7 22.5 11t24.5 4q27 0 46 -17t19 -53q0 -40 -25.5 -65t-75.5 -25q-35 0 -53 17.5t-23 43.5l40 9q3 -14 13 -22t29 -8t33 11t14 36q0 18 -11 27t-28 9q-15 0 -26.5 -6t-22.5 -14z" />
    <glyph glyph-name="Egrave" unicode="&#xc8;" horiz-adv-x="573" 
d="M166 700h410l-11 -52h-350l-50 -260h322l-10 -52h-322l-55 -284h353l-11 -52h-413zM409 766h-52l-72 138h82z" />
    <glyph glyph-name="Eacute" unicode="&#xc9;" horiz-adv-x="573" 
d="M166 700h410l-11 -52h-350l-50 -260h322l-10 -52h-322l-55 -284h353l-11 -52h-413zM411 904h89l-124 -138h-52z" />
    <glyph glyph-name="Ecircumflex" unicode="&#xca;" horiz-adv-x="573" 
d="M166 700h410l-11 -52h-350l-50 -260h322l-10 -52h-322l-55 -284h353l-11 -52h-413zM380 904h54l73 -138h-50l-61 78l-86 -78h-56z" />
    <glyph glyph-name="Edieresis" unicode="&#xcb;" horiz-adv-x="573" 
d="M166 700h410l-11 -52h-350l-50 -260h322l-10 -52h-322l-55 -284h353l-11 -52h-413zM438 874h80l-15 -76h-80zM290 874h80l-15 -76h-80z" />
    <glyph glyph-name="Igrave" unicode="&#xcc;" horiz-adv-x="236" 
d="M166 700h60l-137 -700h-60zM234 766h-52l-72 138h82z" />
    <glyph glyph-name="Iacute" unicode="&#xcd;" horiz-adv-x="236" 
d="M166 700h60l-137 -700h-60zM265 904h89l-124 -138h-52z" />
    <glyph glyph-name="Icircumflex" unicode="&#xce;" horiz-adv-x="236" 
d="M166 700h60l-137 -700h-60zM206 904h54l73 -138h-50l-61 78l-86 -78h-56z" />
    <glyph glyph-name="Idieresis" unicode="&#xcf;" horiz-adv-x="236" 
d="M166 700h60l-137 -700h-60zM262 874h80l-15 -76h-80zM114 874h80l-15 -76h-80z" />
    <glyph glyph-name="Eth" unicode="&#xd0;" horiz-adv-x="696" 
d="M56 376h72l64 324h180q61 0 112.5 -18t89 -54t59 -90t21.5 -126q0 -89 -28.5 -164t-81.5 -130.5t-129.5 -86.5t-172.5 -31h-187l63 324h-73zM240 52q86 1 152 29t111 76t68 113t23 142q0 64 -18.5 108.5t-51 73t-77.5 41.5t-98 13h-108l-53 -272h154l-11 -52h-153
l-52 -272h114z" />
    <glyph glyph-name="Ntilde" unicode="&#xd1;" horiz-adv-x="684" 
d="M166 700h60l250 -562q5 -11 9 -22q4 -9 6.5 -18.5t4.5 -14.5l120 617h58l-137 -700h-60l-250 562q-5 11 -9 22q-4 9 -7 18t-4 15l-120 -617h-58zM371 838q-17 0 -27.5 -11t-10.5 -27q0 -6 0.5 -9.5t1.5 -6.5l-51 -10q-2 5 -3 11.5t-1 15.5q0 35 22.5 61t70.5 26
q30 0 48.5 -10.5t32 -23.5t26 -23.5t32.5 -10.5q17 0 27 10.5t10 26.5q0 5 -0.5 9t-1.5 8l51 10q2 -7 3 -15t1 -16q0 -41 -24.5 -62t-63.5 -21q-33 0 -52 10.5t-32 23.5t-25.5 23.5t-33.5 10.5z" />
    <glyph glyph-name="Ograve" unicode="&#xd2;" horiz-adv-x="770" 
d="M728 404q0 -78 -24 -153t-71 -134t-118 -95t-164 -36q-64 0 -118.5 21t-94.5 61t-62.5 97.5t-22.5 129.5q0 78 26.5 153t76 134.5t120 95.5t158.5 36q67 0 121.5 -20.5t93 -60t59 -97.5t20.5 -132zM352 38q74 0 132.5 30.5t99.5 81t62.5 115.5t21.5 134q0 133 -66 198
t-178 65q-69 0 -126.5 -31.5t-98.5 -83t-63.5 -116.5t-22.5 -131q0 -62 19 -110.5t51 -82.5t75.5 -51.5t93.5 -17.5zM476 766h-52l-72 138h82z" />
    <glyph glyph-name="Oacute" unicode="&#xd3;" horiz-adv-x="770" 
d="M728 404q0 -78 -24 -153t-71 -134t-118 -95t-164 -36q-64 0 -118.5 21t-94.5 61t-62.5 97.5t-22.5 129.5q0 78 26.5 153t76 134.5t120 95.5t158.5 36q67 0 121.5 -20.5t93 -60t59 -97.5t20.5 -132zM352 38q74 0 132.5 30.5t99.5 81t62.5 115.5t21.5 134q0 133 -66 198
t-178 65q-69 0 -126.5 -31.5t-98.5 -83t-63.5 -116.5t-22.5 -131q0 -62 19 -110.5t51 -82.5t75.5 -51.5t93.5 -17.5zM503 904h89l-124 -138h-52z" />
    <glyph glyph-name="Ocircumflex" unicode="&#xd4;" horiz-adv-x="770" 
d="M728 404q0 -78 -24 -153t-71 -134t-118 -95t-164 -36q-64 0 -118.5 21t-94.5 61t-62.5 97.5t-22.5 129.5q0 78 26.5 153t76 134.5t120 95.5t158.5 36q67 0 121.5 -20.5t93 -60t59 -97.5t20.5 -132zM352 38q74 0 132.5 30.5t99.5 81t62.5 115.5t21.5 134q0 133 -66 198
t-178 65q-69 0 -126.5 -31.5t-98.5 -83t-63.5 -116.5t-22.5 -131q0 -62 19 -110.5t51 -82.5t75.5 -51.5t93.5 -17.5zM444 904h54l73 -138h-50l-61 78l-86 -78h-56z" />
    <glyph glyph-name="Otilde" unicode="&#xd5;" horiz-adv-x="770" 
d="M728 404q0 -78 -24 -153t-71 -134t-118 -95t-164 -36q-64 0 -118.5 21t-94.5 61t-62.5 97.5t-22.5 129.5q0 78 26.5 153t76 134.5t120 95.5t158.5 36q67 0 121.5 -20.5t93 -60t59 -97.5t20.5 -132zM352 38q74 0 132.5 30.5t99.5 81t62.5 115.5t21.5 134q0 133 -66 198
t-178 65q-69 0 -126.5 -31.5t-98.5 -83t-63.5 -116.5t-22.5 -131q0 -62 19 -110.5t51 -82.5t75.5 -51.5t93.5 -17.5zM386 838q-17 0 -27.5 -11t-10.5 -27q0 -6 0.5 -9.5t1.5 -6.5l-51 -10q-2 5 -3 11.5t-1 15.5q0 35 22.5 61t70.5 26q30 0 48.5 -10.5t32 -23.5t26 -23.5
t32.5 -10.5q17 0 27 10.5t10 26.5q0 5 -0.5 9t-1.5 8l51 10q2 -7 3 -15t1 -16q0 -41 -24.5 -62t-63.5 -21q-33 0 -52 10.5t-32 23.5t-25.5 23.5t-33.5 10.5z" />
    <glyph glyph-name="Odieresis" unicode="&#xd6;" horiz-adv-x="770" 
d="M728 404q0 -78 -24 -153t-71 -134t-118 -95t-164 -36q-64 0 -118.5 21t-94.5 61t-62.5 97.5t-22.5 129.5q0 78 26.5 153t76 134.5t120 95.5t158.5 36q67 0 121.5 -20.5t93 -60t59 -97.5t20.5 -132zM352 38q74 0 132.5 30.5t99.5 81t62.5 115.5t21.5 134q0 133 -66 198
t-178 65q-69 0 -126.5 -31.5t-98.5 -83t-63.5 -116.5t-22.5 -131q0 -62 19 -110.5t51 -82.5t75.5 -51.5t93.5 -17.5zM500 874h80l-15 -76h-80zM352 874h80l-15 -76h-80z" />
    <glyph glyph-name="multiply" unicode="&#xd7;" horiz-adv-x="481" 
d="M75 243l147 123l-97 122l36 31l98 -122l146 122l29 -35l-147 -123l97 -119l-37 -30l-95 119l-149 -124z" />
    <glyph glyph-name="Oslash" unicode="&#xd8;" horiz-adv-x="770" 
d="M728 404q0 -78 -24 -153t-71 -134t-118 -95t-164 -36q-45 0 -84.5 10t-73.5 29l-38 -54l-44 31l39 55q-46 40 -71.5 100t-25.5 138t26.5 153t76 134.5t120 95.5t158.5 36q90 0 156 -36l36 51l44 -31l-36 -51q45 -40 69.5 -101t24.5 -142zM352 38q74 0 132.5 30.5t99.5 81
t62.5 115.5t21.5 134q0 68 -18 117.5t-50 82.5l-374 -527q56 -34 126 -34zM113 300q0 -63 19.5 -111.5t52.5 -82.5l371 525q-56 31 -132 31q-69 0 -126.5 -31.5t-98.5 -83t-63.5 -116.5t-22.5 -131z" />
    <glyph glyph-name="Ugrave" unicode="&#xd9;" horiz-adv-x="654" 
d="M563 218q-12 -60 -38 -103.5t-64 -72t-87 -42.5t-106 -14q-46 0 -84 13.5t-65.5 39t-42.5 62.5t-15 84q0 14 1.5 33.5t5.5 38.5l86 443h60l-91 -468q-3 -17 -3.5 -27.5t-0.5 -19.5q0 -63 40.5 -105t116.5 -42q94 0 152 49t74 130l94 483h60zM453 766h-52l-72 138h82z" />
    <glyph glyph-name="Uacute" unicode="&#xda;" horiz-adv-x="654" 
d="M563 218q-12 -60 -38 -103.5t-64 -72t-87 -42.5t-106 -14q-46 0 -84 13.5t-65.5 39t-42.5 62.5t-15 84q0 14 1.5 33.5t5.5 38.5l86 443h60l-91 -468q-3 -17 -3.5 -27.5t-0.5 -19.5q0 -63 40.5 -105t116.5 -42q94 0 152 49t74 130l94 483h60zM461 904h89l-124 -138h-52z
" />
    <glyph glyph-name="Ucircumflex" unicode="&#xdb;" horiz-adv-x="654" 
d="M563 218q-12 -60 -38 -103.5t-64 -72t-87 -42.5t-106 -14q-46 0 -84 13.5t-65.5 39t-42.5 62.5t-15 84q0 14 1.5 33.5t5.5 38.5l86 443h60l-91 -468q-3 -17 -3.5 -27.5t-0.5 -19.5q0 -63 40.5 -105t116.5 -42q94 0 152 49t74 130l94 483h60zM421 904h54l73 -138h-50
l-61 78l-86 -78h-56z" />
    <glyph glyph-name="Udieresis" unicode="&#xdc;" horiz-adv-x="654" 
d="M563 218q-12 -60 -38 -103.5t-64 -72t-87 -42.5t-106 -14q-46 0 -84 13.5t-65.5 39t-42.5 62.5t-15 84q0 14 1.5 33.5t5.5 38.5l86 443h60l-91 -468q-3 -17 -3.5 -27.5t-0.5 -19.5q0 -63 40.5 -105t116.5 -42q94 0 152 49t74 130l94 483h60zM472 874h80l-15 -76h-80z
M324 874h80l-15 -76h-80z" />
    <glyph glyph-name="Yacute" unicode="&#xdd;" horiz-adv-x="526" 
d="M232 292l-151 408h67l106 -313q2 -8 5 -16q2 -7 4.5 -15.5t4.5 -17.5q9 17 19 30q5 7 11 14l234 318h69l-309 -408l-57 -292h-60zM400 904h89l-124 -138h-52z" />
    <glyph glyph-name="Thorn" unicode="&#xde;" horiz-adv-x="661" 
d="M29 0l137 700h60l-27 -135h196q108 0 162 -51t54 -142q0 -56 -20 -99.5t-56 -74.5t-87 -47t-113 -16h-219l-27 -135h-60zM126 187h211q103 0 158.5 50t55.5 136q0 69 -41 104.5t-120 35.5h-201z" />
    <glyph glyph-name="germandbls" unicode="&#xdf;" horiz-adv-x="584" 
d="M273 408h16q41 0 77 10t62.5 29t41.5 46t15 61q0 56 -34 83t-85 27t-94 -35.5t-58 -111.5l-101 -517h-60l89 452h-84l8 44h84l3 18q18 106 76.5 153t141.5 47q35 0 66 -9.5t54.5 -29t37.5 -49t14 -70.5q0 -29 -11 -56.5t-30.5 -50t-46 -39.5t-58.5 -25q51 -21 86.5 -63.5
t35.5 -105.5q0 -53 -16.5 -95.5t-46.5 -72.5t-72.5 -46t-93.5 -16q-43 0 -79.5 14t-62.5 40l35 48q18 -21 48.5 -36.5t69.5 -15.5q34 0 63 12t50 34t33 53t12 70q0 72 -48 111.5t-129 39.5h-19z" />
    <glyph glyph-name="agrave" unicode="&#xe0;" horiz-adv-x="596" 
d="M558 496l-97 -496h-60l16 81q-33 -51 -76.5 -73t-97.5 -22q-49 0 -87.5 17.5t-65 48.5t-40.5 73t-14 91q0 63 20.5 116.5t57 93t86.5 62t110 22.5t104.5 -27.5t64.5 -81.5l19 95h60zM250 36q46 0 84.5 20.5t66 56t42.5 82t15 98.5q0 76 -39 121.5t-111 45.5
q-47 0 -86 -19.5t-67 -52.5t-43.5 -77.5t-15.5 -95.5q0 -38 10.5 -71t30.5 -57t48.5 -37.5t64.5 -13.5zM362 562h-52l-72 138h82z" />
    <glyph glyph-name="aacute" unicode="&#xe1;" horiz-adv-x="596" 
d="M558 496l-97 -496h-60l16 81q-33 -51 -76.5 -73t-97.5 -22q-49 0 -87.5 17.5t-65 48.5t-40.5 73t-14 91q0 63 20.5 116.5t57 93t86.5 62t110 22.5t104.5 -27.5t64.5 -81.5l19 95h60zM250 36q46 0 84.5 20.5t66 56t42.5 82t15 98.5q0 76 -39 121.5t-111 45.5
q-47 0 -86 -19.5t-67 -52.5t-43.5 -77.5t-15.5 -95.5q0 -38 10.5 -71t30.5 -57t48.5 -37.5t64.5 -13.5zM380 700h89l-124 -138h-52z" />
    <glyph glyph-name="acircumflex" unicode="&#xe2;" horiz-adv-x="596" 
d="M558 496l-97 -496h-60l16 81q-33 -51 -76.5 -73t-97.5 -22q-49 0 -87.5 17.5t-65 48.5t-40.5 73t-14 91q0 63 20.5 116.5t57 93t86.5 62t110 22.5t104.5 -27.5t64.5 -81.5l19 95h60zM250 36q46 0 84.5 20.5t66 56t42.5 82t15 98.5q0 76 -39 121.5t-111 45.5
q-47 0 -86 -19.5t-67 -52.5t-43.5 -77.5t-15.5 -95.5q0 -38 10.5 -71t30.5 -57t48.5 -37.5t64.5 -13.5zM322 700h54l73 -138h-50l-61 78l-86 -78h-56z" />
    <glyph glyph-name="atilde" unicode="&#xe3;" horiz-adv-x="596" 
d="M558 496l-97 -496h-60l16 81q-33 -51 -76.5 -73t-97.5 -22q-49 0 -87.5 17.5t-65 48.5t-40.5 73t-14 91q0 63 20.5 116.5t57 93t86.5 62t110 22.5t104.5 -27.5t64.5 -81.5l19 95h60zM250 36q46 0 84.5 20.5t66 56t42.5 82t15 98.5q0 76 -39 121.5t-111 45.5
q-47 0 -86 -19.5t-67 -52.5t-43.5 -77.5t-15.5 -95.5q0 -38 10.5 -71t30.5 -57t48.5 -37.5t64.5 -13.5zM272 634q-17 0 -27.5 -11t-10.5 -27q0 -6 0.5 -9.5t1.5 -6.5l-51 -10q-2 5 -3 11.5t-1 15.5q0 35 22.5 61t70.5 26q30 0 48.5 -10.5t32 -23.5t26 -23.5t32.5 -10.5
q17 0 27 10.5t10 26.5q0 5 -0.5 9t-1.5 8l51 10q2 -7 3 -15t1 -16q0 -41 -24.5 -62t-63.5 -21q-33 0 -52 10.5t-32 23.5t-25.5 23.5t-33.5 10.5z" />
    <glyph glyph-name="adieresis" unicode="&#xe4;" horiz-adv-x="596" 
d="M558 496l-97 -496h-60l16 81q-33 -51 -76.5 -73t-97.5 -22q-49 0 -87.5 17.5t-65 48.5t-40.5 73t-14 91q0 63 20.5 116.5t57 93t86.5 62t110 22.5t104.5 -27.5t64.5 -81.5l19 95h60zM250 36q46 0 84.5 20.5t66 56t42.5 82t15 98.5q0 76 -39 121.5t-111 45.5
q-47 0 -86 -19.5t-67 -52.5t-43.5 -77.5t-15.5 -95.5q0 -38 10.5 -71t30.5 -57t48.5 -37.5t64.5 -13.5zM384 670h80l-15 -76h-80zM236 670h80l-15 -76h-80z" />
    <glyph glyph-name="aring" unicode="&#xe5;" horiz-adv-x="596" 
d="M558 496l-97 -496h-60l16 81q-33 -51 -76.5 -73t-97.5 -22q-49 0 -87.5 17.5t-65 48.5t-40.5 73t-14 91q0 63 20.5 116.5t57 93t86.5 62t110 22.5t104.5 -27.5t64.5 -81.5l19 95h60zM250 36q46 0 84.5 20.5t66 56t42.5 82t15 98.5q0 76 -39 121.5t-111 45.5
q-47 0 -86 -19.5t-67 -52.5t-43.5 -77.5t-15.5 -95.5q0 -38 10.5 -71t30.5 -57t48.5 -37.5t64.5 -13.5zM230 635q0 40 28 67.5t68 27.5t68 -27.5t28 -67.5t-28 -67.5t-68 -27.5t-68 27.5t-28 67.5zM274 635q0 -22 14.5 -37.5t37.5 -15.5t37.5 15.5t14.5 37.5t-14.5 37.5
t-37.5 15.5t-37.5 -15.5t-14.5 -37.5z" />
    <glyph glyph-name="ae" unicode="&#xe6;" horiz-adv-x="986" 
d="M511 243q-2 -8 -2 -16.5v-16.5q0 -35 12 -66.5t34 -55.5t53 -38t69 -14q34 0 61.5 9t50 25.5t41.5 40.5t36 54l43 -28q-42 -78 -100.5 -114.5t-138.5 -36.5q-30 0 -58.5 6.5t-53.5 20.5t-45.5 35.5t-32.5 50.5l-19 -99h-60l16 81q-33 -51 -76.5 -73t-97.5 -22
q-49 0 -87.5 17.5t-65 48.5t-40.5 73t-14 91q0 63 20.5 116.5t57 93t86.5 62t110 22.5t104.5 -27.5t64.5 -81.5l19 95h60l-12 -67q32 39 79 60t107 21q51 0 91 -15.5t67 -42.5t41 -63.5t14 -78.5q0 -12 -1.5 -23t-3.5 -25l-4 -19h-425zM250 36q46 0 84.5 20.5t65.5 56t42 82
t15 98.5q0 76 -38.5 121.5t-110.5 45.5q-47 0 -86 -19.5t-67 -52.5t-43.5 -77.5t-15.5 -95.5q0 -38 10.5 -71t30.5 -57t48.5 -37.5t64.5 -13.5zM728 460q-36 0 -69.5 -11.5t-60.5 -33t-47 -52.5t-29 -70h363q2 11 2 16.5v13.5q0 30 -12 55t-33 43t-50 28.5t-64 10.5z" />
    <glyph glyph-name="ccedilla" unicode="&#xe7;" horiz-adv-x="553" 
d="M495 132q-42 -75 -99.5 -110.5t-137.5 -35.5h-6l-30 -45q10 7 22.5 11t24.5 4q27 0 46 -17t19 -53q0 -40 -25.5 -65t-75.5 -25q-35 0 -53 17.5t-23 43.5l40 9q3 -14 13 -22t29 -8t33 11t14 36q0 18 -11 27t-28 9q-15 0 -26.5 -6t-22.5 -14l-23 26l35 66q-78 14 -125 73.5
t-47 153.5q0 54 19 106t56 93.5t91 67t124 25.5q72 0 123.5 -36.5t74.5 -99.5l-46 -26q-24 58 -65 84t-98 26q-49 0 -88.5 -20t-68 -53t-44 -76.5t-15.5 -89.5q0 -44 12.5 -78t34.5 -57t51 -34.5t62 -11.5q69 0 114 33.5t80 90.5z" />
    <glyph glyph-name="egrave" unicode="&#xe8;" horiz-adv-x="569" 
d="M92 243q-2 -8 -2 -16.5v-16.5q0 -35 12.5 -66.5t35 -55.5t53.5 -38t69 -14q34 0 61.5 9t50 25.5t41.5 40.5t36 54l43 -28q-42 -78 -100.5 -114.5t-138.5 -36.5q-44 0 -84 14t-70.5 43.5t-48.5 74.5t-18 108q0 59 21.5 111t59.5 90.5t89.5 60.5t112.5 22q51 0 91 -15.5
t67 -42.5t41 -63.5t14 -78.5q0 -12 -1.5 -23t-3.5 -25l-4 -19h-427zM311 460q-36 0 -69.5 -11.5t-60.5 -33t-47 -52.5t-29 -70h363q2 11 2 16.5v13.5q0 30 -12 55t-33 43t-50 28.5t-64 10.5zM356 562h-52l-72 138h82z" />
    <glyph glyph-name="eacute" unicode="&#xe9;" horiz-adv-x="569" 
d="M92 243q-2 -8 -2 -16.5v-16.5q0 -35 12.5 -66.5t35 -55.5t53.5 -38t69 -14q34 0 61.5 9t50 25.5t41.5 40.5t36 54l43 -28q-42 -78 -100.5 -114.5t-138.5 -36.5q-44 0 -84 14t-70.5 43.5t-48.5 74.5t-18 108q0 59 21.5 111t59.5 90.5t89.5 60.5t112.5 22q51 0 91 -15.5
t67 -42.5t41 -63.5t14 -78.5q0 -12 -1.5 -23t-3.5 -25l-4 -19h-427zM311 460q-36 0 -69.5 -11.5t-60.5 -33t-47 -52.5t-29 -70h363q2 11 2 16.5v13.5q0 30 -12 55t-33 43t-50 28.5t-64 10.5zM370 700h89l-124 -138h-52z" />
    <glyph glyph-name="ecircumflex" unicode="&#xea;" horiz-adv-x="569" 
d="M92 243q-2 -8 -2 -16.5v-16.5q0 -35 12.5 -66.5t35 -55.5t53.5 -38t69 -14q34 0 61.5 9t50 25.5t41.5 40.5t36 54l43 -28q-42 -78 -100.5 -114.5t-138.5 -36.5q-44 0 -84 14t-70.5 43.5t-48.5 74.5t-18 108q0 59 21.5 111t59.5 90.5t89.5 60.5t112.5 22q51 0 91 -15.5
t67 -42.5t41 -63.5t14 -78.5q0 -12 -1.5 -23t-3.5 -25l-4 -19h-427zM311 460q-36 0 -69.5 -11.5t-60.5 -33t-47 -52.5t-29 -70h363q2 11 2 16.5v13.5q0 30 -12 55t-33 43t-50 28.5t-64 10.5zM323 700h54l73 -138h-50l-61 78l-86 -78h-56z" />
    <glyph glyph-name="edieresis" unicode="&#xeb;" horiz-adv-x="569" 
d="M92 243q-2 -8 -2 -16.5v-16.5q0 -35 12.5 -66.5t35 -55.5t53.5 -38t69 -14q34 0 61.5 9t50 25.5t41.5 40.5t36 54l43 -28q-42 -78 -100.5 -114.5t-138.5 -36.5q-44 0 -84 14t-70.5 43.5t-48.5 74.5t-18 108q0 59 21.5 111t59.5 90.5t89.5 60.5t112.5 22q51 0 91 -15.5
t67 -42.5t41 -63.5t14 -78.5q0 -12 -1.5 -23t-3.5 -25l-4 -19h-427zM311 460q-36 0 -69.5 -11.5t-60.5 -33t-47 -52.5t-29 -70h363q2 11 2 16.5v13.5q0 30 -12 55t-33 43t-50 28.5t-64 10.5zM374 670h80l-15 -76h-80zM226 670h80l-15 -76h-80z" />
    <glyph glyph-name="igrave" unicode="&#xec;" horiz-adv-x="210" 
d="M113 496h60l-97 -496h-60zM181 562h-52l-72 138h82z" />
    <glyph glyph-name="iacute" unicode="&#xed;" horiz-adv-x="210" 
d="M113 496h60l-97 -496h-60zM214 700h89l-124 -138h-52z" />
    <glyph glyph-name="icircumflex" unicode="&#xee;" horiz-adv-x="210" 
d="M113 496h60l-97 -496h-60zM151 700h54l73 -138h-50l-61 78l-86 -78h-56z" />
    <glyph glyph-name="idieresis" unicode="&#xef;" horiz-adv-x="210" 
d="M113 496h60l-97 -496h-60zM210 670h80l-15 -76h-80zM62 670h80l-15 -76h-80z" />
    <glyph glyph-name="eth" unicode="&#xf0;" horiz-adv-x="574" 
d="M259 567l112 40q-52 47 -127 88l29 42q44 -22 83 -48.5t71 -61.5l104 38l15 -45l-87 -32q33 -46 52 -103.5t19 -131.5q0 -77 -17.5 -144t-53.5 -116.5t-90 -78t-127 -28.5q-39 0 -76.5 14t-67 41t-47.5 66t-18 89q0 51 18.5 99t53.5 85t84.5 59.5t112.5 22.5
q29 0 57 -8.5t51 -23t40.5 -33.5t26.5 -41q-3 68 -21 119t-50 93l-132 -48zM251 36q43 0 80 17.5t64 47.5t42.5 70.5t15.5 87.5q0 35 -12 63t-33 48t-51 31t-66 11q-43 0 -79.5 -18t-63 -48t-41.5 -68t-15 -78q0 -41 13 -71.5t35 -51t50.5 -31t60.5 -10.5z" />
    <glyph glyph-name="ntilde" unicode="&#xf1;" horiz-adv-x="558" 
d="M423 0h-60l64 330q3 18 3 35q0 47 -29.5 71t-77.5 24q-31 0 -61.5 -13.5t-56 -37.5t-44.5 -56.5t-26 -71.5l-55 -281h-60l96 496h60l-15 -77q36 49 82 70t100 21q30 0 56.5 -8t47 -25t32 -43.5t11.5 -62.5q0 -11 -1 -21t-3 -24zM271 634q-17 0 -27.5 -11t-10.5 -27
q0 -6 0.5 -9.5t1.5 -6.5l-51 -10q-2 5 -3 11.5t-1 15.5q0 35 22.5 61t70.5 26q30 0 48.5 -10.5t32 -23.5t26 -23.5t32.5 -10.5q17 0 27 10.5t10 26.5q0 5 -0.5 9t-1.5 8l51 10q2 -7 3 -15t1 -16q0 -41 -24.5 -62t-63.5 -21q-33 0 -52 10.5t-32 23.5t-25.5 23.5t-33.5 10.5z
" />
    <glyph glyph-name="ograve" unicode="&#xf2;" horiz-adv-x="592" 
d="M546 291q0 -66 -21 -121.5t-58.5 -96.5t-89.5 -64t-113 -23q-44 0 -85 14t-73.5 42t-52 70.5t-19.5 99.5q0 62 21 116t58.5 94.5t90.5 64t117 23.5q44 0 85 -13.5t72 -40.5t49.5 -68.5t18.5 -96.5zM269 36q44 0 83.5 19t69 52t47 77.5t17.5 96.5q0 83 -47.5 131
t-126.5 48q-49 0 -89 -21.5t-68.5 -56.5t-44.5 -79t-16 -89q0 -39 12.5 -72t36 -56.5t55.5 -36.5t71 -13zM363 562h-52l-72 138h82z" />
    <glyph glyph-name="oacute" unicode="&#xf3;" horiz-adv-x="592" 
d="M546 291q0 -66 -21 -121.5t-58.5 -96.5t-89.5 -64t-113 -23q-44 0 -85 14t-73.5 42t-52 70.5t-19.5 99.5q0 62 21 116t58.5 94.5t90.5 64t117 23.5q44 0 85 -13.5t72 -40.5t49.5 -68.5t18.5 -96.5zM269 36q44 0 83.5 19t69 52t47 77.5t17.5 96.5q0 83 -47.5 131
t-126.5 48q-49 0 -89 -21.5t-68.5 -56.5t-44.5 -79t-16 -89q0 -39 12.5 -72t36 -56.5t55.5 -36.5t71 -13zM392 700h89l-124 -138h-52z" />
    <glyph glyph-name="ocircumflex" unicode="&#xf4;" horiz-adv-x="592" 
d="M546 291q0 -66 -21 -121.5t-58.5 -96.5t-89.5 -64t-113 -23q-44 0 -85 14t-73.5 42t-52 70.5t-19.5 99.5q0 62 21 116t58.5 94.5t90.5 64t117 23.5q44 0 85 -13.5t72 -40.5t49.5 -68.5t18.5 -96.5zM269 36q44 0 83.5 19t69 52t47 77.5t17.5 96.5q0 83 -47.5 131
t-126.5 48q-49 0 -89 -21.5t-68.5 -56.5t-44.5 -79t-16 -89q0 -39 12.5 -72t36 -56.5t55.5 -36.5t71 -13zM332 700h54l73 -138h-50l-61 78l-86 -78h-56z" />
    <glyph glyph-name="otilde" unicode="&#xf5;" horiz-adv-x="592" 
d="M546 291q0 -66 -21 -121.5t-58.5 -96.5t-89.5 -64t-113 -23q-44 0 -85 14t-73.5 42t-52 70.5t-19.5 99.5q0 62 21 116t58.5 94.5t90.5 64t117 23.5q44 0 85 -13.5t72 -40.5t49.5 -68.5t18.5 -96.5zM269 36q44 0 83.5 19t69 52t47 77.5t17.5 96.5q0 83 -47.5 131
t-126.5 48q-49 0 -89 -21.5t-68.5 -56.5t-44.5 -79t-16 -89q0 -39 12.5 -72t36 -56.5t55.5 -36.5t71 -13zM271 634q-17 0 -27.5 -11t-10.5 -27q0 -6 0.5 -9.5t1.5 -6.5l-51 -10q-2 5 -3 11.5t-1 15.5q0 35 22.5 61t70.5 26q30 0 48.5 -10.5t32 -23.5t26 -23.5t32.5 -10.5
q17 0 27 10.5t10 26.5q0 5 -0.5 9t-1.5 8l51 10q2 -7 3 -15t1 -16q0 -41 -24.5 -62t-63.5 -21q-33 0 -52 10.5t-32 23.5t-25.5 23.5t-33.5 10.5z" />
    <glyph glyph-name="odieresis" unicode="&#xf6;" horiz-adv-x="592" 
d="M546 291q0 -66 -21 -121.5t-58.5 -96.5t-89.5 -64t-113 -23q-44 0 -85 14t-73.5 42t-52 70.5t-19.5 99.5q0 62 21 116t58.5 94.5t90.5 64t117 23.5q44 0 85 -13.5t72 -40.5t49.5 -68.5t18.5 -96.5zM269 36q44 0 83.5 19t69 52t47 77.5t17.5 96.5q0 83 -47.5 131
t-126.5 48q-49 0 -89 -21.5t-68.5 -56.5t-44.5 -79t-16 -89q0 -39 12.5 -72t36 -56.5t55.5 -36.5t71 -13zM389 670h80l-15 -76h-80zM241 670h80l-15 -76h-80z" />
    <glyph glyph-name="divide" unicode="&#xf7;" horiz-adv-x="487" 
d="M232 472h80l-16 -82h-80zM157 82h80l-16 -82h-80zM37 261h391l-9 -46h-391z" />
    <glyph glyph-name="oslash" unicode="&#xf8;" horiz-adv-x="592" 
d="M546 291q0 -66 -21 -121.5t-58.5 -96.5t-89.5 -64t-113 -23q-63 0 -119 28l-37 -48l-43 33l36 47q-30 28 -48.5 69t-18.5 97q0 62 21 116t58.5 94.5t90.5 64t117 23.5q65 0 117 -28l39 50l43 -33l-37 -48q29 -27 46 -66.5t17 -93.5zM94 214q0 -75 42 -123l268 347
q-41 22 -92 22q-49 0 -89 -21.5t-68.5 -56.5t-44.5 -79t-16 -89zM269 36q44 0 83.5 19t69 52t47 77.5t17.5 96.5q0 76 -40 122l-267 -346q37 -21 90 -21z" />
    <glyph glyph-name="ugrave" unicode="&#xf9;" horiz-adv-x="556" 
d="M115 496h60l-61 -314q-3 -16 -3.5 -24t-0.5 -17q0 -47 28.5 -76t81.5 -29q29 0 58.5 13.5t55 39.5t45 63t28.5 84l51 260h60l-96 -496h-60l15 77q-27 -44 -72.5 -67.5t-99.5 -23.5q-70 0 -112.5 39.5t-42.5 109.5q0 11 1 21.5t3 24.5zM366 562h-52l-72 138h82z" />
    <glyph glyph-name="uacute" unicode="&#xfa;" horiz-adv-x="556" 
d="M115 496h60l-61 -314q-3 -16 -3.5 -24t-0.5 -17q0 -47 28.5 -76t81.5 -29q29 0 58.5 13.5t55 39.5t45 63t28.5 84l51 260h60l-96 -496h-60l15 77q-27 -44 -72.5 -67.5t-99.5 -23.5q-70 0 -112.5 39.5t-42.5 109.5q0 11 1 21.5t3 24.5zM373 700h89l-124 -138h-52z" />
    <glyph glyph-name="ucircumflex" unicode="&#xfb;" horiz-adv-x="556" 
d="M115 496h60l-61 -314q-3 -16 -3.5 -24t-0.5 -17q0 -47 28.5 -76t81.5 -29q29 0 58.5 13.5t55 39.5t45 63t28.5 84l51 260h60l-96 -496h-60l15 77q-27 -44 -72.5 -67.5t-99.5 -23.5q-70 0 -112.5 39.5t-42.5 109.5q0 11 1 21.5t3 24.5zM329 700h54l73 -138h-50l-61 78
l-86 -78h-56z" />
    <glyph glyph-name="udieresis" unicode="&#xfc;" horiz-adv-x="556" 
d="M115 496h60l-61 -314q-3 -16 -3.5 -24t-0.5 -17q0 -47 28.5 -76t81.5 -29q29 0 58.5 13.5t55 39.5t45 63t28.5 84l51 260h60l-96 -496h-60l15 77q-27 -44 -72.5 -67.5t-99.5 -23.5q-70 0 -112.5 39.5t-42.5 109.5q0 11 1 21.5t3 24.5zM381 670h80l-15 -76h-80zM233 670
h80l-15 -76h-80z" />
    <glyph glyph-name="yacute" unicode="&#xfd;" horiz-adv-x="477" 
d="M-22 -149q18 -8 37 -8q24 0 39.5 11.5t32.5 41.5l65 111l-105 489h60l88 -418l245 418h68l-368 -617q-16 -27 -30.5 -44.5t-29.5 -27.5t-32.5 -14t-40.5 -4q-11 0 -24 2t-24 7zM327 700h89l-124 -138h-52z" />
    <glyph glyph-name="thorn" unicode="&#xfe;" horiz-adv-x="594" 
d="M155 700h60l-53 -279q12 19 30.5 35.5t42 28.5t50.5 18.5t56 6.5q43 0 80.5 -15t65 -44t43 -71.5t15.5 -96.5q0 -56 -19.5 -109t-56 -95t-89 -67.5t-118.5 -25.5q-31 0 -58 8.5t-48.5 22t-36.5 31.5t-23 37l-56 -289h-60zM327 460q-41 0 -79.5 -20t-67.5 -54.5t-46.5 -81
t-17.5 -100.5q0 -76 44 -122t117 -46q46 0 84 21t65.5 55.5t43 79.5t15.5 93q0 87 -43.5 131t-114.5 44z" />
    <glyph glyph-name="ydieresis" unicode="&#xff;" horiz-adv-x="477" 
d="M-22 -149q18 -8 37 -8q24 0 39.5 11.5t32.5 41.5l65 111l-105 489h60l88 -418l245 418h68l-368 -617q-16 -27 -30.5 -44.5t-29.5 -27.5t-32.5 -14t-40.5 -4q-11 0 -24 2t-24 7zM341 670h80l-15 -76h-80zM193 670h80l-15 -76h-80z" />
    <glyph glyph-name="Amacron" unicode="&#x100;" horiz-adv-x="636" 
d="M363 700h67l141 -700h-60l-43 217h-326l-128 -217h-66zM393 596q-4 19 -5 28.5t-2 13.5q-2 -5 -7 -14t-16 -28l-193 -329h288zM325 866h206l-11 -54h-206z" />
    <glyph glyph-name="amacron" unicode="&#x101;" horiz-adv-x="596" 
d="M558 496l-97 -496h-60l16 81q-33 -51 -76.5 -73t-97.5 -22q-49 0 -87.5 17.5t-65 48.5t-40.5 73t-14 91q0 63 20.5 116.5t57 93t86.5 62t110 22.5t104.5 -27.5t64.5 -81.5l19 95h60zM250 36q46 0 84.5 20.5t66 56t42.5 82t15 98.5q0 76 -39 121.5t-111 45.5
q-47 0 -86 -19.5t-67 -52.5t-43.5 -77.5t-15.5 -95.5q0 -38 10.5 -71t30.5 -57t48.5 -37.5t64.5 -13.5zM234 662h206l-11 -54h-206z" />
    <glyph glyph-name="Abreve" unicode="&#x102;" horiz-adv-x="636" 
d="M363 700h67l141 -700h-60l-43 217h-326l-128 -217h-66zM393 596q-4 19 -5 28.5t-2 13.5q-2 -5 -7 -14t-16 -28l-193 -329h288zM519 873q-8 -53 -37 -76t-76 -23q-39 0 -61 24.5t-22 55.5q0 11 2 19h57q-1 -5 -1 -7v-4q0 -34 32 -34q20 0 32.5 12.5t16.5 32.5h57z" />
    <glyph glyph-name="abreve" unicode="&#x103;" horiz-adv-x="596" 
d="M558 496l-97 -496h-60l16 81q-33 -51 -76.5 -73t-97.5 -22q-49 0 -87.5 17.5t-65 48.5t-40.5 73t-14 91q0 63 20.5 116.5t57 93t86.5 62t110 22.5t104.5 -27.5t64.5 -81.5l19 95h60zM250 36q46 0 84.5 20.5t66 56t42.5 82t15 98.5q0 76 -39 121.5t-111 45.5
q-47 0 -86 -19.5t-67 -52.5t-43.5 -77.5t-15.5 -95.5q0 -38 10.5 -71t30.5 -57t48.5 -37.5t64.5 -13.5zM436 669q-8 -53 -37 -76t-76 -23q-39 0 -61 24.5t-22 55.5q0 11 2 19h57q-1 -5 -1 -7v-4q0 -34 32 -34q20 0 32.5 12.5t16.5 32.5h57z" />
    <glyph glyph-name="Aogonek" unicode="&#x104;" horiz-adv-x="636" 
d="M420 -118q0 45 26.5 74.5t63.5 46.5l-42 214h-326l-128 -217h-66l415 700h67l141 -700q-14 -6 -30 -15.5t-29.5 -21.5t-22.5 -26t-9 -30q0 -21 13.5 -32t33.5 -11q5 0 9 0.5t9 1.5l-3 -58q-10 -3 -19 -4.5t-20 -1.5q-35 0 -59 19t-24 61zM393 596q-4 19 -5 28.5t-2 13.5
q-2 -5 -7 -14t-16 -28l-193 -329h288z" />
    <glyph glyph-name="aogonek" unicode="&#x105;" horiz-adv-x="596" 
d="M310 -118q0 45 27 75t65 47l15 77q-33 -51 -76.5 -73t-97.5 -22q-49 0 -87.5 17.5t-65 48.5t-40.5 73t-14 91q0 63 20.5 116.5t57 93t86.5 62t110 22.5t104.5 -27.5t64.5 -81.5l19 95h60l-97 -496q-14 -6 -30 -15.5t-29.5 -21.5t-22.5 -26t-9 -30q0 -21 13.5 -32
t33.5 -11q5 0 9 0.5t9 1.5l-3 -58q-10 -3 -19 -4.5t-20 -1.5q-35 0 -59 19t-24 61zM250 36q46 0 84.5 20.5t66 56t42.5 82t15 98.5q0 76 -39 121.5t-111 45.5q-47 0 -86 -19.5t-67 -52.5t-43.5 -77.5t-15.5 -95.5q0 -38 10.5 -71t30.5 -57t48.5 -37.5t64.5 -13.5z" />
    <glyph glyph-name="Cacute" unicode="&#x106;" horiz-adv-x="736" 
d="M649 170q-54 -88 -127.5 -136t-178.5 -48q-68 0 -121 23t-89 64.5t-55 98t-19 124.5q0 80 28.5 155.5t81 134t126.5 93.5t164 35q99 0 164 -49.5t92 -129.5l-48 -29q-33 86 -88.5 121t-132.5 35q-72 0 -132 -31.5t-103.5 -82.5t-67.5 -116.5t-24 -133.5q0 -57 16.5 -105
t47 -82.5t73 -53.5t93.5 -19q80 0 144.5 41.5t113.5 119.5zM516 904h89l-124 -138h-52z" />
    <glyph glyph-name="cacute" unicode="&#x107;" horiz-adv-x="553" 
d="M495 132q-42 -75 -99.5 -110.5t-137.5 -35.5q-48 0 -88.5 16t-70 46t-45.5 73t-16 97t19 106t56 93.5t91 67t124 25.5q72 0 123.5 -36.5t74.5 -99.5l-46 -26q-24 58 -65 84t-98 26q-49 0 -88.5 -20t-68 -53t-44 -76.5t-15.5 -89.5q0 -44 12.5 -78t34.5 -57t51 -34.5
t62 -11.5q69 0 114 33.5t80 90.5zM381 700h89l-124 -138h-52z" />
    <glyph glyph-name="Ccircumflex" unicode="&#x108;" horiz-adv-x="736" 
d="M649 170q-54 -88 -127.5 -136t-178.5 -48q-68 0 -121 23t-89 64.5t-55 98t-19 124.5q0 80 28.5 155.5t81 134t126.5 93.5t164 35q99 0 164 -49.5t92 -129.5l-48 -29q-33 86 -88.5 121t-132.5 35q-72 0 -132 -31.5t-103.5 -82.5t-67.5 -116.5t-24 -133.5q0 -57 16.5 -105
t47 -82.5t73 -53.5t93.5 -19q80 0 144.5 41.5t113.5 119.5zM459 904h54l73 -138h-50l-61 78l-86 -78h-56z" />
    <glyph glyph-name="ccircumflex" unicode="&#x109;" horiz-adv-x="553" 
d="M495 132q-42 -75 -99.5 -110.5t-137.5 -35.5q-48 0 -88.5 16t-70 46t-45.5 73t-16 97t19 106t56 93.5t91 67t124 25.5q72 0 123.5 -36.5t74.5 -99.5l-46 -26q-24 58 -65 84t-98 26q-49 0 -88.5 -20t-68 -53t-44 -76.5t-15.5 -89.5q0 -44 12.5 -78t34.5 -57t51 -34.5
t62 -11.5q69 0 114 33.5t80 90.5zM325 700h54l73 -138h-50l-61 78l-86 -78h-56z" />
    <glyph glyph-name="Cdotaccent" unicode="&#x10a;" horiz-adv-x="736" 
d="M649 170q-54 -88 -127.5 -136t-178.5 -48q-68 0 -121 23t-89 64.5t-55 98t-19 124.5q0 80 28.5 155.5t81 134t126.5 93.5t164 35q99 0 164 -49.5t92 -129.5l-48 -29q-33 86 -88.5 121t-132.5 35q-72 0 -132 -31.5t-103.5 -82.5t-67.5 -116.5t-24 -133.5q0 -57 16.5 -105
t47 -82.5t73 -53.5t93.5 -19q80 0 144.5 41.5t113.5 119.5zM441 874h76l-16 -80h-76z" />
    <glyph glyph-name="cdotaccent" unicode="&#x10b;" horiz-adv-x="553" 
d="M495 132q-42 -75 -99.5 -110.5t-137.5 -35.5q-48 0 -88.5 16t-70 46t-45.5 73t-16 97t19 106t56 93.5t91 67t124 25.5q72 0 123.5 -36.5t74.5 -99.5l-46 -26q-24 58 -65 84t-98 26q-49 0 -88.5 -20t-68 -53t-44 -76.5t-15.5 -89.5q0 -44 12.5 -78t34.5 -57t51 -34.5
t62 -11.5q69 0 114 33.5t80 90.5zM314 670h76l-16 -80h-76z" />
    <glyph glyph-name="Ccaron" unicode="&#x10c;" horiz-adv-x="736" 
d="M649 170q-54 -88 -127.5 -136t-178.5 -48q-68 0 -121 23t-89 64.5t-55 98t-19 124.5q0 80 28.5 155.5t81 134t126.5 93.5t164 35q99 0 164 -49.5t92 -129.5l-48 -29q-33 86 -88.5 121t-132.5 35q-72 0 -132 -31.5t-103.5 -82.5t-67.5 -116.5t-24 -133.5q0 -57 16.5 -105
t47 -82.5t73 -53.5t93.5 -19q80 0 144.5 41.5t113.5 119.5zM487 766h-54l-73 138h50l61 -78l86 78h56z" />
    <glyph glyph-name="ccaron" unicode="&#x10d;" horiz-adv-x="553" 
d="M495 132q-42 -75 -99.5 -110.5t-137.5 -35.5q-48 0 -88.5 16t-70 46t-45.5 73t-16 97t19 106t56 93.5t91 67t124 25.5q72 0 123.5 -36.5t74.5 -99.5l-46 -26q-24 58 -65 84t-98 26q-49 0 -88.5 -20t-68 -53t-44 -76.5t-15.5 -89.5q0 -44 12.5 -78t34.5 -57t51 -34.5
t62 -11.5q69 0 114 33.5t80 90.5zM355 562h-54l-73 138h50l61 -78l86 78h56z" />
    <glyph glyph-name="Dcaron" unicode="&#x10e;" horiz-adv-x="670" 
d="M166 700h180q61 0 112.5 -18t89 -54t59 -90t21.5 -126q0 -89 -28.5 -164t-81.5 -130.5t-129.5 -86.5t-172.5 -31h-187zM214 52q86 1 152 29t111 76t68 113t23 142q0 64 -18.5 108.5t-51 73t-77.5 41.5t-98 13h-108l-115 -596h114zM355 766h-54l-73 138h50l61 -78l86 78
h56z" />
    <glyph glyph-name="dcaron" unicode="&#x10f;" horiz-adv-x="675" 
d="M655 538l50 86h-32l14 76h74l-14 -76l-77 -98zM465 0h-60l16 82q-12 -21 -30.5 -38.5t-41 -30t-48.5 -20t-53 -7.5q-47 0 -86.5 16t-68 46t-45 73.5t-16.5 97.5q0 66 20 119.5t56 92t85.5 59t108.5 20.5q65 0 111 -29.5t70 -79.5l58 299h60zM251 36q46 0 85.5 21
t67.5 56.5t44 81t16 94.5q0 39 -13 70.5t-35.5 54t-53 34.5t-64.5 12q-44 0 -81 -18t-64 -50.5t-42.5 -76.5t-15.5 -96q0 -45 11.5 -79t32.5 -57.5t49.5 -35t62.5 -11.5z" />
    <glyph glyph-name="Dcroat" unicode="&#x110;" horiz-adv-x="696" 
d="M56 376h72l64 324h180q61 0 112.5 -18t89 -54t59 -90t21.5 -126q0 -89 -28.5 -164t-81.5 -130.5t-129.5 -86.5t-172.5 -31h-187l63 324h-73zM240 52q86 1 152 29t111 76t68 113t23 142q0 64 -18.5 108.5t-51 73t-77.5 41.5t-98 13h-108l-53 -272h154l-11 -52h-153
l-52 -272h114z" />
    <glyph glyph-name="dcroat" unicode="&#x111;" horiz-adv-x="586" 
d="M587 628h60l-9 -48h-61l-112 -580h-60l16 82q-12 -21 -30.5 -38.5t-41 -30t-48.5 -20t-53 -7.5q-47 0 -86.5 16t-68 46t-45 73.5t-16.5 97.5q0 66 20 119.5t56 92t85.5 59t108.5 20.5q65 0 111 -29.5t70 -79.5l34 179h-162l9 48h163l14 72h60zM251 36q46 0 85.5 21
t67.5 56.5t44 81t16 94.5q0 39 -13 70.5t-35.5 54t-53 34.5t-64.5 12q-44 0 -81 -18t-64 -50.5t-42.5 -76.5t-15.5 -96q0 -45 11.5 -79t32.5 -57.5t49.5 -35t62.5 -11.5z" />
    <glyph glyph-name="Emacron" unicode="&#x112;" horiz-adv-x="573" 
d="M166 700h410l-11 -52h-350l-50 -260h322l-10 -52h-322l-55 -284h353l-11 -52h-413zM299 866h206l-11 -54h-206z" />
    <glyph glyph-name="emacron" unicode="&#x113;" horiz-adv-x="569" 
d="M92 243q-2 -8 -2 -16.5v-16.5q0 -35 12.5 -66.5t35 -55.5t53.5 -38t69 -14q34 0 61.5 9t50 25.5t41.5 40.5t36 54l43 -28q-42 -78 -100.5 -114.5t-138.5 -36.5q-44 0 -84 14t-70.5 43.5t-48.5 74.5t-18 108q0 59 21.5 111t59.5 90.5t89.5 60.5t112.5 22q51 0 91 -15.5
t67 -42.5t41 -63.5t14 -78.5q0 -12 -1.5 -23t-3.5 -25l-4 -19h-427zM311 460q-36 0 -69.5 -11.5t-60.5 -33t-47 -52.5t-29 -70h363q2 11 2 16.5v13.5q0 30 -12 55t-33 43t-50 28.5t-64 10.5zM239 662h206l-11 -54h-206z" />
    <glyph glyph-name="Ebreve" unicode="&#x114;" horiz-adv-x="573" 
d="M166 700h410l-11 -52h-350l-50 -260h322l-10 -52h-322l-55 -284h353l-11 -52h-413zM500 873q-8 -53 -37 -76t-76 -23q-39 0 -61 24.5t-22 55.5q0 11 2 19h57q-1 -5 -1 -7v-4q0 -34 32 -34q20 0 32.5 12.5t16.5 32.5h57z" />
    <glyph glyph-name="ebreve" unicode="&#x115;" horiz-adv-x="569" 
d="M92 243q-2 -8 -2 -16.5v-16.5q0 -35 12.5 -66.5t35 -55.5t53.5 -38t69 -14q34 0 61.5 9t50 25.5t41.5 40.5t36 54l43 -28q-42 -78 -100.5 -114.5t-138.5 -36.5q-44 0 -84 14t-70.5 43.5t-48.5 74.5t-18 108q0 59 21.5 111t59.5 90.5t89.5 60.5t112.5 22q51 0 91 -15.5
t67 -42.5t41 -63.5t14 -78.5q0 -12 -1.5 -23t-3.5 -25l-4 -19h-427zM311 460q-36 0 -69.5 -11.5t-60.5 -33t-47 -52.5t-29 -70h363q2 11 2 16.5v13.5q0 30 -12 55t-33 43t-50 28.5t-64 10.5zM437 669q-8 -53 -37 -76t-76 -23q-39 0 -61 24.5t-22 55.5q0 11 2 19h57
q-1 -5 -1 -7v-4q0 -34 32 -34q20 0 32.5 12.5t16.5 32.5h57z" />
    <glyph glyph-name="Edotaccent" unicode="&#x116;" horiz-adv-x="573" 
d="M166 700h410l-11 -52h-350l-50 -260h322l-10 -52h-322l-55 -284h353l-11 -52h-413zM366 874h76l-16 -80h-76z" />
    <glyph glyph-name="edotaccent" unicode="&#x117;" horiz-adv-x="569" 
d="M92 243q-2 -8 -2 -16.5v-16.5q0 -35 12.5 -66.5t35 -55.5t53.5 -38t69 -14q34 0 61.5 9t50 25.5t41.5 40.5t36 54l43 -28q-42 -78 -100.5 -114.5t-138.5 -36.5q-44 0 -84 14t-70.5 43.5t-48.5 74.5t-18 108q0 59 21.5 111t59.5 90.5t89.5 60.5t112.5 22q51 0 91 -15.5
t67 -42.5t41 -63.5t14 -78.5q0 -12 -1.5 -23t-3.5 -25l-4 -19h-427zM311 460q-36 0 -69.5 -11.5t-60.5 -33t-47 -52.5t-29 -70h363q2 11 2 16.5v13.5q0 30 -12 55t-33 43t-50 28.5t-64 10.5zM305 670h76l-16 -80h-76z" />
    <glyph glyph-name="Eogonek" unicode="&#x118;" horiz-adv-x="573" 
d="M166 700h410l-11 -52h-350l-50 -260h322l-10 -52h-322l-55 -284h353l-11 -52q-14 -6 -30 -15.5t-29.5 -21.5t-22.5 -26t-9 -30q0 -21 13.5 -32t33.5 -11q5 0 9 0.5t9 1.5l-3 -58q-10 -3 -19 -4.5t-20 -1.5q-35 0 -59 19t-24 61t24 71.5t59 46.5h-345z" />
    <glyph glyph-name="eogonek" unicode="&#x119;" horiz-adv-x="569" 
d="M192 -118q0 35 16.5 61t42.5 43q-44 0 -83.5 14t-69.5 43.5t-48 74.5t-18 108q0 59 21.5 111t59.5 90.5t89.5 60.5t112.5 22q51 0 91 -15.5t67 -42.5t41 -63.5t14 -78.5q0 -12 -1.5 -23t-3.5 -25l-4 -19h-427q-2 -8 -2 -16.5v-16.5q0 -35 12.5 -66.5t35 -55.5t53.5 -38
t69 -14q34 0 61.5 9t50 25.5t41.5 40.5t36 54l43 -28q-30 -56 -67 -88.5t-84 -49.5q-14 -5 -30 -14.5t-29 -21.5t-21.5 -26.5t-8.5 -29.5q0 -21 13.5 -32t33.5 -11q5 0 9 0.5t9 1.5l-3 -58q-10 -3 -19 -4.5t-20 -1.5q-35 0 -59 19t-24 61zM311 460q-36 0 -69.5 -11.5
t-60.5 -33t-47 -52.5t-29 -70h363q2 11 2 16.5v13.5q0 30 -12 55t-33 43t-50 28.5t-64 10.5z" />
    <glyph glyph-name="Ecaron" unicode="&#x11a;" horiz-adv-x="573" 
d="M166 700h410l-11 -52h-350l-50 -260h322l-10 -52h-322l-55 -284h353l-11 -52h-413zM404 766h-54l-73 138h50l61 -78l86 78h56z" />
    <glyph glyph-name="ecaron" unicode="&#x11b;" horiz-adv-x="569" 
d="M92 243q-2 -8 -2 -16.5v-16.5q0 -35 12.5 -66.5t35 -55.5t53.5 -38t69 -14q34 0 61.5 9t50 25.5t41.5 40.5t36 54l43 -28q-42 -78 -100.5 -114.5t-138.5 -36.5q-44 0 -84 14t-70.5 43.5t-48.5 74.5t-18 108q0 59 21.5 111t59.5 90.5t89.5 60.5t112.5 22q51 0 91 -15.5
t67 -42.5t41 -63.5t14 -78.5q0 -12 -1.5 -23t-3.5 -25l-4 -19h-427zM311 460q-36 0 -69.5 -11.5t-60.5 -33t-47 -52.5t-29 -70h363q2 11 2 16.5v13.5q0 30 -12 55t-33 43t-50 28.5t-64 10.5zM350 562h-54l-73 138h50l61 -78l86 78h56z" />
    <glyph glyph-name="Gcircumflex" unicode="&#x11c;" horiz-adv-x="751" 
d="M586 124q-49 -71 -109.5 -104.5t-147.5 -33.5q-63 0 -113 23t-85 63.5t-53.5 94.5t-18.5 117q0 92 29.5 171t83 136.5t126.5 90t160 32.5q103 0 167.5 -46t95.5 -123l-47 -31q-31 78 -89.5 113t-136.5 35q-71 0 -131 -30t-104 -81.5t-69 -120t-25 -144.5q0 -50 15.5 -95
t44.5 -79t70 -54t91 -20q53 0 99.5 23t83.5 59.5t62 80.5t35 86h-258l10 52h320l-66 -339h-40v124zM461 904h54l73 -138h-50l-61 78l-86 -78h-56z" />
    <glyph glyph-name="gcircumflex" unicode="&#x11d;" horiz-adv-x="577" 
d="M80 -39q-10 -17 -10 -42q0 -39 38 -63t96 -24q44 0 76 15t55 42t37.5 63.5t22.5 79.5l11 58q-27 -42 -70.5 -62t-99.5 -20q-41 0 -78.5 14t-66 41.5t-45.5 68.5t-17 96t17.5 106t51 90t83 62.5t114.5 23.5q63 0 110.5 -26t64.5 -68l16 80h60l-92 -471
q-24 -120 -86 -181.5t-176 -61.5q-44 0 -77.5 11t-56.5 29t-34.5 42.5t-11.5 51.5q0 15 4.5 31t12.5 29zM291 460q-46 0 -83 -19.5t-63.5 -52t-41 -74.5t-14.5 -87q0 -41 12 -72.5t33.5 -53t50.5 -32.5t63 -11q47 0 85 20.5t64.5 53.5t40.5 75t14 86q0 38 -11.5 69t-33 52.5
t-51 33.5t-65.5 12zM318 700h54l73 -138h-50l-61 78l-86 -78h-56z" />
    <glyph glyph-name="Gbreve" unicode="&#x11e;" horiz-adv-x="751" 
d="M586 124q-49 -71 -109.5 -104.5t-147.5 -33.5q-63 0 -113 23t-85 63.5t-53.5 94.5t-18.5 117q0 92 29.5 171t83 136.5t126.5 90t160 32.5q103 0 167.5 -46t95.5 -123l-47 -31q-31 78 -89.5 113t-136.5 35q-71 0 -131 -30t-104 -81.5t-69 -120t-25 -144.5q0 -50 15.5 -95
t44.5 -79t70 -54t91 -20q53 0 99.5 23t83.5 59.5t62 80.5t35 86h-258l10 52h320l-66 -339h-40v124zM573 873q-8 -53 -37 -76t-76 -23q-39 0 -61 24.5t-22 55.5q0 11 2 19h57q-1 -5 -1 -7v-4q0 -34 32 -34q20 0 32.5 12.5t16.5 32.5h57z" />
    <glyph glyph-name="gbreve" unicode="&#x11f;" horiz-adv-x="577" 
d="M80 -39q-10 -17 -10 -42q0 -39 38 -63t96 -24q44 0 76 15t55 42t37.5 63.5t22.5 79.5l11 58q-27 -42 -70.5 -62t-99.5 -20q-41 0 -78.5 14t-66 41.5t-45.5 68.5t-17 96t17.5 106t51 90t83 62.5t114.5 23.5q63 0 110.5 -26t64.5 -68l16 80h60l-92 -471
q-24 -120 -86 -181.5t-176 -61.5q-44 0 -77.5 11t-56.5 29t-34.5 42.5t-11.5 51.5q0 15 4.5 31t12.5 29zM291 460q-46 0 -83 -19.5t-63.5 -52t-41 -74.5t-14.5 -87q0 -41 12 -72.5t33.5 -53t50.5 -32.5t63 -11q47 0 85 20.5t64.5 53.5t40.5 75t14 86q0 38 -11.5 69t-33 52.5
t-51 33.5t-65.5 12zM430 669q-8 -53 -37 -76t-76 -23q-39 0 -61 24.5t-22 55.5q0 11 2 19h57q-1 -5 -1 -7v-4q0 -34 32 -34q20 0 32.5 12.5t16.5 32.5h57z" />
    <glyph glyph-name="Gdotaccent" unicode="&#x120;" horiz-adv-x="751" 
d="M586 124q-49 -71 -109.5 -104.5t-147.5 -33.5q-63 0 -113 23t-85 63.5t-53.5 94.5t-18.5 117q0 92 29.5 171t83 136.5t126.5 90t160 32.5q103 0 167.5 -46t95.5 -123l-47 -31q-31 78 -89.5 113t-136.5 35q-71 0 -131 -30t-104 -81.5t-69 -120t-25 -144.5q0 -50 15.5 -95
t44.5 -79t70 -54t91 -20q53 0 99.5 23t83.5 59.5t62 80.5t35 86h-258l10 52h320l-66 -339h-40v124zM439 874h76l-16 -80h-76z" />
    <glyph glyph-name="gdotaccent" unicode="&#x121;" horiz-adv-x="577" 
d="M80 -39q-10 -17 -10 -42q0 -39 38 -63t96 -24q44 0 76 15t55 42t37.5 63.5t22.5 79.5l11 58q-27 -42 -70.5 -62t-99.5 -20q-41 0 -78.5 14t-66 41.5t-45.5 68.5t-17 96t17.5 106t51 90t83 62.5t114.5 23.5q63 0 110.5 -26t64.5 -68l16 80h60l-92 -471
q-24 -120 -86 -181.5t-176 -61.5q-44 0 -77.5 11t-56.5 29t-34.5 42.5t-11.5 51.5q0 15 4.5 31t12.5 29zM291 460q-46 0 -83 -19.5t-63.5 -52t-41 -74.5t-14.5 -87q0 -41 12 -72.5t33.5 -53t50.5 -32.5t63 -11q47 0 85 20.5t64.5 53.5t40.5 75t14 86q0 38 -11.5 69t-33 52.5
t-51 33.5t-65.5 12zM305 670h76l-16 -80h-76z" />
    <glyph glyph-name="uni0122" unicode="&#x122;" horiz-adv-x="751" 
d="M285 -60h80l-16 -82l-82 -115l-17 10l53 105h-34zM586 124q-49 -71 -109.5 -104.5t-147.5 -33.5q-63 0 -113 23t-85 63.5t-53.5 94.5t-18.5 117q0 92 29.5 171t83 136.5t126.5 90t160 32.5q103 0 167.5 -46t95.5 -123l-47 -31q-31 78 -89.5 113t-136.5 35q-71 0 -131 -30
t-104 -81.5t-69 -120t-25 -144.5q0 -50 15.5 -95t44.5 -79t70 -54t91 -20q53 0 99.5 23t83.5 59.5t62 80.5t35 86h-258l10 52h320l-66 -339h-40v124z" />
    <glyph glyph-name="uni0123" unicode="&#x123;" horiz-adv-x="577" 
d="M415 746l-69 -101h28l-16 -82h-80l16 82l105 115zM80 -39q-10 -17 -10 -42q0 -39 38 -63t96 -24q44 0 76 15t55 42t37.5 63.5t22.5 79.5l11 58q-27 -42 -70.5 -62t-99.5 -20q-41 0 -78.5 14t-66 41.5t-45.5 68.5t-17 96t17.5 106t51 90t83 62.5t114.5 23.5
q63 0 110.5 -26t64.5 -68l16 80h60l-92 -471q-24 -120 -86 -181.5t-176 -61.5q-44 0 -77.5 11t-56.5 29t-34.5 42.5t-11.5 51.5q0 15 4.5 31t12.5 29zM291 460q-46 0 -83 -19.5t-63.5 -52t-41 -74.5t-14.5 -87q0 -41 12 -72.5t33.5 -53t50.5 -32.5t63 -11q47 0 85 20.5
t64.5 53.5t40.5 75t14 86q0 38 -11.5 69t-33 52.5t-51 33.5t-65.5 12z" />
    <glyph glyph-name="Hcircumflex" unicode="&#x124;" horiz-adv-x="676" 
d="M170 700h60l-62 -317h371l62 317h60l-137 -700h-60l65 331h-371l-65 -331h-60zM428 904h54l73 -138h-50l-61 78l-86 -78h-56z" />
    <glyph glyph-name="hcircumflex" unicode="&#x125;" horiz-adv-x="565" 
d="M426 0h-60l64 325q2 8 3 18t1 18q0 48 -27 73.5t-78 25.5q-31 0 -62 -13.5t-58 -38t-46.5 -58.5t-27.5 -75l-54 -275h-60l137 700h60l-56 -283q34 42 82 67.5t104 25.5q65 0 105.5 -32.5t40.5 -103.5q0 -13 -1 -25t-5 -32zM287 904h54l73 -138h-50l-61 78l-86 -78h-56z
" />
    <glyph glyph-name="Hbar" unicode="&#x126;" horiz-adv-x="720" 
d="M61 557h103l28 143h60l-28 -143h371l28 143h60l-28 -143h103l-10 -52h-103l-99 -505h-60l65 331h-371l-65 -331h-60l99 505h-103zM561 383l24 122h-371l-24 -122h371z" />
    <glyph glyph-name="hbar" unicode="&#x127;" horiz-adv-x="563" 
d="M427 0h-60l64 325q2 8 3 18t1 18q0 48 -27 73.5t-78 25.5q-31 0 -62 -13.5t-58 -38t-46.5 -58.5t-27.5 -75l-54 -275h-60l113 580h-69l10 48h69l14 72h60l-14 -72h156l-10 -48h-156l-32 -163q34 42 82 67.5t104 25.5q65 0 105.5 -32.5t40.5 -103.5q0 -13 -1 -25t-5 -32z
" />
    <glyph glyph-name="Itilde" unicode="&#x128;" horiz-adv-x="236" 
d="M166 700h60l-137 -700h-60zM152 838q-17 0 -27.5 -11t-10.5 -27q0 -6 0.5 -9.5t1.5 -6.5l-51 -10q-2 5 -3 11.5t-1 15.5q0 35 22.5 61t70.5 26q30 0 48.5 -10.5t32 -23.5t26 -23.5t32.5 -10.5q17 0 27 10.5t10 26.5q0 5 -0.5 9t-1.5 8l51 10q2 -7 3 -15t1 -16
q0 -41 -24.5 -62t-63.5 -21q-33 0 -52 10.5t-32 23.5t-25.5 23.5t-33.5 10.5z" />
    <glyph glyph-name="itilde" unicode="&#x129;" horiz-adv-x="210" 
d="M113 496h60l-97 -496h-60zM94 634q-17 0 -27.5 -11t-10.5 -27q0 -6 0.5 -9.5t1.5 -6.5l-51 -10q-2 5 -3 11.5t-1 15.5q0 35 22.5 61t70.5 26q30 0 48.5 -10.5t32 -23.5t26 -23.5t32.5 -10.5q17 0 27 10.5t10 26.5q0 5 -0.5 9t-1.5 8l51 10q2 -7 3 -15t1 -16
q0 -41 -24.5 -62t-63.5 -21q-33 0 -52 10.5t-32 23.5t-25.5 23.5t-33.5 10.5z" />
    <glyph glyph-name="Imacron" unicode="&#x12a;" horiz-adv-x="236" 
d="M166 700h60l-137 -700h-60zM125 866h206l-11 -54h-206z" />
    <glyph glyph-name="imacron" unicode="&#x12b;" horiz-adv-x="210" 
d="M113 496h60l-97 -496h-60zM71 662h206l-11 -54h-206z" />
    <glyph glyph-name="Ibreve" unicode="&#x12c;" horiz-adv-x="236" 
d="M166 700h60l-137 -700h-60zM323 873q-8 -53 -37 -76t-76 -23q-39 0 -61 24.5t-22 55.5q0 11 2 19h57q-1 -5 -1 -7v-4q0 -34 32 -34q20 0 32.5 12.5t16.5 32.5h57z" />
    <glyph glyph-name="ibreve" unicode="&#x12d;" horiz-adv-x="210" 
d="M113 496h60l-97 -496h-60zM274 669q-8 -53 -37 -76t-76 -23q-39 0 -61 24.5t-22 55.5q0 11 2 19h57q-1 -5 -1 -7v-4q0 -34 32 -34q20 0 32.5 12.5t16.5 32.5h57z" />
    <glyph glyph-name="Iogonek" unicode="&#x12e;" horiz-adv-x="236" 
d="M-62 -118q0 45 27 75t65 47l136 696h60l-137 -700q-14 -6 -30 -15.5t-29.5 -21.5t-22.5 -26t-9 -30q0 -21 13.5 -32t33.5 -11q5 0 9 0.5t9 1.5l-3 -58q-10 -3 -19 -4.5t-20 -1.5q-35 0 -59 19t-24 61z" />
    <glyph glyph-name="iogonek" unicode="&#x12f;" horiz-adv-x="210" 
d="M-75 -118q0 45 27 75t65 47l96 492h60l-97 -496q-14 -6 -30 -15.5t-29.5 -21.5t-22.5 -26t-9 -30q0 -21 13.5 -32t33.5 -11q5 0 9 0.5t9 1.5l-3 -58q-10 -3 -19 -4.5t-20 -1.5q-35 0 -59 19t-24 61zM139 670h76l-16 -80h-76z" />
    <glyph glyph-name="Idotaccent" unicode="&#x130;" horiz-adv-x="236" 
d="M166 700h60l-137 -700h-60zM191 874h76l-16 -80h-76z" />
    <glyph glyph-name="dotlessi" unicode="&#x131;" horiz-adv-x="210" 
d="M113 496h60l-97 -496h-60z" />
    <glyph glyph-name="IJ" unicode="&#x132;" horiz-adv-x="761" 
d="M166 700h60l-137 -700h-60zM675 195q-21 -109 -80.5 -159t-153.5 -50q-36 0 -67.5 12t-55 33t-37 49.5t-13.5 61.5q0 11 1 22.5t4 25.5l59 -6q-4 -17 -4 -36q0 -25 10 -45.5t27 -34.5t39 -22t46 -8q63 0 106 38t58 115l99 509h60z" />
    <glyph glyph-name="ij" unicode="&#x133;" horiz-adv-x="449" 
d="M113 496h60l-97 -496h-60zM139 670h76l-16 -80h-76zM133 -151q18 -8 37 -8q30 0 46 18.5t22 50.5l114 586h60l-114 -590q-5 -24 -13.5 -45.5t-24 -37t-38.5 -25t-55 -9.5q-15 0 -26.5 2t-22.5 6zM378 670h76l-16 -80h-76z" />
    <glyph glyph-name="Jcircumflex" unicode="&#x134;" horiz-adv-x="520" 
d="M434 195q-21 -109 -80.5 -159t-153.5 -50q-36 0 -67.5 12t-55 33t-37 49.5t-13.5 61.5q0 11 1 22.5t4 25.5l59 -6q-4 -17 -4 -36q0 -25 10 -45.5t27 -34.5t39 -22t46 -8q63 0 106 38t58 115l99 509h60zM459 904h54l73 -138h-50l-61 78l-86 -78h-56z" />
    <glyph glyph-name="jcircumflex" unicode="&#x135;" horiz-adv-x="211" 
d="M-105 -151q18 -8 37 -8q30 0 46 18.5t22 50.5l114 586h60l-114 -590q-5 -24 -13.5 -45.5t-24 -37t-38.5 -25t-55 -9.5q-15 0 -26.5 2t-22.5 6zM153 700h54l73 -138h-50l-61 78l-86 -78h-56z" />
    <glyph glyph-name="uni0136" unicode="&#x136;" horiz-adv-x="593" 
d="M213 -60h80l-16 -82l-82 -115l-17 10l53 105h-34zM166 700h60l-65 -339q11 10 25.5 23.5t27.5 24.5q15 13 31 27l303 264h78l-290 -259l176 -441h-68l-158 399l-144 -125l-53 -274h-60z" />
    <glyph glyph-name="uni0137" unicode="&#x137;" horiz-adv-x="482" 
d="M154 -60h80l-16 -82l-82 -115l-17 10l53 105h-34zM156 700h60l-78 -400l232 196h80l-199 -170l144 -326h-65l-124 289l-85 -74l-42 -215h-60z" />
    <glyph glyph-name="kgreenlandic" unicode="&#x138;" horiz-adv-x="482" 
d="M174 496l-45 -233l246 233h81l-215 -202l147 -294h-68l-123 250l-87 -79l-33 -171h-60l97 496h60z" />
    <glyph glyph-name="Lacute" unicode="&#x139;" horiz-adv-x="555" 
d="M166 700h60l-126 -648h353l-11 -52h-413zM271 904h89l-124 -138h-52z" />
    <glyph glyph-name="lacute" unicode="&#x13a;" horiz-adv-x="210" 
d="M153 700h60l-137 -700h-60zM259 904h89l-124 -138h-52z" />
    <glyph glyph-name="uni013B" unicode="&#x13b;" horiz-adv-x="555" 
d="M190 -60h80l-16 -82l-82 -115l-17 10l53 105h-34zM166 700h60l-126 -648h353l-11 -52h-413z" />
    <glyph glyph-name="uni013C" unicode="&#x13c;" horiz-adv-x="210" 
d="M-5 -60h80l-16 -82l-82 -115l-17 10l53 105h-34zM153 700h60l-137 -700h-60z" />
    <glyph glyph-name="Lcaron" unicode="&#x13d;" horiz-adv-x="555" 
d="M423 518l75 100h-31l16 82h80l-16 -82l-108 -115zM166 700h60l-126 -648h353l-11 -52h-413z" />
    <glyph glyph-name="lcaron" unicode="&#x13e;" horiz-adv-x="292" 
d="M263 539l51 85h-33l14 76h74l-14 -76l-77 -98zM153 700h60l-137 -700h-60z" />
    <glyph glyph-name="Ldot" unicode="&#x13f;" horiz-adv-x="555" 
d="M166 700h60l-126 -648h353l-11 -52h-413zM384 391h80l-15 -82h-80z" />
    <glyph glyph-name="ldot" unicode="&#x140;" horiz-adv-x="295" 
d="M153 700h60l-137 -700h-60zM238 392h80l-15 -82h-80z" />
    <glyph glyph-name="Lslash" unicode="&#x141;" horiz-adv-x="562" 
d="M0 239l93 53l80 408h60l-72 -370l185 106l-14 -70l-185 -105l-40 -209h353l-11 -52h-413l43 222l-94 -53z" />
    <glyph glyph-name="lslash" unicode="&#x142;" horiz-adv-x="242" 
d="M8 241l81 45l81 414h60l-74 -377l82 46l-13 -65l-82 -46l-50 -258h-60l43 221l-81 -45z" />
    <glyph glyph-name="Nacute" unicode="&#x143;" horiz-adv-x="684" 
d="M166 700h60l250 -562q5 -11 9 -22q4 -9 6.5 -18.5t4.5 -14.5l120 617h58l-137 -700h-60l-250 562q-5 11 -9 22q-4 9 -7 18t-4 15l-120 -617h-58zM476 904h89l-124 -138h-52z" />
    <glyph glyph-name="nacute" unicode="&#x144;" horiz-adv-x="558" 
d="M423 0h-60l64 330q3 18 3 35q0 47 -29.5 71t-77.5 24q-31 0 -61.5 -13.5t-56 -37.5t-44.5 -56.5t-26 -71.5l-55 -281h-60l96 496h60l-15 -77q36 49 82 70t100 21q30 0 56.5 -8t47 -25t32 -43.5t11.5 -62.5q0 -11 -1 -21t-3 -24zM379 700h89l-124 -138h-52z" />
    <glyph glyph-name="uni0145" unicode="&#x145;" horiz-adv-x="684" 
d="M236 -60h80l-16 -82l-82 -115l-17 10l53 105h-34zM166 700h60l250 -562q5 -11 9 -22q4 -9 6.5 -18.5t4.5 -14.5l120 617h58l-137 -700h-60l-250 562q-5 11 -9 22q-4 9 -7 18t-4 15l-120 -617h-58z" />
    <glyph glyph-name="uni0146" unicode="&#x146;" horiz-adv-x="558" 
d="M175 -60h80l-16 -82l-82 -115l-17 10l53 105h-34zM423 0h-60l64 330q3 18 3 35q0 47 -29.5 71t-77.5 24q-31 0 -61.5 -13.5t-56 -37.5t-44.5 -56.5t-26 -71.5l-55 -281h-60l96 496h60l-15 -77q36 49 82 70t100 21q30 0 56.5 -8t47 -25t32 -43.5t11.5 -62.5q0 -11 -1 -21
t-3 -24z" />
    <glyph glyph-name="Ncaron" unicode="&#x147;" horiz-adv-x="684" 
d="M166 700h60l250 -562q5 -11 9 -22q4 -9 6.5 -18.5t4.5 -14.5l120 617h58l-137 -700h-60l-250 562q-5 11 -9 22q-4 9 -7 18t-4 15l-120 -617h-58zM452 766h-54l-73 138h50l61 -78l86 78h56z" />
    <glyph glyph-name="ncaron" unicode="&#x148;" horiz-adv-x="558" 
d="M423 0h-60l64 330q3 18 3 35q0 47 -29.5 71t-77.5 24q-31 0 -61.5 -13.5t-56 -37.5t-44.5 -56.5t-26 -71.5l-55 -281h-60l96 496h60l-15 -77q36 49 82 70t100 21q30 0 56.5 -8t47 -25t32 -43.5t11.5 -62.5q0 -11 -1 -21t-3 -24zM360 562h-54l-73 138h50l61 -78l86 78h56z
" />
    <glyph glyph-name="napostrophe" unicode="&#x149;" horiz-adv-x="627" 
d="M88 535l81 109h-37l17 86h87l-17 -88l-115 -121zM492 0h-60l64 330q3 18 3 35q0 47 -29.5 71t-77.5 24q-31 0 -61.5 -13.5t-56 -37.5t-44.5 -56.5t-26 -71.5l-55 -281h-60l96 496h60l-15 -77q36 49 82 70t100 21q30 0 56.5 -8t47 -25t32 -43.5t11.5 -62.5q0 -11 -1 -21
t-3 -24z" />
    <glyph glyph-name="Eng" unicode="&#x14a;" horiz-adv-x="684" 
d="M166 700h66l245 -557q5 -11 9 -22q4 -9 6.5 -18.5t4.5 -14.5l119 612h58l-143 -734q-17 -89 -63 -136.5t-134 -47.5q-27 0 -44 4t-34 13l24 51q11 -6 27.5 -11t39.5 -5q51 0 80.5 33.5t43.5 98.5l7 34l-251 562l-8 22q-3 9 -6.5 18t-4.5 15l-120 -617h-58z" />
    <glyph glyph-name="eng" unicode="&#x14b;" horiz-adv-x="558" 
d="M405 -94q-5 -24 -13.5 -45.5t-24 -37t-38.5 -25t-55 -9.5q-15 0 -26.5 2t-22.5 6l15 52q18 -8 37 -8q30 0 46 18.5t22 50.5l82 420q3 18 3 35q0 47 -29.5 71t-77.5 24q-31 0 -61.5 -13.5t-56 -37.5t-44.5 -56.5t-26 -71.5l-55 -281h-60l96 496h60l-15 -77q36 49 82 70
t100 21q30 0 56.5 -8t47 -25t32 -43.5t11.5 -62.5q0 -11 -1 -21t-3 -24z" />
    <glyph glyph-name="Omacron" unicode="&#x14c;" horiz-adv-x="770" 
d="M728 404q0 -78 -24 -153t-71 -134t-118 -95t-164 -36q-64 0 -118.5 21t-94.5 61t-62.5 97.5t-22.5 129.5q0 78 26.5 153t76 134.5t120 95.5t158.5 36q67 0 121.5 -20.5t93 -60t59 -97.5t20.5 -132zM352 38q74 0 132.5 30.5t99.5 81t62.5 115.5t21.5 134q0 133 -66 198
t-178 65q-69 0 -126.5 -31.5t-98.5 -83t-63.5 -116.5t-22.5 -131q0 -62 19 -110.5t51 -82.5t75.5 -51.5t93.5 -17.5zM359 866h206l-11 -54h-206z" />
    <glyph glyph-name="omacron" unicode="&#x14d;" horiz-adv-x="592" 
d="M546 291q0 -66 -21 -121.5t-58.5 -96.5t-89.5 -64t-113 -23q-44 0 -85 14t-73.5 42t-52 70.5t-19.5 99.5q0 62 21 116t58.5 94.5t90.5 64t117 23.5q44 0 85 -13.5t72 -40.5t49.5 -68.5t18.5 -96.5zM269 36q44 0 83.5 19t69 52t47 77.5t17.5 96.5q0 83 -47.5 131
t-126.5 48q-49 0 -89 -21.5t-68.5 -56.5t-44.5 -79t-16 -89q0 -39 12.5 -72t36 -56.5t55.5 -36.5t71 -13zM247 662h206l-11 -54h-206z" />
    <glyph glyph-name="Obreve" unicode="&#x14e;" horiz-adv-x="770" 
d="M728 404q0 -78 -24 -153t-71 -134t-118 -95t-164 -36q-64 0 -118.5 21t-94.5 61t-62.5 97.5t-22.5 129.5q0 78 26.5 153t76 134.5t120 95.5t158.5 36q67 0 121.5 -20.5t93 -60t59 -97.5t20.5 -132zM352 38q74 0 132.5 30.5t99.5 81t62.5 115.5t21.5 134q0 133 -66 198
t-178 65q-69 0 -126.5 -31.5t-98.5 -83t-63.5 -116.5t-22.5 -131q0 -62 19 -110.5t51 -82.5t75.5 -51.5t93.5 -17.5zM552 873q-8 -53 -37 -76t-76 -23q-39 0 -61 24.5t-22 55.5q0 11 2 19h57q-1 -5 -1 -7v-4q0 -34 32 -34q20 0 32.5 12.5t16.5 32.5h57z" />
    <glyph glyph-name="obreve" unicode="&#x14f;" horiz-adv-x="592" 
d="M546 291q0 -66 -21 -121.5t-58.5 -96.5t-89.5 -64t-113 -23q-44 0 -85 14t-73.5 42t-52 70.5t-19.5 99.5q0 62 21 116t58.5 94.5t90.5 64t117 23.5q44 0 85 -13.5t72 -40.5t49.5 -68.5t18.5 -96.5zM269 36q44 0 83.5 19t69 52t47 77.5t17.5 96.5q0 83 -47.5 131
t-126.5 48q-49 0 -89 -21.5t-68.5 -56.5t-44.5 -79t-16 -89q0 -39 12.5 -72t36 -56.5t55.5 -36.5t71 -13zM447 669q-8 -53 -37 -76t-76 -23q-39 0 -61 24.5t-22 55.5q0 11 2 19h57q-1 -5 -1 -7v-4q0 -34 32 -34q20 0 32.5 12.5t16.5 32.5h57z" />
    <glyph glyph-name="Ohungarumlaut" unicode="&#x150;" horiz-adv-x="770" 
d="M728 404q0 -78 -24 -153t-71 -134t-118 -95t-164 -36q-64 0 -118.5 21t-94.5 61t-62.5 97.5t-22.5 129.5q0 78 26.5 153t76 134.5t120 95.5t158.5 36q67 0 121.5 -20.5t93 -60t59 -97.5t20.5 -132zM352 38q74 0 132.5 30.5t99.5 81t62.5 115.5t21.5 134q0 133 -66 198
t-178 65q-69 0 -126.5 -31.5t-98.5 -83t-63.5 -116.5t-22.5 -131q0 -62 19 -110.5t51 -82.5t75.5 -51.5t93.5 -17.5zM412 904h92l-127 -138h-54zM555 904h92l-127 -138h-54z" />
    <glyph glyph-name="ohungarumlaut" unicode="&#x151;" horiz-adv-x="592" 
d="M546 291q0 -66 -21 -121.5t-58.5 -96.5t-89.5 -64t-113 -23q-44 0 -85 14t-73.5 42t-52 70.5t-19.5 99.5q0 62 21 116t58.5 94.5t90.5 64t117 23.5q44 0 85 -13.5t72 -40.5t49.5 -68.5t18.5 -96.5zM269 36q44 0 83.5 19t69 52t47 77.5t17.5 96.5q0 83 -47.5 131
t-126.5 48q-49 0 -89 -21.5t-68.5 -56.5t-44.5 -79t-16 -89q0 -39 12.5 -72t36 -56.5t55.5 -36.5t71 -13zM309 700h92l-127 -138h-54zM452 700h92l-127 -138h-54z" />
    <glyph glyph-name="OE" unicode="&#x152;" horiz-adv-x="1138" 
d="M610 108q-21 -25 -48.5 -47.5t-60 -39t-70 -26t-80.5 -9.5q-64 0 -118.5 21t-94.5 61t-62.5 97.5t-22.5 129.5q0 78 26.5 153t76 134.5t120 95.5t158.5 36q95 0 161.5 -43t101.5 -124l30 153h414l-11 -52h-354l-50 -260h326l-10 -52h-326l-55 -284h357l-11 -52h-417z
M352 38q74 0 132.5 30.5t99.5 81.5t62.5 116t21.5 134q0 66 -17 115t-48.5 82t-76.5 49t-100 16q-70 0 -127.5 -31.5t-99 -83t-64 -116.5t-22.5 -131q0 -62 19 -110.5t51 -82.5t75.5 -51.5t93.5 -17.5z" />
    <glyph glyph-name="oe" unicode="&#x153;" horiz-adv-x="1020" 
d="M543 243q-2 -8 -2 -16.5v-16.5q0 -35 12.5 -66.5t35 -55.5t53.5 -38t69 -14q34 0 61.5 9t50 25.5t41.5 40.5t36 54l43 -28q-42 -78 -100.5 -114.5t-138.5 -36.5q-33 0 -64 8t-58 24t-48 41t-34 60q-37 -62 -98 -97.5t-138 -35.5q-44 0 -85 14t-73.5 42t-52 70.5
t-19.5 99.5q0 62 21 116t58.5 94.5t90.5 64t117 23.5q68 0 124 -32t83 -97q37 59 99 94t139 35q51 0 91 -15.5t67 -42.5t41 -63.5t14 -78.5q0 -12 -1.5 -23t-3.5 -25l-4 -19h-427zM269 36q44 0 83.5 19t69 52t47 77.5t17.5 96.5q0 83 -47.5 131t-126.5 48q-49 0 -89 -21.5
t-68.5 -56.5t-44.5 -79t-16 -89q0 -39 12.5 -72t36 -56.5t55.5 -36.5t71 -13zM762 460q-36 0 -69.5 -11.5t-60.5 -33t-47 -52.5t-29 -70h363q2 11 2 16.5v13.5q0 30 -12 55t-33 43t-50 28.5t-64 10.5z" />
    <glyph glyph-name="Racute" unicode="&#x154;" horiz-adv-x="617" 
d="M334 312h-183l-62 -312h-60l137 700h251q96 0 147.5 -46t51.5 -127q0 -44 -17 -80.5t-46 -64.5t-68.5 -45.5t-84.5 -22.5l114 -314h-64zM161 364h192q40 0 77 10t65 30t44.5 49t16.5 68q0 69 -39 98t-109 29h-191zM413 904h89l-124 -138h-52z" />
    <glyph glyph-name="racute" unicode="&#x155;" horiz-adv-x="330" 
d="M333 454q-12 4 -22 5t-21 1q-26 0 -50.5 -14t-46 -39t-38 -59.5t-24.5 -76.5l-53 -271h-60l96 496h60l-15 -81q29 48 66 71.5t90 23.5q10 0 18 -1t14 -3zM267 700h89l-124 -138h-52z" />
    <glyph glyph-name="uni0156" unicode="&#x156;" horiz-adv-x="617" 
d="M213 -60h80l-16 -82l-82 -115l-17 10l53 105h-34zM334 312h-183l-62 -312h-60l137 700h251q96 0 147.5 -46t51.5 -127q0 -44 -17 -80.5t-46 -64.5t-68.5 -45.5t-84.5 -22.5l114 -314h-64zM161 364h192q40 0 77 10t65 30t44.5 49t16.5 68q0 69 -39 98t-109 29h-191z" />
    <glyph glyph-name="uni0157" unicode="&#x157;" horiz-adv-x="330" 
d="M-1 -60h80l-16 -82l-82 -115l-17 10l53 105h-34zM333 454q-12 4 -22 5t-21 1q-26 0 -50.5 -14t-46 -39t-38 -59.5t-24.5 -76.5l-53 -271h-60l96 496h60l-15 -81q29 48 66 71.5t90 23.5q10 0 18 -1t14 -3z" />
    <glyph glyph-name="Rcaron" unicode="&#x158;" horiz-adv-x="617" 
d="M334 312h-183l-62 -312h-60l137 700h251q96 0 147.5 -46t51.5 -127q0 -44 -17 -80.5t-46 -64.5t-68.5 -45.5t-84.5 -22.5l114 -314h-64zM161 364h192q40 0 77 10t65 30t44.5 49t16.5 68q0 69 -39 98t-109 29h-191zM400 766h-54l-73 138h50l61 -78l86 78h56z" />
    <glyph glyph-name="rcaron" unicode="&#x159;" horiz-adv-x="330" 
d="M333 454q-12 4 -22 5t-21 1q-26 0 -50.5 -14t-46 -39t-38 -59.5t-24.5 -76.5l-53 -271h-60l96 496h60l-15 -81q29 48 66 71.5t90 23.5q10 0 18 -1t14 -3zM267 562h-54l-73 138h50l61 -78l86 78h56z" />
    <glyph glyph-name="Sacute" unicode="&#x15a;" horiz-adv-x="640" 
d="M367 662q-33 0 -65 -8.5t-56.5 -26t-40 -42.5t-15.5 -58q0 -57 43.5 -89t130.5 -52q85 -19 134 -59.5t49 -112.5q0 -51 -18.5 -93t-52 -72t-80 -46.5t-102.5 -16.5q-60 0 -104 18t-74 48t-46.5 69t-21.5 81l58 29q3 -41 16 -76t36.5 -61t58 -41t80.5 -15q36 0 70.5 11
t61 32t42.5 51.5t16 68.5q0 32 -10.5 54t-31.5 37.5t-52.5 26.5t-73.5 22q-94 23 -141.5 66t-47.5 113q0 45 18.5 81t51.5 61t79 38.5t100 13.5q81 0 139 -41t81 -125l-51 -31q-20 72 -64.5 108.5t-116.5 36.5zM422 904h89l-124 -138h-52z" />
    <glyph glyph-name="sacute" unicode="&#x15b;" horiz-adv-x="478" 
d="M258 460q-18 0 -38 -5t-36.5 -15.5t-27.5 -26.5t-11 -37q0 -37 27 -57.5t94 -36.5t101 -48t34 -86q0 -37 -14 -67t-39 -51t-59.5 -32.5t-75.5 -11.5q-38 0 -69.5 11.5t-55 31t-38.5 46t-21 55.5l53 29q4 -25 14.5 -47.5t27 -39t39 -26.5t51.5 -10q60 0 93.5 30t33.5 78
q0 21 -5.5 35.5t-19 25t-35 19t-53.5 16.5q-65 17 -102 48t-37 83q0 31 13 57t36 44t54.5 28t68.5 10q71 0 111.5 -33t55.5 -86l-47 -24q-15 51 -47.5 72t-75.5 21zM310 700h89l-124 -138h-52z" />
    <glyph glyph-name="Scircumflex" unicode="&#x15c;" horiz-adv-x="640" 
d="M367 662q-33 0 -65 -8.5t-56.5 -26t-40 -42.5t-15.5 -58q0 -57 43.5 -89t130.5 -52q85 -19 134 -59.5t49 -112.5q0 -51 -18.5 -93t-52 -72t-80 -46.5t-102.5 -16.5q-60 0 -104 18t-74 48t-46.5 69t-21.5 81l58 29q3 -41 16 -76t36.5 -61t58 -41t80.5 -15q36 0 70.5 11
t61 32t42.5 51.5t16 68.5q0 32 -10.5 54t-31.5 37.5t-52.5 26.5t-73.5 22q-94 23 -141.5 66t-47.5 113q0 45 18.5 81t51.5 61t79 38.5t100 13.5q81 0 139 -41t81 -125l-51 -31q-20 72 -64.5 108.5t-116.5 36.5zM384 904h54l73 -138h-50l-61 78l-86 -78h-56z" />
    <glyph glyph-name="scircumflex" unicode="&#x15d;" horiz-adv-x="478" 
d="M258 460q-18 0 -38 -5t-36.5 -15.5t-27.5 -26.5t-11 -37q0 -37 27 -57.5t94 -36.5t101 -48t34 -86q0 -37 -14 -67t-39 -51t-59.5 -32.5t-75.5 -11.5q-38 0 -69.5 11.5t-55 31t-38.5 46t-21 55.5l53 29q4 -25 14.5 -47.5t27 -39t39 -26.5t51.5 -10q60 0 93.5 30t33.5 78
q0 21 -5.5 35.5t-19 25t-35 19t-53.5 16.5q-65 17 -102 48t-37 83q0 31 13 57t36 44t54.5 28t68.5 10q71 0 111.5 -33t55.5 -86l-47 -24q-15 51 -47.5 72t-75.5 21zM281 700h54l73 -138h-50l-61 78l-86 -78h-56z" />
    <glyph glyph-name="Scedilla" unicode="&#x15e;" horiz-adv-x="640" 
d="M367 662q-33 0 -65 -8.5t-56.5 -26t-40 -42.5t-15.5 -58q0 -57 43.5 -89t130.5 -52q85 -19 134 -59.5t49 -112.5q0 -51 -18.5 -93t-52 -72t-80 -46.5t-102.5 -16.5h-5l-30 -45q10 7 22.5 11t24.5 4q27 0 46 -17t19 -53q0 -40 -25.5 -65t-75.5 -25q-35 0 -53 17.5
t-23 43.5l40 9q3 -14 13 -22t29 -8t33 11t14 36q0 18 -11 27t-28 9q-15 0 -26.5 -6t-22.5 -14l-23 26l34 65q-47 7 -82.5 26.5t-59.5 48t-38 64t-18 73.5l58 29q3 -41 16 -76t36.5 -61t58 -41t80.5 -15q36 0 70.5 11t61 32t42.5 51.5t16 68.5q0 32 -10.5 54t-31.5 37.5
t-52.5 26.5t-73.5 22q-94 23 -141.5 66t-47.5 113q0 45 18.5 81t51.5 61t79 38.5t100 13.5q81 0 139 -41t81 -125l-51 -31q-20 72 -64.5 108.5t-116.5 36.5z" />
    <glyph glyph-name="scedilla" unicode="&#x15f;" horiz-adv-x="478" 
d="M132 -75l35 66q-57 12 -92.5 50.5t-45.5 88.5l53 29q4 -25 14.5 -47.5t27 -39t39 -26.5t51.5 -10q60 0 93.5 30t33.5 78q0 21 -5.5 35.5t-19 25t-35 19t-53.5 16.5q-65 17 -102 48t-37 83q0 31 13 57t36 44t54.5 28t68.5 10q71 0 111.5 -33t55.5 -86l-47 -24
q-15 51 -47.5 72t-75.5 21q-18 0 -38 -5t-36.5 -15.5t-27.5 -26.5t-11 -37q0 -37 27 -57.5t94 -36.5t101 -48t34 -86q0 -37 -14 -67t-39 -51t-59.5 -32.5t-75.5 -11.5h-4l-30 -45q10 7 22.5 11t24.5 4q27 0 46 -17t19 -53q0 -40 -25.5 -65t-75.5 -25q-35 0 -53 17.5
t-23 43.5l40 9q3 -14 13 -22t29 -8t33 11t14 36q0 18 -11 27t-28 9q-15 0 -26.5 -6t-22.5 -14z" />
    <glyph glyph-name="Scaron" unicode="&#x160;" horiz-adv-x="640" 
d="M367 662q-33 0 -65 -8.5t-56.5 -26t-40 -42.5t-15.5 -58q0 -57 43.5 -89t130.5 -52q85 -19 134 -59.5t49 -112.5q0 -51 -18.5 -93t-52 -72t-80 -46.5t-102.5 -16.5q-60 0 -104 18t-74 48t-46.5 69t-21.5 81l58 29q3 -41 16 -76t36.5 -61t58 -41t80.5 -15q36 0 70.5 11
t61 32t42.5 51.5t16 68.5q0 32 -10.5 54t-31.5 37.5t-52.5 26.5t-73.5 22q-94 23 -141.5 66t-47.5 113q0 45 18.5 81t51.5 61t79 38.5t100 13.5q81 0 139 -41t81 -125l-51 -31q-20 72 -64.5 108.5t-116.5 36.5zM410 766h-54l-73 138h50l61 -78l86 78h56z" />
    <glyph glyph-name="scaron" unicode="&#x161;" horiz-adv-x="478" 
d="M258 460q-18 0 -38 -5t-36.5 -15.5t-27.5 -26.5t-11 -37q0 -37 27 -57.5t94 -36.5t101 -48t34 -86q0 -37 -14 -67t-39 -51t-59.5 -32.5t-75.5 -11.5q-38 0 -69.5 11.5t-55 31t-38.5 46t-21 55.5l53 29q4 -25 14.5 -47.5t27 -39t39 -26.5t51.5 -10q60 0 93.5 30t33.5 78
q0 21 -5.5 35.5t-19 25t-35 19t-53.5 16.5q-65 17 -102 48t-37 83q0 31 13 57t36 44t54.5 28t68.5 10q71 0 111.5 -33t55.5 -86l-47 -24q-15 51 -47.5 72t-75.5 21zM300 562h-54l-73 138h50l61 -78l86 78h56z" />
    <glyph glyph-name="uni0162" unicode="&#x162;" horiz-adv-x="534" 
d="M145 -75l40 75h-6l126 648h-216l11 52h492l-11 -52h-216l-126 -648h-8l-39 -59q10 7 22.5 11t24.5 4q27 0 46 -17t19 -53q0 -40 -25.5 -65t-75.5 -25q-35 0 -53 17.5t-23 43.5l40 9q3 -14 13 -22t29 -8t33 11t14 36q0 18 -11 27t-28 9q-15 0 -26.5 -6t-22.5 -14z" />
    <glyph glyph-name="uni0163" unicode="&#x163;" horiz-adv-x="334" 
d="M55 -75l47 87q-11 12 -17.5 29.5t-6.5 41.5q0 8 0.5 16.5t2.5 19.5l64 333h-86l9 44h86l26 134h60l-26 -134h119l-9 -44h-119l-64 -333q-3 -17 -3 -29q0 -26 15 -40t40 -14q11 0 19 1.5t19 4.5l-3 -48q-13 -5 -24.5 -6.5t-30.5 -1.5q-11 0 -20 1.5t-18 3.5l-33 -50
q10 7 22.5 11t24.5 4q27 0 46 -17t19 -53q0 -40 -25.5 -65t-75.5 -25q-35 0 -53 17.5t-23 43.5l40 9q3 -14 13 -22t29 -8t33 11t14 36q0 18 -11 27t-28 9q-15 0 -26.5 -6t-22.5 -14z" />
    <glyph glyph-name="Tcaron" unicode="&#x164;" horiz-adv-x="534" 
d="M100 700h492l-11 -52h-216l-126 -648h-60l126 648h-216zM377 766h-54l-73 138h50l61 -78l86 78h56z" />
    <glyph glyph-name="tcaron" unicode="&#x165;" horiz-adv-x="334" 
d="M322 570l47 86h-30l14 76h74l-14 -76l-77 -98zM68 496h86l26 134h60l-26 -134h119l-9 -44h-119l-64 -333q-3 -17 -3 -29q0 -26 15 -40t40 -14q11 0 19 1.5t19 4.5l-3 -48q-13 -5 -24.5 -6.5t-30.5 -1.5q-42 0 -68.5 23t-26.5 74q0 8 0.5 16.5t2.5 19.5l64 333h-86z" />
    <glyph glyph-name="Tbar" unicode="&#x166;" horiz-adv-x="534" 
d="M100 700h492l-11 -52h-216l-44 -231h152l-11 -52h-152l-71 -365h-60l71 365h-152l11 52h152l44 231h-216z" />
    <glyph glyph-name="tbar" unicode="&#x167;" horiz-adv-x="334" 
d="M70 496h86l26 134h60l-26 -134h119l-9 -44h-119l-33 -169h110l-9 -42h-109l-23 -122q-3 -17 -3 -29q0 -26 15 -40t40 -14q11 0 19 1.5t19 4.5l-3 -48q-13 -5 -24.5 -6.5t-30.5 -1.5q-42 0 -68.5 23t-26.5 74q0 8 0.5 16.5t2.5 19.5l23 122h-69l9 42h68l33 169h-86z" />
    <glyph glyph-name="Utilde" unicode="&#x168;" horiz-adv-x="654" 
d="M563 218q-12 -60 -38 -103.5t-64 -72t-87 -42.5t-106 -14q-46 0 -84 13.5t-65.5 39t-42.5 62.5t-15 84q0 14 1.5 33.5t5.5 38.5l86 443h60l-91 -468q-3 -17 -3.5 -27.5t-0.5 -19.5q0 -63 40.5 -105t116.5 -42q94 0 152 49t74 130l94 483h60zM352 838q-17 0 -27.5 -11
t-10.5 -27q0 -6 0.5 -9.5t1.5 -6.5l-51 -10q-2 5 -3 11.5t-1 15.5q0 35 22.5 61t70.5 26q30 0 48.5 -10.5t32 -23.5t26 -23.5t32.5 -10.5q17 0 27 10.5t10 26.5q0 5 -0.5 9t-1.5 8l51 10q2 -7 3 -15t1 -16q0 -41 -24.5 -62t-63.5 -21q-33 0 -52 10.5t-32 23.5t-25.5 23.5
t-33.5 10.5z" />
    <glyph glyph-name="utilde" unicode="&#x169;" horiz-adv-x="556" 
d="M115 496h60l-61 -314q-3 -16 -3.5 -24t-0.5 -17q0 -47 28.5 -76t81.5 -29q29 0 58.5 13.5t55 39.5t45 63t28.5 84l51 260h60l-96 -496h-60l15 77q-27 -44 -72.5 -67.5t-99.5 -23.5q-70 0 -112.5 39.5t-42.5 109.5q0 11 1 21.5t3 24.5zM264 634q-17 0 -27.5 -11t-10.5 -27
q0 -6 0.5 -9.5t1.5 -6.5l-51 -10q-2 5 -3 11.5t-1 15.5q0 35 22.5 61t70.5 26q30 0 48.5 -10.5t32 -23.5t26 -23.5t32.5 -10.5q17 0 27 10.5t10 26.5q0 5 -0.5 9t-1.5 8l51 10q2 -7 3 -15t1 -16q0 -41 -24.5 -62t-63.5 -21q-33 0 -52 10.5t-32 23.5t-25.5 23.5t-33.5 10.5z
" />
    <glyph glyph-name="Umacron" unicode="&#x16a;" horiz-adv-x="654" 
d="M563 218q-12 -60 -38 -103.5t-64 -72t-87 -42.5t-106 -14q-46 0 -84 13.5t-65.5 39t-42.5 62.5t-15 84q0 14 1.5 33.5t5.5 38.5l86 443h60l-91 -468q-3 -17 -3.5 -27.5t-0.5 -19.5q0 -63 40.5 -105t116.5 -42q94 0 152 49t74 130l94 483h60zM326 866h206l-11 -54h-206z
" />
    <glyph glyph-name="umacron" unicode="&#x16b;" horiz-adv-x="556" 
d="M115 496h60l-61 -314q-3 -16 -3.5 -24t-0.5 -17q0 -47 28.5 -76t81.5 -29q29 0 58.5 13.5t55 39.5t45 63t28.5 84l51 260h60l-96 -496h-60l15 77q-27 -44 -72.5 -67.5t-99.5 -23.5q-70 0 -112.5 39.5t-42.5 109.5q0 11 1 21.5t3 24.5zM236 662h206l-11 -54h-206z" />
    <glyph glyph-name="Ubreve" unicode="&#x16c;" horiz-adv-x="654" 
d="M563 218q-12 -60 -38 -103.5t-64 -72t-87 -42.5t-106 -14q-46 0 -84 13.5t-65.5 39t-42.5 62.5t-15 84q0 14 1.5 33.5t5.5 38.5l86 443h60l-91 -468q-3 -17 -3.5 -27.5t-0.5 -19.5q0 -63 40.5 -105t116.5 -42q94 0 152 49t74 130l94 483h60zM528 873q-8 -53 -37 -76
t-76 -23q-39 0 -61 24.5t-22 55.5q0 11 2 19h57q-1 -5 -1 -7v-4q0 -34 32 -34q20 0 32.5 12.5t16.5 32.5h57z" />
    <glyph glyph-name="ubreve" unicode="&#x16d;" horiz-adv-x="556" 
d="M115 496h60l-61 -314q-3 -16 -3.5 -24t-0.5 -17q0 -47 28.5 -76t81.5 -29q29 0 58.5 13.5t55 39.5t45 63t28.5 84l51 260h60l-96 -496h-60l15 77q-27 -44 -72.5 -67.5t-99.5 -23.5q-70 0 -112.5 39.5t-42.5 109.5q0 11 1 21.5t3 24.5zM438 669q-8 -53 -37 -76t-76 -23
q-39 0 -61 24.5t-22 55.5q0 11 2 19h57q-1 -5 -1 -7v-4q0 -34 32 -34q20 0 32.5 12.5t16.5 32.5h57z" />
    <glyph glyph-name="Uring" unicode="&#x16e;" horiz-adv-x="654" 
d="M563 218q-12 -60 -38 -103.5t-64 -72t-87 -42.5t-106 -14q-46 0 -84 13.5t-65.5 39t-42.5 62.5t-15 84q0 14 1.5 33.5t5.5 38.5l86 443h60l-91 -468q-3 -17 -3.5 -27.5t-0.5 -19.5q0 -63 40.5 -105t116.5 -42q94 0 152 49t74 130l94 483h60zM320 839q0 40 28 67.5
t68 27.5t68 -27.5t28 -67.5t-28 -67.5t-68 -27.5t-68 27.5t-28 67.5zM364 839q0 -22 14.5 -37.5t37.5 -15.5t37.5 15.5t14.5 37.5t-14.5 37.5t-37.5 15.5t-37.5 -15.5t-14.5 -37.5z" />
    <glyph glyph-name="uring" unicode="&#x16f;" horiz-adv-x="556" 
d="M115 496h60l-61 -314q-3 -16 -3.5 -24t-0.5 -17q0 -47 28.5 -76t81.5 -29q29 0 58.5 13.5t55 39.5t45 63t28.5 84l51 260h60l-96 -496h-60l15 77q-27 -44 -72.5 -67.5t-99.5 -23.5q-70 0 -112.5 39.5t-42.5 109.5q0 11 1 21.5t3 24.5zM236 635q0 40 28 67.5t68 27.5
t68 -27.5t28 -67.5t-28 -67.5t-68 -27.5t-68 27.5t-28 67.5zM280 635q0 -22 14.5 -37.5t37.5 -15.5t37.5 15.5t14.5 37.5t-14.5 37.5t-37.5 15.5t-37.5 -15.5t-14.5 -37.5z" />
    <glyph glyph-name="Uhungarumlaut" unicode="&#x170;" horiz-adv-x="654" 
d="M563 218q-12 -60 -38 -103.5t-64 -72t-87 -42.5t-106 -14q-46 0 -84 13.5t-65.5 39t-42.5 62.5t-15 84q0 14 1.5 33.5t5.5 38.5l86 443h60l-91 -468q-3 -17 -3.5 -27.5t-0.5 -19.5q0 -63 40.5 -105t116.5 -42q94 0 152 49t74 130l94 483h60zM393 904h92l-127 -138h-54z
M536 904h92l-127 -138h-54z" />
    <glyph glyph-name="uhungarumlaut" unicode="&#x171;" horiz-adv-x="556" 
d="M115 496h60l-61 -314q-3 -16 -3.5 -24t-0.5 -17q0 -47 28.5 -76t81.5 -29q29 0 58.5 13.5t55 39.5t45 63t28.5 84l51 260h60l-96 -496h-60l15 77q-27 -44 -72.5 -67.5t-99.5 -23.5q-70 0 -112.5 39.5t-42.5 109.5q0 11 1 21.5t3 24.5zM299 700h92l-127 -138h-54zM442 700
h92l-127 -138h-54z" />
    <glyph glyph-name="Uogonek" unicode="&#x172;" horiz-adv-x="654" 
d="M222 -118q0 35 17 61t43 43h-14q-46 0 -84 13.5t-65.5 39t-42.5 62.5t-15 84q0 14 1.5 33.5t5.5 38.5l86 443h60l-91 -468q-3 -17 -3.5 -27.5t-0.5 -19.5q0 -63 40.5 -105t116.5 -42q94 0 152 49t74 130l94 483h60l-93 -482q-17 -91 -68 -145t-125 -74q-15 -4 -30.5 -13
t-28.5 -21t-21 -27t-8 -31q0 -21 13.5 -32t33.5 -11q5 0 9 0.5t9 1.5l-3 -58q-10 -3 -19 -4.5t-20 -1.5q-35 0 -59 19t-24 61z" />
    <glyph glyph-name="uogonek" unicode="&#x173;" horiz-adv-x="556" 
d="M271 -118q0 45 27 74.5t64 46.5l15 74q-27 -44 -72.5 -67.5t-99.5 -23.5q-70 0 -112.5 39.5t-42.5 109.5q0 11 1 21.5t3 24.5l61 315h60l-61 -314q-3 -16 -4 -24t-1 -17q0 -47 29 -76t82 -29q29 0 58.5 13.5t55 39.5t45 63t28.5 84l51 260h60l-96 -496q-14 -6 -30 -15.5
t-29.5 -21.5t-22.5 -26t-9 -30q0 -21 13.5 -32t33.5 -11q5 0 9 0.5t9 1.5l-3 -58q-10 -3 -19 -4.5t-20 -1.5q-35 0 -59 19t-24 61z" />
    <glyph glyph-name="Wcircumflex" unicode="&#x174;" horiz-adv-x="872" 
d="M612 0h-68l-43 635l-290 -635h-69l-59 700h58l41 -561q1 -14 2 -27q1 -11 1.5 -23.5t1.5 -21.5q3 9 9 22t11 24q6 13 13 27l257 560h73l38 -557v-27q0 -11 0.5 -24.5t0.5 -24.5q5 14 11 27t11 24l12 24l260 558h60zM514 904h54l73 -138h-50l-61 78l-86 -78h-56z" />
    <glyph glyph-name="wcircumflex" unicode="&#x175;" horiz-adv-x="676" 
d="M445 65l193 431h60l-229 -496h-71l-38 432l-195 -432h-72l-42 496h60l28 -431l196 431h74zM370 700h54l73 -138h-50l-61 78l-86 -78h-56z" />
    <glyph glyph-name="Ycircumflex" unicode="&#x176;" horiz-adv-x="526" 
d="M232 292l-151 408h67l106 -313q2 -8 5 -16q2 -7 4.5 -15.5t4.5 -17.5q9 17 19 30q5 7 11 14l234 318h69l-309 -408l-57 -292h-60zM349 904h54l73 -138h-50l-61 78l-86 -78h-56z" />
    <glyph glyph-name="ycircumflex" unicode="&#x177;" horiz-adv-x="477" 
d="M-22 -149q18 -8 37 -8q24 0 39.5 11.5t32.5 41.5l65 111l-105 489h60l88 -418l245 418h68l-368 -617q-16 -27 -30.5 -44.5t-29.5 -27.5t-32.5 -14t-40.5 -4q-11 0 -24 2t-24 7zM284 700h54l73 -138h-50l-61 78l-86 -78h-56z" />
    <glyph glyph-name="Ydieresis" unicode="&#x178;" horiz-adv-x="526" 
d="M232 292l-151 408h67l106 -313q2 -8 5 -16q2 -7 4.5 -15.5t4.5 -17.5q9 17 19 30q5 7 11 14l234 318h69l-309 -408l-57 -292h-60zM405 874h80l-15 -76h-80zM257 874h80l-15 -76h-80z" />
    <glyph glyph-name="Zacute" unicode="&#x179;" horiz-adv-x="582" 
d="M132 700h465l-11 -54l-513 -592h415l-11 -54h-494l11 52l521 594h-394zM400 904h89l-124 -138h-52z" />
    <glyph glyph-name="zacute" unicode="&#x17a;" horiz-adv-x="474" 
d="M383 50l-10 -50h-387l9 50l382 396h-293l10 50h362l-10 -50l-381 -396h318zM320 700h89l-124 -138h-52z" />
    <glyph glyph-name="Zdotaccent" unicode="&#x17b;" horiz-adv-x="582" 
d="M132 700h465l-11 -54l-513 -592h415l-11 -54h-494l11 52l521 594h-394zM354 874h76l-16 -80h-76z" />
    <glyph glyph-name="zdotaccent" unicode="&#x17c;" horiz-adv-x="474" 
d="M383 50l-10 -50h-387l9 50l382 396h-293l10 50h362l-10 -50l-381 -396h318zM267 670h76l-16 -80h-76z" />
    <glyph glyph-name="Zcaron" unicode="&#x17d;" horiz-adv-x="582" 
d="M132 700h465l-11 -54l-513 -592h415l-11 -54h-494l11 52l521 594h-394zM386 766h-54l-73 138h50l61 -78l86 78h56z" />
    <glyph glyph-name="zcaron" unicode="&#x17e;" horiz-adv-x="474" 
d="M383 50l-10 -50h-387l9 50l382 396h-293l10 50h362l-10 -50l-381 -396h318zM313 562h-54l-73 138h50l61 -78l86 78h56z" />
    <glyph glyph-name="longs" unicode="&#x17f;" horiz-adv-x="305" 
d="M61 496h78l22 113q12 63 51 102t113 39q13 0 21.5 -1.5t16.5 -3.5l-9 -52q-15 7 -39 7q-31 0 -58 -22t-37 -74l-117 -604h-60l87 452h-78z" />
    <glyph glyph-name="uni018E" unicode="&#x18e;" horiz-adv-x="573" 
d="M426 0h-410l11 52h350l50 260h-322l10 52h322l55 284h-353l11 52h413z" />
    <glyph glyph-name="uni018F" unicode="&#x18f;" horiz-adv-x="567" 
d="M463 253q2 8 2 16.5v16.5q0 35 -12.5 66.5t-35 55.5t-53.5 38t-69 14q-68 0 -111.5 -34.5t-77.5 -94.5l-43 28q42 78 100.5 114.5t138.5 36.5q44 0 84 -14t70.5 -43.5t48.5 -74.5t18 -108q0 -59 -21.5 -111t-59.5 -90.5t-89.5 -60.5t-112.5 -22q-51 0 -91 15.5t-67 42.5
t-41 63.5t-14 78.5q0 12 1.5 23t3.5 25l4 19h427zM244 36q36 0 69.5 11.5t60.5 33t47 52.5t29 70h-363q-2 -11 -2 -16.5v-13.5q0 -30 12 -55t33 -43t50 -28.5t64 -10.5z" />
    <glyph glyph-name="florin" unicode="&#x192;" horiz-adv-x="304" 
d="M85 -92q-12 -62 -45 -94t-101 -32q-11 0 -22.5 1.5t-19.5 3.5l16 52q7 -3 14.5 -5t18.5 -2q29 0 50.5 21.5t29.5 59.5l104 539h-78l9 44h78l22 113q12 63 51 102t113 39q13 0 21.5 -1.5t16.5 -3.5l-9 -52q-15 7 -39 7q-31 0 -58 -22t-37 -74l-21 -108h117l-9 -44h-117z
" />
    <glyph glyph-name="uni01B5" unicode="&#x1b5;" horiz-adv-x="582" 
d="M132 700h465l-11 -54l-231 -266h164l-10 -52h-199l-237 -274h415l-11 -54h-494l11 52l242 276h-164l10 52h199l234 266h-394z" />
    <glyph glyph-name="uni01B6" unicode="&#x1b6;" horiz-adv-x="474" 
d="M383 50l-10 -50h-387l9 50l178 185h-106l9 48h144l157 163h-293l10 50h362l-10 -50l-157 -163h106l-9 -48h-143l-178 -185h318z" />
    <glyph glyph-name="AEacute" unicode="&#x1fc;" horiz-adv-x="910" 
d="M669 904h89l-124 -138h-52zM405 217h-250l-139 -217h-68l446 700h519l-11 -52h-354l-50 -260h326l-10 -52h-326l-55 -284h357l-11 -52h-417zM186 267h228l74 381h-59z" />
    <glyph glyph-name="aeacute" unicode="&#x1fd;" horiz-adv-x="986" 
d="M511 243q-2 -8 -2 -16.5v-16.5q0 -35 12 -66.5t34 -55.5t53 -38t69 -14q34 0 61.5 9t50 25.5t41.5 40.5t36 54l43 -28q-42 -78 -100.5 -114.5t-138.5 -36.5q-30 0 -58.5 6.5t-53.5 20.5t-45.5 35.5t-32.5 50.5l-19 -99h-60l16 81q-33 -51 -76.5 -73t-97.5 -22
q-49 0 -87.5 17.5t-65 48.5t-40.5 73t-14 91q0 63 20.5 116.5t57 93t86.5 62t110 22.5t104.5 -27.5t64.5 -81.5l19 95h60l-12 -67q32 39 79 60t107 21q51 0 91 -15.5t67 -42.5t41 -63.5t14 -78.5q0 -12 -1.5 -23t-3.5 -25l-4 -19h-425zM250 36q46 0 84.5 20.5t65.5 56t42 82
t15 98.5q0 76 -38.5 121.5t-110.5 45.5q-47 0 -86 -19.5t-67 -52.5t-43.5 -77.5t-15.5 -95.5q0 -38 10.5 -71t30.5 -57t48.5 -37.5t64.5 -13.5zM728 460q-36 0 -69.5 -11.5t-60.5 -33t-47 -52.5t-29 -70h363q2 11 2 16.5v13.5q0 30 -12 55t-33 43t-50 28.5t-64 10.5z
M598 700h89l-124 -138h-52z" />
    <glyph glyph-name="Scommaaccent" unicode="&#x218;" horiz-adv-x="640" 
d="M231 -60h80l-16 -82l-82 -115l-17 10l53 105h-34zM367 662q-33 0 -65 -8.5t-56.5 -26t-40 -42.5t-15.5 -58q0 -57 43.5 -89t130.5 -52q85 -19 134 -59.5t49 -112.5q0 -51 -18.5 -93t-52 -72t-80 -46.5t-102.5 -16.5q-60 0 -104 18t-74 48t-46.5 69t-21.5 81l58 29
q3 -41 16 -76t36.5 -61t58 -41t80.5 -15q36 0 70.5 11t61 32t42.5 51.5t16 68.5q0 32 -10.5 54t-31.5 37.5t-52.5 26.5t-73.5 22q-94 23 -141.5 66t-47.5 113q0 45 18.5 81t51.5 61t79 38.5t100 13.5q81 0 139 -41t81 -125l-51 -31q-20 72 -64.5 108.5t-116.5 36.5z" />
    <glyph glyph-name="scommaaccent" unicode="&#x219;" horiz-adv-x="478" 
d="M147 -60h80l-16 -82l-82 -115l-17 10l53 105h-34zM258 460q-18 0 -38 -5t-36.5 -15.5t-27.5 -26.5t-11 -37q0 -37 27 -57.5t94 -36.5t101 -48t34 -86q0 -37 -14 -67t-39 -51t-59.5 -32.5t-75.5 -11.5q-38 0 -69.5 11.5t-55 31t-38.5 46t-21 55.5l53 29q4 -25 14.5 -47.5
t27 -39t39 -26.5t51.5 -10q60 0 93.5 30t33.5 78q0 21 -5.5 35.5t-19 25t-35 19t-53.5 16.5q-65 17 -102 48t-37 83q0 31 13 57t36 44t54.5 28t68.5 10q71 0 111.5 -33t55.5 -86l-47 -24q-15 51 -47.5 72t-75.5 21z" />
    <glyph glyph-name="uni021A" unicode="&#x21a;" horiz-adv-x="534" 
d="M160 -60h80l-16 -82l-82 -115l-17 10l53 105h-34zM100 700h492l-11 -52h-216l-126 -648h-60l126 648h-216z" />
    <glyph glyph-name="uni021B" unicode="&#x21b;" horiz-adv-x="334" 
d="M98 -60h80l-16 -82l-82 -115l-17 10l53 105h-34zM68 496h86l26 134h60l-26 -134h119l-9 -44h-119l-64 -333q-3 -17 -3 -29q0 -26 15 -40t40 -14q11 0 19 1.5t19 4.5l-3 -48q-13 -5 -24.5 -6.5t-30.5 -1.5q-42 0 -68.5 23t-26.5 74q0 8 0.5 16.5t2.5 19.5l64 333h-86z" />
    <glyph glyph-name="circumflex" unicode="&#x2c6;" horiz-adv-x="354" 
d="M219 700h54l73 -138h-50l-61 78l-86 -78h-56z" />
    <glyph glyph-name="caron" unicode="&#x2c7;" horiz-adv-x="354" 
d="M252 562h-54l-73 138h50l61 -78l86 78h56z" />
    <glyph glyph-name="breve" unicode="&#x2d8;" horiz-adv-x="274" 
d="M298 669q-8 -53 -37 -76t-76 -23q-39 0 -61 24.5t-22 55.5q0 11 2 19h57q-1 -5 -1 -7v-4q0 -34 32 -34q20 0 32.5 12.5t16.5 32.5h57z" />
    <glyph glyph-name="dotaccent" unicode="&#x2d9;" horiz-adv-x="210" 
d="M134 670h76l-16 -80h-76z" />
    <glyph glyph-name="ring" unicode="&#x2da;" horiz-adv-x="292" 
d="M115 635q0 40 28 67.5t68 27.5t68 -27.5t28 -67.5t-28 -67.5t-68 -27.5t-68 27.5t-28 67.5zM159 635q0 -22 14.5 -37.5t37.5 -15.5t37.5 15.5t14.5 37.5t-14.5 37.5t-37.5 15.5t-37.5 -15.5t-14.5 -37.5z" />
    <glyph glyph-name="ogonek" unicode="&#x2db;" horiz-adv-x="198" 
d="M-40 -118q0 47 30 78t71 48l50 -8q-14 -6 -30 -15.5t-29.5 -21.5t-22.5 -26t-9 -30q0 -21 13.5 -32t33.5 -11q5 0 9 0.5t9 1.5l-3 -58q-10 -3 -19 -4.5t-20 -1.5q-35 0 -59 19t-24 61z" />
    <glyph glyph-name="tilde" unicode="&#x2dc;" horiz-adv-x="463" 
d="M215 634q-17 0 -27.5 -11t-10.5 -27q0 -6 0.5 -9.5t1.5 -6.5l-51 -10q-2 5 -3 11.5t-1 15.5q0 35 22.5 61t70.5 26q30 0 48.5 -10.5t32 -23.5t26 -23.5t32.5 -10.5q17 0 27 10.5t10 26.5q0 5 -0.5 9t-1.5 8l51 10q2 -7 3 -15t1 -16q0 -41 -24.5 -62t-63.5 -21
q-33 0 -52 10.5t-32 23.5t-25.5 23.5t-33.5 10.5z" />
    <glyph glyph-name="hungarumlaut" unicode="&#x2dd;" horiz-adv-x="426" 
d="M208 700h92l-127 -138h-54zM351 700h92l-127 -138h-54z" />
    <glyph glyph-name="uni0374" unicode="&#x374;" horiz-adv-x="246" 
d="M184 700h75l-128 -226h-43z" />
    <glyph glyph-name="uni0375" unicode="&#x375;" horiz-adv-x="246" 
d="M55 -96h-75l128 226h44z" />
    <glyph glyph-name="uni037A" unicode="&#x37a;" horiz-adv-x="187" 
d="M10 -20h52l-14 -72q-2 -8 -2 -12.5v-9.5q0 -16 10 -25t26 -9q11 0 23 3l-10 -50q-17 -3 -31 -3q-32 0 -53 17t-21 49q0 13 4 32z" />
    <glyph glyph-name="uni037E" unicode="&#x37e;" horiz-adv-x="176" 
d="M80 472h80l-15 -82h-80zM5 82h80l-16 -82l-85 -115l-14 10l53 105h-34z" />
    <glyph glyph-name="tonos" unicode="&#x384;" horiz-adv-x="258" 
d="M187 700h86l-104 -138h-53z" />
    <glyph glyph-name="dieresistonos" unicode="&#x385;" horiz-adv-x="380" 
d="M351 670h80l-15 -76h-80zM91 670h80l-15 -76h-80zM247 700h85l-103 -138h-51z" />
    <glyph glyph-name="Alphatonos" unicode="&#x386;" horiz-adv-x="636" 
d="M363 700h67l141 -700h-60l-43 217h-326l-128 -217h-66zM393 596q-4 19 -5 28.5t-2 13.5q-2 -5 -7 -14t-16 -28l-193 -329h288zM169 700h86l-104 -138h-53z" />
    <glyph glyph-name="anoteleia" unicode="&#x387;" horiz-adv-x="176" 
d="M5 392h80l-15 -82h-80z" />
    <glyph glyph-name="Epsilontonos" unicode="&#x388;" horiz-adv-x="653" 
d="M96 700h86l-104 -138h-53zM246 700h410l-11 -52h-350l-50 -260h322l-10 -52h-322l-55 -284h353l-11 -52h-413z" />
    <glyph glyph-name="Etatonos" unicode="&#x389;" horiz-adv-x="750" 
d="M109 700h86l-104 -138h-53zM244 700h60l-62 -317h371l62 317h60l-137 -700h-60l65 331h-371l-65 -331h-60z" />
    <glyph glyph-name="Iotatonos" unicode="&#x38a;" horiz-adv-x="326" 
d="M106 700h86l-104 -138h-53zM256 700h60l-137 -700h-60z" />
    <glyph glyph-name="Omicrontonos" unicode="&#x38c;" horiz-adv-x="798" 
d="M100 700h86l-104 -138h-53zM756 404q0 -78 -24 -153t-71 -134t-118 -95t-164 -36q-64 0 -118.5 21t-94.5 61t-62.5 97.5t-22.5 129.5q0 78 26.5 153t76 134.5t120 95.5t158.5 36q67 0 121.5 -20.5t93 -60t59 -97.5t20.5 -132zM380 38q74 0 132.5 30.5t99.5 81t62.5 115.5
t21.5 134q0 133 -66 198t-178 65q-69 0 -126.5 -31.5t-98.5 -83t-63.5 -116.5t-22.5 -131q0 -62 19 -110.5t51 -82.5t75.5 -51.5t93.5 -17.5z" />
    <glyph glyph-name="Upsilontonos" unicode="&#x38e;" horiz-adv-x="674" 
d="M380 292l-151 408h67l106 -313q2 -8 5 -16q2 -7 4.5 -15.5t4.5 -17.5q9 17 19 30q5 7 11 14l234 318h69l-309 -408l-57 -292h-60zM111 700h86l-104 -138h-53z" />
    <glyph glyph-name="Omegatonos" unicode="&#x38f;" horiz-adv-x="824" 
d="M678 0h-242l13 68q53 24 103 60t88.5 82t61.5 100.5t23 116.5q0 55 -17.5 98.5t-49.5 74t-76.5 46.5t-99.5 16q-71 0 -129.5 -27.5t-100.5 -72t-65.5 -100t-23.5 -111.5q0 -60 14 -105t35.5 -79t49 -58t54.5 -41l-13 -68h-241l11 58h176q-28 21 -54 49t-46 63.5t-32 79
t-12 95.5q0 74 27.5 141t78 117.5t121.5 80.5t158 30q69 0 123.5 -19.5t92.5 -56t58.5 -89.5t20.5 -119q0 -62 -20 -116.5t-55.5 -101t-84.5 -85t-108 -69.5h172zM105 700h86l-104 -138h-53z" />
    <glyph glyph-name="iotadieresistonos" unicode="&#x390;" horiz-adv-x="257" 
d="M118 496h60l-75 -384q-3 -17 -3 -28q0 -22 15 -35t40 -13q8 0 15 1t16 4l-3 -48q-22 -7 -46 -7q-44 0 -70.5 22t-26.5 69q0 19 4 36zM297 670h80l-15 -76h-80zM37 670h80l-15 -76h-80zM193 700h85l-103 -138h-51z" />
    <glyph glyph-name="Alpha" unicode="&#x391;" horiz-adv-x="636" 
d="M363 700h67l141 -700h-60l-43 217h-326l-128 -217h-66zM393 596q-4 19 -5 28.5t-2 13.5q-2 -5 -7 -14t-16 -28l-193 -329h288z" />
    <glyph glyph-name="Beta" unicode="&#x392;" horiz-adv-x="625" 
d="M166 700h235q91 0 139.5 -41.5t48.5 -110.5q0 -31 -11.5 -59.5t-32.5 -51.5t-49.5 -39.5t-62.5 -24.5q20 -7 41 -19.5t38 -32t27.5 -45t10.5 -57.5q0 -52 -21 -93t-57.5 -69t-86 -42.5t-106.5 -14.5h-250zM100 52h165q49 0 90.5 10t71.5 31t46.5 53t16.5 76
q0 34 -12.5 58t-35 38.5t-52.5 21t-64 6.5h-169zM167 398h177q35 0 67.5 9t58 26.5t41 44t15.5 61.5q0 62 -39 85.5t-100 23.5h-172z" />
    <glyph glyph-name="Gamma" unicode="&#x393;" horiz-adv-x="540" 
d="M166 700h426l-11 -52h-366l-126 -648h-60z" />
    <glyph glyph-name="uni0394" unicode="&#x394;" horiz-adv-x="636" 
d="M363 700h67l141 -700h-623zM43 50h458l-108 546q-4 17 -5.5 28.5t-1.5 12.5q-1 -1 -6.5 -12.5t-16.5 -28.5z" />
    <glyph glyph-name="Epsilon" unicode="&#x395;" horiz-adv-x="573" 
d="M166 700h410l-11 -52h-350l-50 -260h322l-10 -52h-322l-55 -284h353l-11 -52h-413z" />
    <glyph glyph-name="Zeta" unicode="&#x396;" horiz-adv-x="582" 
d="M132 700h465l-11 -54l-513 -592h415l-11 -54h-494l11 52l521 594h-394z" />
    <glyph glyph-name="Eta" unicode="&#x397;" horiz-adv-x="676" 
d="M170 700h60l-62 -317h371l62 317h60l-137 -700h-60l65 331h-371l-65 -331h-60z" />
    <glyph glyph-name="Theta" unicode="&#x398;" horiz-adv-x="677" 
d="M637 420q0 -80 -23 -158t-67.5 -139.5t-109 -99t-147.5 -37.5q-57 0 -101.5 21t-74.5 58.5t-46 89.5t-16 114q0 81 24 160.5t69 142.5t109.5 102.5t145.5 39.5q58 0 102.5 -21t74.5 -59t45 -92.5t15 -121.5zM299 36q56 0 101.5 25t80 66t56.5 93t32 105h-457
q-2 -17 -2 -28.5v-23.5q0 -53 12.5 -97t36.5 -75t59.5 -48t80.5 -17zM395 664q-59 0 -105.5 -26t-80 -67t-55.5 -92.5t-33 -103.5h455q1 12 1 17v13q0 133 -50 196t-132 63z" />
    <glyph glyph-name="Iota" unicode="&#x399;" horiz-adv-x="236" 
d="M166 700h60l-137 -700h-60z" />
    <glyph glyph-name="Kappa" unicode="&#x39a;" horiz-adv-x="593" 
d="M166 700h60l-65 -339q11 10 25.5 23.5t27.5 24.5q15 13 31 27l303 264h78l-290 -259l176 -441h-68l-158 399l-144 -125l-53 -274h-60z" />
    <glyph glyph-name="Lambda" unicode="&#x39b;" horiz-adv-x="593" 
d="M338 700h71l119 -700h-62l-93 555l-4 26q-2 11 -3.5 25.5t-3.5 28.5q-14 -30 -27 -54l-14 -26l-307 -555h-66z" />
    <glyph glyph-name="Mu" unicode="&#x39c;" horiz-adv-x="844" 
d="M169 700h66l137 -648l388 648h71l-137 -700h-58l114 586q-4 -7 -12.5 -22t-17.5 -30q-11 -18 -24 -38l-298 -496h-69l-106 498q-3 23 -7 42q-3 17 -6 32.5t-4 22.5l-116 -595h-58z" />
    <glyph glyph-name="Nu" unicode="&#x39d;" horiz-adv-x="684" 
d="M166 700h60l250 -562q5 -11 9 -22q4 -9 6.5 -18.5t4.5 -14.5l120 617h58l-137 -700h-60l-250 562q-5 11 -9 22q-4 9 -7 18t-4 15l-120 -617h-58z" />
    <glyph glyph-name="Xi" unicode="&#x39e;" horiz-adv-x="564" 
d="M138 648l11 52h418l-11 -52h-418zM444 52l-11 -52h-423l10 52h424zM116 388h362l-10 -52h-362z" />
    <glyph glyph-name="Omicron" unicode="&#x39f;" horiz-adv-x="770" 
d="M728 404q0 -78 -24 -153t-71 -134t-118 -95t-164 -36q-64 0 -118.5 21t-94.5 61t-62.5 97.5t-22.5 129.5q0 78 26.5 153t76 134.5t120 95.5t158.5 36q67 0 121.5 -20.5t93 -60t59 -97.5t20.5 -132zM352 38q74 0 132.5 30.5t99.5 81t62.5 115.5t21.5 134q0 133 -66 198
t-178 65q-69 0 -126.5 -31.5t-98.5 -83t-63.5 -116.5t-22.5 -131q0 -62 19 -110.5t51 -82.5t75.5 -51.5t93.5 -17.5z" />
    <glyph glyph-name="Pi" unicode="&#x3a0;" horiz-adv-x="654" 
d="M172 700h466l-137 -700h-60l126 648h-346l-126 -648h-60z" />
    <glyph glyph-name="Rho" unicode="&#x3a1;" horiz-adv-x="661" 
d="M166 700h255q108 0 162 -51t54 -142q0 -56 -20 -99.5t-56 -74.5t-87 -47t-113 -16h-219l-53 -270h-60zM152 322h211q103 0 158.5 50t55.5 136q0 69 -41 104.5t-120 35.5h-201z" />
    <glyph glyph-name="Sigma" unicode="&#x3a3;" horiz-adv-x="577" 
d="M127 648l10 52h462l-11 -52h-396l171 -298l-285 -298h410l-11 -52h-482l12 56l292 301z" />
    <glyph glyph-name="Tau" unicode="&#x3a4;" horiz-adv-x="534" 
d="M100 700h492l-11 -52h-216l-126 -648h-60l126 648h-216z" />
    <glyph glyph-name="Upsilon" unicode="&#x3a5;" horiz-adv-x="526" 
d="M232 292l-151 408h67l106 -313q2 -8 5 -16q2 -7 4.5 -15.5t4.5 -17.5q9 17 19 30q5 7 11 14l234 318h69l-309 -408l-57 -292h-60z" />
    <glyph glyph-name="Phi" unicode="&#x3a6;" horiz-adv-x="752" 
d="M343 0h-60l17 84h-9q-52 0 -95 15.5t-73.5 44.5t-47.5 70.5t-17 94.5q0 67 23.5 123.5t67 97t105 63.5t137.5 23h12l17 84h60l-17 -84h8q51 0 93.5 -15t73.5 -44t48.5 -72t17.5 -100q0 -71 -24.5 -127t-69 -94.5t-106 -59t-135.5 -20.5h-9zM370 138h13q65 0 113.5 19
t81 52.5t49 78t16.5 95.5q0 45 -13.5 78.5t-38 56t-58 33.5t-72.5 11h-8zM393 562h-15q-60 0 -108 -19t-81.5 -52.5t-51.5 -78.5t-18 -97q0 -38 12 -70.5t34.5 -56t56 -37t75.5 -13.5h13z" />
    <glyph glyph-name="Chi" unicode="&#x3a7;" horiz-adv-x="550" 
d="M302 433l212 267h76l-263 -321l159 -379h-64l-136 331l-259 -331h-75l309 388l-139 312h66z" />
    <glyph glyph-name="Psi" unicode="&#x3a8;" horiz-adv-x="708" 
d="M296 180q-99 0 -153.5 49t-54.5 137q0 12 1.5 28.5t5.5 34.5l53 271h60l-53 -270q-3 -14 -5 -28.5t-2 -29.5q0 -30 8.5 -56t27.5 -44.5t49 -29t74 -10.5l91 468h60l-91 -468q100 0 154.5 52t73.5 146l53 270h60l-56 -285q-23 -116 -96 -175.5t-200 -59.5l-35 -180h-60z
" />
    <glyph glyph-name="uni03A9" unicode="&#x3a9;" horiz-adv-x="780" 
d="M634 0h-242l13 68q53 24 103 60t88.5 82t61.5 100.5t23 116.5q0 55 -17.5 98.5t-49.5 74t-76.5 46.5t-99.5 16q-71 0 -129.5 -27.5t-100.5 -72t-65.5 -100t-23.5 -111.5q0 -60 14 -105t35.5 -79t49 -58t54.5 -41l-13 -68h-241l11 58h176q-28 21 -54 49t-46 63.5t-32 79
t-12 95.5q0 74 27.5 141t78 117.5t121.5 80.5t158 30q69 0 123.5 -19.5t92.5 -56t58.5 -89.5t20.5 -119q0 -62 -20 -116.5t-55.5 -101t-84.5 -85t-108 -69.5h172z" />
    <glyph glyph-name="Iotadieresis" unicode="&#x3aa;" horiz-adv-x="236" 
d="M166 700h60l-137 -700h-60zM262 874h80l-15 -76h-80zM114 874h80l-15 -76h-80z" />
    <glyph glyph-name="Upsilondieresis" unicode="&#x3ab;" horiz-adv-x="526" 
d="M232 292l-151 408h67l106 -313q2 -8 5 -16q2 -7 4.5 -15.5t4.5 -17.5q9 17 19 30q5 7 11 14l234 318h69l-309 -408l-57 -292h-60zM405 874h80l-15 -76h-80zM257 874h80l-15 -76h-80z" />
    <glyph glyph-name="alphatonos" unicode="&#x3ac;" horiz-adv-x="631" 
d="M598 496l-117 -299q-2 -13 -4 -28.5t-2 -29.5q0 -53 15.5 -78t38.5 -25q12 0 27 6v-48q-12 -5 -21 -6.5t-20 -1.5q-36 0 -61 28.5t-27 79.5q-45 -58 -95 -83t-110 -25q-43 0 -78 17t-60 46t-38.5 68.5t-13.5 83.5q0 58 18.5 114t54 99t86.5 69.5t116 26.5q41 0 72 -14
t53 -36t35 -50t18 -55l55 141h58zM236 36q46 0 84 22t65.5 58t43 83t15.5 97q0 37 -10.5 67.5t-30 52t-46 33t-58.5 11.5q-49 0 -87.5 -22t-65 -58t-40.5 -81.5t-14 -91.5q0 -79 40 -125t104 -46zM358 700h86l-104 -138h-53z" />
    <glyph glyph-name="epsilontonos" unicode="&#x3ad;" horiz-adv-x="458" 
d="M226 237q-29 -2 -56 -7t-48 -16.5t-34 -30.5t-13 -48q0 -44 31 -71.5t82 -27.5q25 0 48 5t40.5 17t28 31.5t10.5 47.5q0 8 -0.5 13t-2.5 10l53 16q3 -8 5 -17.5t2 -20.5q0 -38 -16 -66.5t-42 -47.5t-59.5 -28.5t-68.5 -9.5q-41 0 -72.5 11t-53.5 30t-33 44.5t-11 53.5
q0 29 11.5 52.5t29.5 41t40 29.5t43 18q-29 14 -49.5 39.5t-20.5 61.5t16 62.5t41.5 44.5t58 27t65.5 9q37 0 65.5 -9.5t47.5 -25t28.5 -35.5t9.5 -41q0 -18 -4.5 -31.5t-13.5 -27.5l-42 18q4 7 6 14.5t2 18.5q0 30 -28 49.5t-79 19.5t-84 -24.5t-33 -67.5q0 -34 26 -57.5
t84 -23.5zM296 700h86l-104 -138h-53z" />
    <glyph glyph-name="etatonos" unicode="&#x3ae;" horiz-adv-x="558" 
d="M383 -204h-60l104 534q3 18 3 35q0 47 -29.5 71t-77.5 24q-31 0 -61.5 -13.5t-56 -37.5t-44.5 -56.5t-26 -71.5l-55 -281h-60l96 496h60l-15 -77q36 49 82 70t100 21q30 0 56.5 -8t47 -25t32 -43.5t11.5 -62.5q0 -11 -1 -21t-3 -24zM360 700h86l-104 -138h-53z" />
    <glyph glyph-name="iotatonos" unicode="&#x3af;" horiz-adv-x="265" 
d="M113 496h60l-75 -384q-3 -17 -3 -28q0 -22 15 -35t40 -13q8 0 15 1t16 4l-3 -48q-22 -7 -46 -7q-44 0 -70.5 22t-26.5 69q0 19 4 36zM199 700h86l-104 -138h-53z" />
    <glyph glyph-name="upsilondieresistonos" unicode="&#x3b0;" horiz-adv-x="546" 
d="M117 496h60l-60 -309q-5 -25 -5 -43q0 -47 29.5 -77.5t84.5 -30.5q66 0 105.5 33.5t52.5 97.5l64 329h60l-63 -325q-10 -51 -31 -86.5t-51 -57.5t-66.5 -31.5t-78.5 -9.5q-33 0 -63 10t-52.5 29.5t-35.5 48t-13 66.5q0 18 1.5 33t4.5 30zM433 670h80l-15 -76h-80z
M173 670h80l-15 -76h-80zM329 700h85l-103 -138h-51z" />
    <glyph glyph-name="alpha" unicode="&#x3b1;" horiz-adv-x="631" 
d="M598 496l-117 -299q-2 -13 -4 -28.5t-2 -29.5q0 -53 15.5 -78t38.5 -25q12 0 27 6v-48q-12 -5 -21 -6.5t-20 -1.5q-36 0 -61 28.5t-27 79.5q-45 -58 -95 -83t-110 -25q-43 0 -78 17t-60 46t-38.5 68.5t-13.5 83.5q0 58 18.5 114t54 99t86.5 69.5t116 26.5q41 0 72 -14
t53 -36t35 -50t18 -55l55 141h58zM236 36q46 0 84 22t65.5 58t43 83t15.5 97q0 37 -10.5 67.5t-30 52t-46 33t-58.5 11.5q-49 0 -87.5 -22t-65 -58t-40.5 -81.5t-14 -91.5q0 -79 40 -125t104 -46z" />
    <glyph glyph-name="beta" unicode="&#x3b2;" horiz-adv-x="542" 
d="M248 -14q-27 0 -51.5 7.5t-44.5 21t-34 32t-20 40.5l-57 -291h-60l137 709q11 57 31.5 96.5t49 64.5t63.5 36.5t74 11.5q38 0 68.5 -11t52.5 -31t33.5 -47.5t11.5 -60.5q0 -29 -9.5 -57.5t-27.5 -52.5t-44.5 -42.5t-60.5 -28.5q24 -9 46 -23.5t38.5 -35t26 -48t9.5 -61.5
q0 -51 -18 -93t-49.5 -72t-73.5 -47t-91 -17zM245 406h20q39 0 72 11.5t57 32t37 48t13 59.5q0 54 -32.5 80.5t-79.5 26.5q-54 0 -95.5 -37t-55.5 -109l-59 -300q-2 -12 -3 -22.5t-1 -21.5q0 -33 11 -59t30 -44t44 -27.5t52 -9.5q36 0 66.5 12.5t52.5 35.5t34 54.5t12 69.5
q0 42 -14.5 71t-38.5 47t-54.5 26t-61.5 8h-15z" />
    <glyph glyph-name="gamma" unicode="&#x3b3;" horiz-adv-x="486" 
d="M219 13l-43 -217h-64l43 217l-101 483h64l81 -405l240 405h69z" />
    <glyph glyph-name="delta" unicode="&#x3b4;" horiz-adv-x="563" 
d="M417 452q39 -41 64 -86.5t25 -109.5q0 -65 -21 -115.5t-56 -85t-81 -52t-96 -17.5q-45 0 -83 14.5t-66 42t-44 66.5t-16 89q0 52 16 99t47.5 83t79.5 57t113 21q16 0 26.5 -2t18.5 -5l-181 189l12 60h319l-9 -48h-258zM252 34q44 0 81 15t63.5 42.5t41 66t14.5 85.5
q0 40 -12.5 71.5t-34.5 53.5t-51 34t-62 12q-43 0 -79 -16.5t-62.5 -45t-41 -68t-14.5 -84.5q0 -36 12.5 -66.5t33.5 -52.5t49.5 -34.5t61.5 -12.5z" />
    <glyph glyph-name="epsilon" unicode="&#x3b5;" horiz-adv-x="458" 
d="M226 237q-29 -2 -56 -7t-48 -16.5t-34 -30.5t-13 -48q0 -44 31 -71.5t82 -27.5q25 0 48 5t40.5 17t28 31.5t10.5 47.5q0 8 -0.5 13t-2.5 10l53 16q3 -8 5 -17.5t2 -20.5q0 -38 -16 -66.5t-42 -47.5t-59.5 -28.5t-68.5 -9.5q-41 0 -72.5 11t-53.5 30t-33 44.5t-11 53.5
q0 29 11.5 52.5t29.5 41t40 29.5t43 18q-29 14 -49.5 39.5t-20.5 61.5t16 62.5t41.5 44.5t58 27t65.5 9q37 0 65.5 -9.5t47.5 -25t28.5 -35.5t9.5 -41q0 -18 -4.5 -31.5t-13.5 -27.5l-42 18q4 7 6 14.5t2 18.5q0 30 -28 49.5t-79 19.5t-84 -24.5t-33 -67.5q0 -34 26 -57.5
t84 -23.5z" />
    <glyph glyph-name="zeta" unicode="&#x3b6;" horiz-adv-x="455" 
d="M291 -68q8 7 14.5 15.5t6.5 21.5q0 31 -41 31q-50 0 -92.5 11t-74 36t-49 65t-17.5 99q0 61 27.5 125.5t73 123.5t105 109t124.5 83h-237l9 48h325l-9 -48q-60 -29 -123 -74t-114.5 -102t-84 -124t-32.5 -139q0 -79 42 -118t117 -41q55 -1 82 -17.5t27 -52.5
q0 -30 -11 -47.5t-33 -37.5z" />
    <glyph glyph-name="eta" unicode="&#x3b7;" horiz-adv-x="558" 
d="M383 -204h-60l104 534q3 18 3 35q0 47 -29.5 71t-77.5 24q-31 0 -61.5 -13.5t-56 -37.5t-44.5 -56.5t-26 -71.5l-55 -281h-60l96 496h60l-15 -77q36 49 82 70t100 21q30 0 56.5 -8t47 -25t32 -43.5t11.5 -62.5q0 -11 -1 -21t-3 -24z" />
    <glyph glyph-name="theta" unicode="&#x3b8;" 
d="M580 444q0 -88 -22.5 -170.5t-63.5 -146.5t-99 -102.5t-130 -38.5q-100 0 -160 66.5t-60 198.5q0 53 9 108t27 106.5t45 97t62 79t78.5 53t95.5 19.5q48 0 88.5 -16t69 -49.5t44.5 -84.5t16 -120zM264 36q53 0 94.5 25.5t71.5 66.5t50 92.5t30 104.5h-401
q-3 -20 -3.5 -38.5t-0.5 -35.5q0 -106 41 -160.5t118 -54.5zM360 664q-54 0 -94.5 -26t-70 -67.5t-49 -93t-29.5 -102.5h400q2 19 2.5 32.5t0.5 27.5q0 109 -43.5 169t-116.5 60z" />
    <glyph glyph-name="iota" unicode="&#x3b9;" horiz-adv-x="265" 
d="M113 496h60l-75 -384q-3 -17 -3 -28q0 -22 15 -35t40 -13q8 0 15 1t16 4l-3 -48q-22 -7 -46 -7q-44 0 -70.5 22t-26.5 69q0 19 4 36z" />
    <glyph glyph-name="kappa" unicode="&#x3ba;" horiz-adv-x="482" 
d="M174 496l-45 -233l246 233h81l-215 -202l147 -294h-68l-123 250l-87 -79l-33 -171h-60l97 496h60z" />
    <glyph glyph-name="lambda" unicode="&#x3bb;" horiz-adv-x="478" 
d="M133 697q11 5 23 7.5t29 2.5q42 0 64 -20t33 -71l133 -616h-64l-86 415l-242 -415h-73l298 498l-22 102q-6 29 -19 41t-34 12q-11 0 -20.5 -2t-19.5 -6v52z" />
    <glyph glyph-name="uni03BC" unicode="&#x3bc;" horiz-adv-x="556" 
d="M115 496h60l-61 -314q-3 -16 -3.5 -24t-0.5 -17q0 -47 28.5 -76t81.5 -29q29 0 58.5 13.5t55 39.5t45 63t28.5 84l51 260h60l-96 -496h-60l15 77q-27 -44 -72.5 -67.5t-99.5 -23.5q-39 0 -71 12.5t-52 35.5q-2 -16 -4 -30l-4 -24t-3 -17l-33 -167h-60z" />
    <glyph glyph-name="nu" unicode="&#x3bd;" horiz-adv-x="474" 
d="M211 0h-60l-102 496h63l81 -423l241 423h64z" />
    <glyph glyph-name="xi" unicode="&#x3be;" horiz-adv-x="494" 
d="M319 350q-43 0 -83 -9.5t-71 -29t-49.5 -50t-18.5 -71.5q0 -63 45 -99.5t133 -36.5q57 0 84.5 -18.5t27.5 -49.5q0 -29 -12 -47t-35 -36l-35 32q8 7 13 14.5t5 18.5q0 18 -14 25t-39 7q-50 0 -92.5 12t-73.5 35.5t-49 57t-18 76.5q0 41 15 75t40 60t57.5 43t67.5 25
q-41 20 -65.5 59t-24.5 88q0 39 14.5 72t42 58t66 39t86.5 14q36 0 67.5 -8t55 -23.5t36.5 -39t13 -53.5q0 -16 -3.5 -30.5t-11.5 -32.5l-52 8q4 7 6.5 18.5t2.5 19.5q0 89 -118 89q-33 0 -60.5 -9.5t-47.5 -26.5t-31.5 -40.5t-11.5 -51.5q0 -27 9.5 -51t28 -42t46.5 -28.5
t64 -10.5l-10 -52v0z" />
    <glyph glyph-name="omicron" unicode="&#x3bf;" horiz-adv-x="592" 
d="M546 291q0 -66 -21 -121.5t-58.5 -96.5t-89.5 -64t-113 -23q-44 0 -85 14t-73.5 42t-52 70.5t-19.5 99.5q0 62 21 116t58.5 94.5t90.5 64t117 23.5q44 0 85 -13.5t72 -40.5t49.5 -68.5t18.5 -96.5zM269 36q44 0 83.5 19t69 52t47 77.5t17.5 96.5q0 83 -47.5 131
t-126.5 48q-49 0 -89 -21.5t-68.5 -56.5t-44.5 -79t-16 -89q0 -39 12.5 -72t36 -56.5t55.5 -36.5t71 -13z" />
    <glyph glyph-name="pi" unicode="&#x3c0;" horiz-adv-x="632" 
d="M629 496l-8 -42h-103l-68 -348q-1 -5 -1.5 -10t-0.5 -10q0 -23 14.5 -36.5t40.5 -13.5q15 0 33 5l-3 -48q-12 -4 -23 -5.5t-31 -1.5q-37 0 -64 22.5t-27 68.5q0 8 1 17t3 18l66 342h-234l-88 -454h-60l88 454h-105l8 42h562z" />
    <glyph glyph-name="rho" unicode="&#x3c1;" horiz-adv-x="599" 
d="M68 247q26 130 97 196.5t173 66.5q46 0 85 -14t67.5 -42t44 -70t15.5 -97q0 -59 -19 -113.5t-54.5 -96t-86.5 -66.5t-114 -25q-35 0 -64 9.5t-51.5 25t-38.5 35t-24 39.5l-58 -299h-60zM337 460q-48 0 -87.5 -21t-67.5 -56.5t-43.5 -82.5t-15.5 -98q0 -35 11.5 -65.5
t32 -53t49 -35t63.5 -12.5q46 0 84 20.5t65.5 54.5t42.5 78t15 91q0 88 -40 134t-109 46z" />
    <glyph glyph-name="sigma1" unicode="&#x3c2;" horiz-adv-x="540" 
d="M262 -99q19 9 29.5 20.5t10.5 28.5q0 13 -11.5 21t-46.5 15q-95 18 -151.5 78t-56.5 159q0 58 21 110t59.5 91.5t91.5 62.5t116 23q81 0 129 -39t65 -96l-45 -25q-23 60 -61 84t-93 24q-48 0 -89 -18t-70.5 -49.5t-46.5 -74.5t-17 -94q0 -41 12 -72t33.5 -53.5t51 -36.5
t65.5 -21q54 -11 78 -29.5t24 -53.5q0 -33 -18 -56t-50 -40z" />
    <glyph glyph-name="sigma" unicode="&#x3c3;" horiz-adv-x="627" 
d="M546 291q0 -66 -21 -121.5t-58.5 -96.5t-89.5 -64t-113 -23q-44 0 -85 14t-73.5 42t-52 70.5t-19.5 99.5q0 62 20.5 116t58 94.5t91.5 64t121 23.5h313l-9 -50h-172q40 -28 64.5 -71.5t24.5 -97.5zM269 36q44 0 83.5 19t69 52t47 77.5t17.5 96.5q0 83 -47 131t-127 48
q-51 0 -91.5 -21.5t-68.5 -56.5t-43 -79t-15 -89q0 -39 12.5 -72t36 -56.5t55.5 -36.5t71 -13z" />
    <glyph glyph-name="tau" unicode="&#x3c4;" horiz-adv-x="407" 
d="M56 496h357l-8 -42h-151l-66 -338q-3 -15 -3 -27q0 -26 13.5 -39.5t43.5 -13.5q13 0 31 6l-2 -48q-12 -5 -23 -6.5t-31 -1.5q-42 0 -67 24.5t-25 68.5q0 19 3 37l66 338h-146z" />
    <glyph glyph-name="upsilon" unicode="&#x3c5;" horiz-adv-x="546" 
d="M117 496h60l-60 -309q-5 -25 -5 -43q0 -47 29.5 -77.5t84.5 -30.5q66 0 105.5 33.5t52.5 97.5l64 329h60l-63 -325q-10 -51 -31 -86.5t-51 -57.5t-66.5 -31.5t-78.5 -9.5q-33 0 -63 10t-52.5 29.5t-35.5 48t-13 66.5q0 18 1.5 33t4.5 30z" />
    <glyph glyph-name="phi" unicode="&#x3c6;" horiz-adv-x="682" 
d="M277 -204h-60l40 204h-11q-44 0 -83 13.5t-68.5 39.5t-46.5 64.5t-17 88.5q0 61 21 114t61 92t98.5 61.5t132.5 22.5h69q50 0 91 -14t70 -41.5t45 -67.5t16 -91q0 -60 -19.5 -111.5t-58.5 -89.5t-96.5 -59.5t-133.5 -21.5h-10zM323 442q-51 0 -93.5 -17.5t-73 -48
t-48 -72t-17.5 -89.5q0 -38 11.5 -68t32 -50.5t48 -31.5t60.5 -11h25l75 388h-20zM339 54q60 0 104 16.5t73.5 46t44 70.5t14.5 89q0 87 -43.5 126.5t-118.5 39.5h-10l-75 -388h11z" />
    <glyph glyph-name="chi" unicode="&#x3c7;" horiz-adv-x="509" 
d="M206 175l-59 245q-4 15 -12.5 21t-19.5 6t-19 -3.5t-19 -10.5l-21 45q13 11 32.5 18t34.5 7q32 0 51.5 -15.5t27.5 -50.5l48 -198l173 257h68l-223 -328l71 -280q5 -22 13.5 -33.5t28.5 -11.5q8 0 15.5 2t16.5 7l15 -47q-28 -16 -61 -16q-38 0 -56 23t-28 62l-58 233
l-213 -311h-69z" />
    <glyph glyph-name="psi" unicode="&#x3c8;" horiz-adv-x="638" 
d="M248 -204h-58l37 190q-39 0 -71.5 12t-56 34.5t-36.5 53t-13 68.5q0 26 6 58l56 284h58l-56 -287q-3 -14 -3.5 -25.5t-0.5 -22.5q0 -56 29.5 -90.5t97.5 -34.5l90 460h58l-90 -460q82 0 128 41.5t59 109.5l60 309h58l-63 -320q-17 -89 -79 -139.5t-173 -50.5z" />
    <glyph glyph-name="omega" unicode="&#x3c9;" horiz-adv-x="772" 
d="M664 510q18 -38 28.5 -89t10.5 -121q0 -48 -12 -103t-38.5 -102t-70 -78t-106.5 -31q-29 0 -51 9.5t-37 26.5t-23.5 39.5t-10.5 48.5q-21 -64 -63 -94t-95 -30q-37 0 -64.5 14.5t-46 40t-28 60.5t-9.5 76q0 50 13 98t33.5 91.5t45.5 80t49 63.5l45 -29q-24 -29 -46.5 -63
t-40 -72.5t-28.5 -79.5t-11 -84q0 -72 25 -109t74 -37q24 0 45 11t37.5 30.5t28.5 45t18 55.5l31 158h58l-26 -133q-6 -32 -6 -59q0 -51 23.5 -79.5t68.5 -28.5q42 0 72 25.5t49 64.5t28 85.5t9 88.5q0 31 -3 56.5t-7.5 48t-10.5 43.5t-13 42z" />
    <glyph glyph-name="iotadieresis" unicode="&#x3ca;" horiz-adv-x="265" 
d="M113 496h60l-75 -384q-3 -17 -3 -28q0 -22 15 -35t40 -13q8 0 15 1t16 4l-3 -48q-22 -7 -46 -7q-44 0 -70.5 22t-26.5 69q0 19 4 36zM210 670h80l-15 -76h-80zM62 670h80l-15 -76h-80z" />
    <glyph glyph-name="upsilondieresis" unicode="&#x3cb;" horiz-adv-x="546" 
d="M117 496h60l-60 -309q-5 -25 -5 -43q0 -47 29.5 -77.5t84.5 -30.5q66 0 105.5 33.5t52.5 97.5l64 329h60l-63 -325q-10 -51 -31 -86.5t-51 -57.5t-66.5 -31.5t-78.5 -9.5q-33 0 -63 10t-52.5 29.5t-35.5 48t-13 66.5q0 18 1.5 33t4.5 30zM376 670h80l-15 -76h-80z
M228 670h80l-15 -76h-80z" />
    <glyph glyph-name="omicrontonos" unicode="&#x3cc;" horiz-adv-x="592" 
d="M372 700h86l-104 -138h-53zM546 291q0 -66 -21 -121.5t-58.5 -96.5t-89.5 -64t-113 -23q-44 0 -85 14t-73.5 42t-52 70.5t-19.5 99.5q0 62 21 116t58.5 94.5t90.5 64t117 23.5q44 0 85 -13.5t72 -40.5t49.5 -68.5t18.5 -96.5zM269 36q44 0 83.5 19t69 52t47 77.5
t17.5 96.5q0 83 -47.5 131t-126.5 48q-49 0 -89 -21.5t-68.5 -56.5t-44.5 -79t-16 -89q0 -39 12.5 -72t36 -56.5t55.5 -36.5t71 -13z" />
    <glyph glyph-name="upsilontonos" unicode="&#x3cd;" horiz-adv-x="546" 
d="M117 496h60l-60 -309q-5 -25 -5 -43q0 -47 29.5 -77.5t84.5 -30.5q66 0 105.5 33.5t52.5 97.5l64 329h60l-63 -325q-10 -51 -31 -86.5t-51 -57.5t-66.5 -31.5t-78.5 -9.5q-33 0 -63 10t-52.5 29.5t-35.5 48t-13 66.5q0 18 1.5 33t4.5 30zM354 700h86l-104 -138h-53z" />
    <glyph glyph-name="omegatonos" unicode="&#x3ce;" horiz-adv-x="772" 
d="M664 510q18 -38 28.5 -89t10.5 -121q0 -48 -12 -103t-38.5 -102t-70 -78t-106.5 -31q-29 0 -51 9.5t-37 26.5t-23.5 39.5t-10.5 48.5q-21 -64 -63 -94t-95 -30q-37 0 -64.5 14.5t-46 40t-28 60.5t-9.5 76q0 50 13 98t33.5 91.5t45.5 80t49 63.5l45 -29q-24 -29 -46.5 -63
t-40 -72.5t-28.5 -79.5t-11 -84q0 -72 25 -109t74 -37q24 0 45 11t37.5 30.5t28.5 45t18 55.5l31 158h58l-26 -133q-6 -32 -6 -59q0 -51 23.5 -79.5t68.5 -28.5q42 0 72 25.5t49 64.5t28 85.5t9 88.5q0 31 -3 56.5t-7.5 48t-10.5 43.5t-13 42zM471 700h86l-104 -138h-53z
" />
    <glyph glyph-name="uni0400" unicode="&#x400;" horiz-adv-x="573" 
d="M166 700h410l-11 -52h-350l-50 -260h322l-10 -52h-322l-55 -284h353l-11 -52h-413zM410 766h-52l-72 138h82z" />
    <glyph glyph-name="uni0401" unicode="&#x401;" horiz-adv-x="573" 
d="M166 700h410l-11 -52h-350l-50 -260h322l-10 -52h-322l-55 -284h353l-11 -52h-413zM438 874h80l-15 -76h-80zM290 874h80l-15 -76h-80z" />
    <glyph glyph-name="uni0402" unicode="&#x402;" horiz-adv-x="738" 
d="M98 700h508l-10 -52h-250l-48 -245h169q91 0 146 -42.5t55 -127.5q0 -57 -20 -101.5t-54.5 -75t-82 -47t-102.5 -16.5q-29 0 -52.5 4.5t-44.5 10.5l16 54q20 -8 38.5 -12.5t48.5 -4.5q42 0 77.5 13t61 37t40 57t14.5 73q0 34 -12 58t-32.5 39t-48.5 22t-61 7h-166
l-68 -351h-60l126 648h-198z" />
    <glyph glyph-name="uni0403" unicode="&#x403;" horiz-adv-x="540" 
d="M166 700h426l-11 -52h-366l-126 -648h-60zM439 904h89l-124 -138h-52z" />
    <glyph glyph-name="uni0404" unicode="&#x404;" horiz-adv-x="723" 
d="M640 181q-49 -88 -122 -141.5t-172 -53.5q-64 0 -116.5 21.5t-90.5 62t-59 98t-21 128.5q0 83 27.5 159t78.5 133.5t122.5 91.5t159.5 34q96 0 162.5 -45t93.5 -139l-51 -26q-24 80 -75.5 119t-140.5 39q-63 0 -115 -24t-91.5 -63t-65.5 -89t-37 -102h402l-10 -54h-400
v-21q0 -70 18.5 -121t49.5 -84.5t72 -49.5t87 -16q79 0 142 44t112 125z" />
    <glyph glyph-name="uni0405" unicode="&#x405;" horiz-adv-x="640" 
d="M367 662q-33 0 -65 -8.5t-56.5 -26t-40 -42.5t-15.5 -58q0 -57 43.5 -89t130.5 -52q85 -19 134 -59.5t49 -112.5q0 -51 -18.5 -93t-52 -72t-80 -46.5t-102.5 -16.5q-60 0 -104 18t-74 48t-46.5 69t-21.5 81l58 29q3 -41 16 -76t36.5 -61t58 -41t80.5 -15q36 0 70.5 11
t61 32t42.5 51.5t16 68.5q0 32 -10.5 54t-31.5 37.5t-52.5 26.5t-73.5 22q-94 23 -141.5 66t-47.5 113q0 45 18.5 81t51.5 61t79 38.5t100 13.5q81 0 139 -41t81 -125l-51 -31q-20 72 -64.5 108.5t-116.5 36.5z" />
    <glyph glyph-name="uni0406" unicode="&#x406;" horiz-adv-x="236" 
d="M166 700h60l-137 -700h-60z" />
    <glyph glyph-name="uni0407" unicode="&#x407;" horiz-adv-x="236" 
d="M166 700h60l-137 -700h-60zM262 874h80l-15 -76h-80zM114 874h80l-15 -76h-80z" />
    <glyph glyph-name="uni0408" unicode="&#x408;" horiz-adv-x="520" 
d="M434 195q-21 -109 -80.5 -159t-153.5 -50q-36 0 -67.5 12t-55 33t-37 49.5t-13.5 61.5q0 11 1 22.5t4 25.5l59 -6q-4 -17 -4 -36q0 -25 10 -45.5t27 -34.5t39 -22t46 -8q63 0 106 38t58 115l99 509h60z" />
    <glyph glyph-name="uni0409" unicode="&#x409;" horiz-adv-x="1011" 
d="M5 55q10 -6 26 -6q28 0 44.5 17.5t25.5 46.5l177 587h334l-59 -302h170q111 0 162 -48t51 -131q0 -52 -21 -93t-57.5 -69t-86 -42.5t-106.5 -14.5h-250l127 648h-222l-160 -533q-20 -68 -50.5 -95t-79.5 -27q-14 0 -23.5 2t-19.5 5zM486 52h165q49 0 90.5 10t71.5 31
t46.5 53t16.5 76q0 34 -12.5 58t-35 38.5t-52.5 21t-64 6.5h-169z" />
    <glyph glyph-name="uni040A" unicode="&#x40a;" horiz-adv-x="1017" 
d="M170 700h60l-62 -316h333l62 316h60l-62 -316h169q106 0 159 -46t53 -127q0 -51 -21.5 -90.5t-58 -66t-84.5 -40.5t-102 -14h-250l65 332h-333l-65 -332h-60zM497 52h168q46 0 86 9t69 28.5t45.5 50.5t16.5 75q0 34 -12.5 56.5t-35 36t-52.5 19t-64 5.5h-167z" />
    <glyph glyph-name="uni040B" unicode="&#x40b;" horiz-adv-x="688" 
d="M549 0h-60l59 290q2 8 3.5 18.5t1.5 18.5q0 42 -25.5 66.5t-73.5 24.5q-31 0 -61 -14t-55 -37.5t-42.5 -53.5t-23.5 -62l-49 -251h-60l126 648h-199l11 52h502l-11 -52h-243l-53 -275q35 44 80 69.5t99 25.5q60 0 99 -30.5t39 -85.5q0 -30 -7 -62z" />
    <glyph glyph-name="uni040C" unicode="&#x40c;" horiz-adv-x="593" 
d="M166 700h60l-65 -339q11 10 25.5 23.5t27.5 24.5q15 13 31 27l303 264h78l-290 -259l176 -441h-68l-158 399l-144 -125l-53 -274h-60zM440 904h89l-124 -138h-52z" />
    <glyph glyph-name="uni040D" unicode="&#x40d;" horiz-adv-x="684" 
d="M462 766h-52l-72 138h82zM537 0h-58l119 612q-3 -6 -9.5 -15t-13.5 -18q-8 -11 -17 -22l-463 -557h-66l137 700h58l-119 -612q3 5 9.5 14.5t13.5 18.5q8 11 17 22l463 557h66z" />
    <glyph glyph-name="uni040E" unicode="&#x40e;" horiz-adv-x="497" 
d="M220 236l-128 464h64l106 -396l234 396h69l-387 -646q-21 -35 -46 -51.5t-50 -16.5q-18 0 -30.5 3t-21.5 8l24 53q11 -8 28 -8q10 0 21.5 6t20.5 22zM444 873q-8 -53 -37 -76t-76 -23q-39 0 -61 24.5t-22 55.5q0 11 2 19h57q-1 -5 -1 -7v-4q0 -34 32 -34q20 0 32.5 12.5
t16.5 32.5h57z" />
    <glyph glyph-name="uni040F" unicode="&#x40f;" horiz-adv-x="654" 
d="M169 700h60l-126 -648h352l126 648h60l-136 -700h-206l-23 -116h-60l23 116h-206z" />
    <glyph glyph-name="uni0410" unicode="&#x410;" horiz-adv-x="636" 
d="M363 700h67l141 -700h-60l-43 217h-326l-128 -217h-66zM393 596q-4 19 -5 28.5t-2 13.5q-2 -5 -7 -14t-16 -28l-193 -329h288z" />
    <glyph glyph-name="uni0411" unicode="&#x411;" horiz-adv-x="625" 
d="M100 52h165q49 0 90.5 10t71.5 31t46.5 53t16.5 76q0 34 -12.5 58t-35 38.5t-52.5 21t-64 6.5h-169zM337 398q111 0 162 -48t51 -131q0 -52 -21 -93t-58.5 -69t-88.5 -42.5t-111 -14.5h-242l137 700h396l-11 -52h-336l-48 -250h170z" />
    <glyph glyph-name="uni0412" unicode="&#x412;" horiz-adv-x="625" 
d="M166 700h235q91 0 139.5 -41.5t48.5 -110.5q0 -31 -11.5 -59.5t-32.5 -51.5t-49.5 -39.5t-62.5 -24.5q20 -7 41 -19.5t38 -32t27.5 -45t10.5 -57.5q0 -52 -21 -93t-57.5 -69t-86 -42.5t-106.5 -14.5h-250zM100 52h165q49 0 90.5 10t71.5 31t46.5 53t16.5 76
q0 34 -12.5 58t-35 38.5t-52.5 21t-64 6.5h-169zM167 398h177q35 0 67.5 9t58 26.5t41 44t15.5 61.5q0 62 -39 85.5t-100 23.5h-172z" />
    <glyph glyph-name="uni0413" unicode="&#x413;" horiz-adv-x="537" 
d="M166 700h426l-11 -52h-366l-126 -648h-60z" />
    <glyph glyph-name="uni0414" unicode="&#x414;" horiz-adv-x="641" 
d="M-3 -116h-60l33 168h52q28 40 49.5 75.5t39 72.5t32.5 78.5t31 93.5l102 328h355l-126 -648h44l-33 -168h-60l23 116h-460zM561 648h-241l-90 -289q-17 -55 -32 -97t-31 -77.5t-34 -67t-41 -65.5h353z" />
    <glyph glyph-name="uni0415" unicode="&#x415;" horiz-adv-x="573" 
d="M166 700h410l-11 -52h-350l-50 -260h322l-10 -52h-322l-55 -284h353l-11 -52h-413z" />
    <glyph glyph-name="uni0416" unicode="&#x416;" horiz-adv-x="939" 
d="M509 359q11 10 26 23.5t29 25.5q16 14 31 28l294 264h83l-288 -260l184 -440h-64l-167 398l-145 -126l-53 -272h-60l53 272l-93 122l-297 -394h-74l336 443l-184 257h71l200 -270l20 -30q8 -13 17.5 -27.5t17.5 -26.5l70 354h60z" />
    <glyph glyph-name="uni0417" unicode="&#x417;" horiz-adv-x="555" 
d="M126 221q-6 -20 -6 -47t9.5 -52t28.5 -43.5t47 -29.5t65 -11q38 0 68.5 13t52 36t33 54.5t11.5 68.5t-13 63.5t-36.5 43t-55.5 24t-69 7.5l11 56q84 0 132.5 37t48.5 108q0 23 -7 43.5t-22 36t-38.5 24.5t-56.5 9q-31 0 -57 -10.5t-45 -29.5t-30 -44t-11 -53v-10t1 -11
l-59 -9q-1 5 -1.5 11.5t-0.5 14.5q0 39 14.5 74.5t41.5 61.5t66 41.5t87 15.5q44 0 77 -12t55 -33.5t33 -51t11 -64.5q0 -57 -34.5 -105t-104.5 -69q24 -8 46 -21t39 -32.5t27.5 -46t10.5 -61.5q0 -48 -15.5 -90.5t-44.5 -74t-72 -49.5t-98 -18q-48 0 -86 14.5t-64.5 40
t-40.5 59.5t-14 73q0 16 3.5 32.5t9.5 28.5z" />
    <glyph glyph-name="uni0418" unicode="&#x418;" horiz-adv-x="684" 
d="M537 0h-58l119 612q-3 -6 -9.5 -15t-13.5 -18q-8 -11 -17 -22l-463 -557h-66l137 700h58l-119 -612q3 5 9.5 14.5t13.5 18.5q8 11 17 22l463 557h66z" />
    <glyph glyph-name="uni0419" unicode="&#x419;" horiz-adv-x="684" 
d="M537 873q-8 -53 -37 -76t-76 -23q-39 0 -61 24.5t-22 55.5q0 11 2 19h57q-1 -5 -1 -7v-4q0 -34 32 -34q20 0 32.5 12.5t16.5 32.5h57zM537 0h-58l119 612q-3 -6 -9.5 -15t-13.5 -18q-8 -11 -17 -22l-463 -557h-66l137 700h58l-119 -612q3 5 9.5 14.5t13.5 18.5
q8 11 17 22l463 557h66z" />
    <glyph glyph-name="uni041A" unicode="&#x41a;" horiz-adv-x="593" 
d="M166 700h60l-65 -339q11 10 25.5 23.5t27.5 24.5q15 13 31 27l303 264h78l-290 -259l176 -441h-68l-158 399l-144 -125l-53 -274h-60z" />
    <glyph glyph-name="uni041B" unicode="&#x41b;" horiz-adv-x="645" 
d="M5 54q10 -6 26 -6q28 0 44.5 18t25.5 47l177 587h356l-136 -700h-60l126 648h-244l-160 -533q-20 -68 -50.5 -95.5t-79.5 -27.5q-14 0 -23.5 2t-19.5 5z" />
    <glyph glyph-name="uni041C" unicode="&#x41c;" horiz-adv-x="844" 
d="M169 700h66l137 -648l388 648h71l-137 -700h-58l114 586q-4 -7 -12.5 -22t-17.5 -30q-11 -18 -24 -38l-298 -496h-69l-106 498q-3 23 -7 42q-3 17 -6 32.5t-4 22.5l-116 -595h-58z" />
    <glyph glyph-name="uni041D" unicode="&#x41d;" horiz-adv-x="676" 
d="M170 700h60l-62 -317h371l62 317h60l-137 -700h-60l65 331h-371l-65 -331h-60z" />
    <glyph glyph-name="uni041E" unicode="&#x41e;" horiz-adv-x="770" 
d="M728 404q0 -78 -24 -153t-71 -134t-118 -95t-164 -36q-64 0 -118.5 21t-94.5 61t-62.5 97.5t-22.5 129.5q0 78 26.5 153t76 134.5t120 95.5t158.5 36q67 0 121.5 -20.5t93 -60t59 -97.5t20.5 -132zM352 38q74 0 132.5 30.5t99.5 81t62.5 115.5t21.5 134q0 133 -66 198
t-178 65q-69 0 -126.5 -31.5t-98.5 -83t-63.5 -116.5t-22.5 -131q0 -62 19 -110.5t51 -82.5t75.5 -51.5t93.5 -17.5z" />
    <glyph glyph-name="uni041F" unicode="&#x41f;" horiz-adv-x="654" 
d="M172 700h466l-137 -700h-60l126 648h-346l-126 -648h-60z" />
    <glyph glyph-name="uni0420" unicode="&#x420;" horiz-adv-x="661" 
d="M166 700h255q108 0 162 -51t54 -142q0 -56 -20 -99.5t-56 -74.5t-87 -47t-113 -16h-219l-53 -270h-60zM152 322h211q103 0 158.5 50t55.5 136q0 69 -41 104.5t-120 35.5h-201z" />
    <glyph glyph-name="uni0421" unicode="&#x421;" horiz-adv-x="736" 
d="M649 170q-54 -88 -127.5 -136t-178.5 -48q-68 0 -121 23t-89 64.5t-55 98t-19 124.5q0 80 28.5 155.5t81 134t126.5 93.5t164 35q99 0 164 -49.5t92 -129.5l-48 -29q-33 86 -88.5 121t-132.5 35q-72 0 -132 -31.5t-103.5 -82.5t-67.5 -116.5t-24 -133.5q0 -57 16.5 -105
t47 -82.5t73 -53.5t93.5 -19q80 0 144.5 41.5t113.5 119.5z" />
    <glyph glyph-name="uni0422" unicode="&#x422;" horiz-adv-x="534" 
d="M100 700h492l-11 -52h-216l-126 -648h-60l126 648h-216z" />
    <glyph glyph-name="uni0423" unicode="&#x423;" horiz-adv-x="497" 
d="M220 236l-128 464h64l106 -396l234 396h69l-387 -646q-21 -35 -46 -51.5t-50 -16.5q-18 0 -30.5 3t-21.5 8l24 53q11 -8 28 -8q10 0 21.5 6t20.5 22z" />
    <glyph glyph-name="uni0424" unicode="&#x424;" horiz-adv-x="752" 
d="M343 0h-60l17 84h-9q-52 0 -95 15.5t-73.5 44.5t-47.5 70.5t-17 94.5q0 67 23.5 123.5t67 97t105 63.5t137.5 23h12l17 84h60l-17 -84h8q51 0 93.5 -15t73.5 -44t48.5 -72t17.5 -100q0 -71 -24.5 -127t-69 -94.5t-106 -59t-135.5 -20.5h-9zM370 138h13q65 0 113.5 19
t81 52.5t49 78t16.5 95.5q0 45 -13.5 78.5t-38 56t-58 33.5t-72.5 11h-8zM393 562h-15q-60 0 -108 -19t-81.5 -52.5t-51.5 -78.5t-18 -97q0 -38 12 -70.5t34.5 -56t56 -37t75.5 -13.5h13z" />
    <glyph glyph-name="uni0425" unicode="&#x425;" horiz-adv-x="550" 
d="M302 433l212 267h76l-263 -321l159 -379h-64l-136 331l-259 -331h-75l309 388l-139 312h66z" />
    <glyph glyph-name="uni0426" unicode="&#x426;" horiz-adv-x="655" 
d="M167 700h60l-126 -648h352l126 648h60l-126 -648h45l-33 -168h-60l23 116h-457z" />
    <glyph glyph-name="uni0427" unicode="&#x427;" horiz-adv-x="603" 
d="M533 700h60l-137 -700h-60l66 338q-31 -46 -78.5 -74t-110.5 -28q-74 0 -121 43t-47 131q0 37 8 77l42 213h60l-45 -229q-3 -17 -4 -30t-1 -25q0 -60 30.5 -94t93.5 -34q36 0 69 14.5t59.5 38t44.5 54t24 62.5z" />
    <glyph glyph-name="uni0428" unicode="&#x428;" horiz-adv-x="826" 
d="M166 700h58l-126 -648h237l126 648h60l-126 -648h235l126 648h60l-137 -700h-650z" />
    <glyph glyph-name="uni0429" unicode="&#x429;" horiz-adv-x="838" 
d="M166 700h58l-126 -648h237l126 648h60l-126 -648h235l126 648h60l-127 -648h45l-33 -168h-60l23 116h-635z" />
    <glyph glyph-name="uni042A" unicode="&#x42a;" horiz-adv-x="689" 
d="M228 398h170q111 0 162 -48t51 -131q0 -52 -21 -93t-58.5 -69t-88.5 -42.5t-111 -14.5h-242l126 648h-123l11 52h183zM161 52h165q49 0 90.5 10t71.5 31t46.5 53t16.5 76q0 34 -12.5 58t-35 38.5t-52.5 21t-64 6.5h-169z" />
    <glyph glyph-name="uni042B" unicode="&#x42b;" horiz-adv-x="832" 
d="M100 52h165q49 0 90.5 10t71.5 31t46.5 53t16.5 76q0 34 -12.5 58t-35 38.5t-52.5 21t-64 6.5h-169zM225 700l-58 -302h170q111 0 162 -48t51 -131q0 -52 -21 -93t-58.5 -69t-88.5 -42.5t-111 -14.5h-242l137 700h59zM762 700h60l-137 -700h-60z" />
    <glyph glyph-name="uni042C" unicode="&#x42c;" horiz-adv-x="625" 
d="M100 52h165q49 0 90.5 10t71.5 31t46.5 53t16.5 76q0 34 -12.5 58t-35 38.5t-52.5 21t-64 6.5h-169zM225 700l-58 -302h170q111 0 162 -48t51 -131q0 -52 -21 -93t-58.5 -69t-88.5 -42.5t-111 -14.5h-242l137 700h59z" />
    <glyph glyph-name="uni042D" unicode="&#x42d;" horiz-adv-x="708" 
d="M205 384h397v18q0 63 -17 111.5t-47 81.5t-71.5 50t-90.5 17q-63 0 -124 -36t-105 -115l-48 30q25 46 58 78.5t70 53.5t76 31t76 10q66 0 118.5 -21t89 -61t56.5 -97.5t20 -130.5q0 -84 -23 -160t-68 -133.5t-112 -91t-155 -33.5q-51 0 -93.5 16.5t-75 42.5t-55 58.5
t-32.5 65.5l50 31q25 -75 81 -118.5t128 -43.5q67 0 117.5 23t86 62.5t56.5 93t29 113.5h-402z" />
    <glyph glyph-name="uni042E" unicode="&#x42e;" horiz-adv-x="944" 
d="M902 404q0 -78 -24 -153t-71 -134t-118 -95t-164 -36q-64 0 -118.5 21t-94.5 61t-62.5 97.5t-22.5 129.5v14t1 15h-76l-63 -324h-60l137 700h60l-63 -324h71q12 67 43 128t79 107.5t111.5 74.5t140.5 28q67 0 121.5 -20.5t93 -60t59 -97.5t20.5 -132zM526 38
q74 0 132.5 30.5t99.5 81t62.5 115.5t21.5 134q0 133 -66 198t-178 65q-69 0 -126.5 -31.5t-98.5 -83t-63.5 -116.5t-22.5 -131q0 -62 19 -110.5t51 -82.5t75.5 -51.5t93.5 -17.5z" />
    <glyph glyph-name="uni042F" unicode="&#x42f;" horiz-adv-x="617" 
d="M59 0h-69l241 316q-30 6 -56.5 20t-46 35.5t-30.5 50.5t-11 64q0 46 17.5 85.5t50.5 68t80 44.5t106 16h266l-137 -700h-62l61 312h-170zM534 648h-196q-38 0 -72.5 -10t-60.5 -30.5t-42 -50t-16 -68.5q0 -61 41.5 -93t106.5 -32h184z" />
    <glyph glyph-name="uni0430" unicode="&#x430;" horiz-adv-x="596" 
d="M558 496l-97 -496h-60l16 81q-33 -51 -76.5 -73t-97.5 -22q-49 0 -87.5 17.5t-65 48.5t-40.5 73t-14 91q0 63 20.5 116.5t57 93t86.5 62t110 22.5t104.5 -27.5t64.5 -81.5l19 95h60zM250 36q46 0 84.5 20.5t66 56t42.5 82t15 98.5q0 76 -39 121.5t-111 45.5
q-47 0 -86 -19.5t-67 -52.5t-43.5 -77.5t-15.5 -95.5q0 -38 10.5 -71t30.5 -57t48.5 -37.5t64.5 -13.5z" />
    <glyph glyph-name="uni0431" unicode="&#x431;" horiz-adv-x="584" 
d="M513 665q-17 -8 -42 -12t-71 -6q-44 -2 -87 -21.5t-80 -55.5t-66.5 -89t-47.5 -122q15 28 38.5 51.5t52.5 40.5t61.5 26t64.5 9q89 0 142 -55t53 -156q0 -54 -20 -105.5t-55.5 -92.5t-85 -66t-108.5 -25q-49 0 -88.5 15.5t-68 48.5t-44 83.5t-15.5 119.5q0 87 29 167.5
t80 142.5t120.5 99.5t149.5 37.5q31 0 45.5 1.5t30.5 8.5zM318 436q-44 0 -82 -19.5t-66 -52t-44 -74t-16 -84.5q0 -38 11 -69t31.5 -53.5t49 -35t64.5 -12.5q43 0 80.5 18.5t65 50t43.5 74t16 90.5q0 78 -42 122.5t-111 44.5z" />
    <glyph glyph-name="uni0432" unicode="&#x432;" horiz-adv-x="501" 
d="M114 496h186q36 0 62 -9t42.5 -24t24.5 -35.5t8 -43.5q0 -48 -29 -79t-71 -46q35 -12 57.5 -36.5t22.5 -64.5q0 -36 -15.5 -65.5t-42.5 -50t-64 -31.5t-81 -11h-197zM132 282h138q22 0 42 6.5t35 18.5t23.5 29.5t8.5 40.5q0 32 -23.5 50.5t-61.5 18.5h-130zM87 50h152
q24 0 45.5 7.5t37.5 22t25.5 34t9.5 43.5q0 37 -23.5 57t-67.5 20h-143z" />
    <glyph glyph-name="uni0433" unicode="&#x433;" horiz-adv-x="404" 
d="M114 496h287l-10 -50h-227l-87 -446h-60z" />
    <glyph glyph-name="uni0434" unicode="&#x434;" horiz-adv-x="590" 
d="M23 -106h-54l29 156h45q26 39 51 83.5t39 93.5l77 269h318l-87 -446h38l-30 -156h-54l21 106h-372zM190 223q-8 -29 -16.5 -51t-18 -41.5t-20.5 -39t-26 -41.5h272l77 396h-205z" />
    <glyph glyph-name="uni0435" unicode="&#x435;" horiz-adv-x="569" 
d="M92 243q-2 -8 -2 -16.5v-16.5q0 -35 12.5 -66.5t35 -55.5t53.5 -38t69 -14q34 0 61.5 9t50 25.5t41.5 40.5t36 54l43 -28q-42 -78 -100.5 -114.5t-138.5 -36.5q-44 0 -84 14t-70.5 43.5t-48.5 74.5t-18 108q0 59 21.5 111t59.5 90.5t89.5 60.5t112.5 22q51 0 91 -15.5
t67 -42.5t41 -63.5t14 -78.5q0 -12 -1.5 -23t-3.5 -25l-4 -19h-427zM311 460q-36 0 -69.5 -11.5t-60.5 -33t-47 -52.5t-29 -70h363q2 11 2 16.5v13.5q0 30 -12 55t-33 43t-50 28.5t-64 10.5z" />
    <glyph glyph-name="uni0436" unicode="&#x436;" horiz-adv-x="734" 
d="M393 271l241 225h74l-210 -198l153 -298h-58l-138 259l-79 -74l-36 -185h-60l36 185l-46 69l-226 -254h-74l269 300l-133 196h70l155 -233l46 233h60z" />
    <glyph glyph-name="uni0437" unicode="&#x437;" horiz-adv-x="474" 
d="M214 287q28 0 51.5 5.5t41 17t27.5 29.5t10 44q0 34 -26 55.5t-70 21.5q-48 0 -79 -26t-31 -64v-7t1 -8l-49 -17q-2 6 -4 13t-2 19q0 30 12.5 55.5t35 44t53.5 29.5t69 11q74 0 111.5 -34.5t37.5 -84.5q0 -23 -8.5 -43.5t-22.5 -37t-32.5 -28t-38.5 -17.5q14 -5 28.5 -14
t26 -21.5t19 -30.5t7.5 -41q0 -40 -14.5 -71.5t-40 -54t-60 -34.5t-75.5 -12q-35 0 -64 10t-50 27t-33 41t-12 52q0 36 13 62l51 -17q-8 -19 -8 -36q0 -41 29 -64.5t77 -23.5q59 0 94 31t35 81q0 24 -9.5 41t-26 27.5t-38 15t-45.5 4.5z" />
    <glyph glyph-name="uni0438" unicode="&#x438;" horiz-adv-x="546" 
d="M94 87l340 409h73l-97 -496h-60l80 408l-340 -408h-73l97 496h60z" />
    <glyph glyph-name="uni0439" unicode="&#x439;" horiz-adv-x="546" 
d="M94 87l340 409h73l-97 -496h-60l80 408l-340 -408h-73l97 496h60zM429 669q-8 -53 -37 -76t-76 -23q-39 0 -61 24.5t-22 55.5q0 11 2 19h57q-1 -5 -1 -7v-4q0 -34 32 -34q20 0 32.5 12.5t16.5 32.5h57z" />
    <glyph glyph-name="uni043A" unicode="&#x43a;" horiz-adv-x="482" 
d="M174 496l-45 -233l246 233h81l-215 -202l147 -294h-68l-123 250l-87 -79l-33 -171h-60l97 496h60z" />
    <glyph glyph-name="uni043B" unicode="&#x43b;" horiz-adv-x="527" 
d="M393 0h-60l87 446h-215l-108 -376q-12 -41 -35 -59t-59 -18q-19 0 -36 7l14 50q12 -5 22 -5q27 0 38 36l121 415h327z" />
    <glyph glyph-name="uni043C" unicode="&#x43c;" horiz-adv-x="614" 
d="M218 0l-70 369l-72 -369h-60l97 496h64l82 -446l246 446h72l-97 -496h-60l72 367l-208 -367h-66z" />
    <glyph glyph-name="uni043D" unicode="&#x43d;" horiz-adv-x="536" 
d="M134 287h262l41 209h60l-97 -496h-60l46 237h-262l-46 -237h-60l97 496h60z" />
    <glyph glyph-name="uni043E" unicode="&#x43e;" horiz-adv-x="592" 
d="M546 291q0 -66 -21 -121.5t-58.5 -96.5t-89.5 -64t-113 -23q-44 0 -85 14t-73.5 42t-52 70.5t-19.5 99.5q0 62 21 116t58.5 94.5t90.5 64t117 23.5q44 0 85 -13.5t72 -40.5t49.5 -68.5t18.5 -96.5zM269 36q44 0 83.5 19t69 52t47 77.5t17.5 96.5q0 83 -47.5 131
t-126.5 48q-49 0 -89 -21.5t-68.5 -56.5t-44.5 -79t-16 -89q0 -39 12.5 -72t36 -56.5t55.5 -36.5t71 -13z" />
    <glyph glyph-name="uni043F" unicode="&#x43f;" horiz-adv-x="542" 
d="M403 0h-60l87 446h-263l-87 -446h-60l97 496h383z" />
    <glyph glyph-name="uni0440" unicode="&#x440;" horiz-adv-x="594" 
d="M116 496h60l-14 -75q12 19 30.5 35.5t42 28.5t50.5 18.5t56 6.5q43 0 80.5 -15t65 -44t43 -71.5t15.5 -96.5q0 -56 -19.5 -109t-56 -95t-89 -67.5t-118.5 -25.5q-31 0 -58 8.5t-48.5 22t-36.5 31.5t-23 37l-56 -289h-60zM327 460q-41 0 -79.5 -20t-67.5 -54.5t-46.5 -81
t-17.5 -100.5q0 -76 44 -122t117 -46q46 0 84 21t65.5 55.5t43 79.5t15.5 93q0 87 -43.5 131t-114.5 44z" />
    <glyph glyph-name="uni0441" unicode="&#x441;" horiz-adv-x="553" 
d="M495 132q-42 -75 -99.5 -110.5t-137.5 -35.5q-48 0 -88.5 16t-70 46t-45.5 73t-16 97t19 106t56 93.5t91 67t124 25.5q72 0 123.5 -36.5t74.5 -99.5l-46 -26q-24 58 -65 84t-98 26q-49 0 -88.5 -20t-68 -53t-44 -76.5t-15.5 -89.5q0 -44 12.5 -78t34.5 -57t51 -34.5
t62 -11.5q69 0 114 33.5t80 90.5z" />
    <glyph glyph-name="uni0442" unicode="&#x442;" horiz-adv-x="426" 
d="M70 496h362l-10 -50h-151l-87 -446h-60l87 446h-151z" />
    <glyph glyph-name="uni0443" unicode="&#x443;" horiz-adv-x="477" 
d="M-22 -149q18 -8 37 -8q24 0 39.5 11.5t32.5 41.5l65 111l-105 489h60l88 -418l245 418h68l-368 -617q-16 -27 -30.5 -44.5t-29.5 -27.5t-32.5 -14t-40.5 -4q-11 0 -24 2t-24 7z" />
    <glyph glyph-name="uni0444" unicode="&#x444;" horiz-adv-x="886" 
d="M658 460q-44 0 -81 -21t-64 -56t-42 -81.5t-15 -97.5q0 -39 10.5 -70t28.5 -53t42.5 -33.5t53.5 -11.5q43 0 78 20.5t60.5 55.5t39.5 81t14 96q0 89 -32.5 130t-92.5 41zM373 78q-57 -92 -161 -92q-39 0 -72 13.5t-57.5 40.5t-38 68t-13.5 95t18 109t52 99t83.5 71.5
t112.5 27.5q52 0 87.5 -24.5t55.5 -63.5l54 278h60l-54 -280q12 17 29.5 33.5t39.5 29t48.5 20t55.5 7.5q37 0 68.5 -14t54 -41.5t35 -68t12.5 -93.5q0 -64 -19.5 -120t-55.5 -97.5t-85.5 -65.5t-109.5 -24q-52 0 -88 28t-52 64l-54 -282h-60zM287 460q-44 0 -80 -21.5
t-61.5 -57.5t-40 -84t-14.5 -101q0 -76 33.5 -118t92.5 -42q49 0 86.5 24.5t63 63.5t38.5 86.5t13 94.5q0 33 -10 61.5t-27 49t-41.5 32.5t-52.5 12z" />
    <glyph glyph-name="uni0445" unicode="&#x445;" horiz-adv-x="422" 
d="M211 318l140 178h69l-185 -228l113 -268h-60l-91 222l-174 -222h-73l222 276l-101 220h64z" />
    <glyph glyph-name="uni0446" unicode="&#x446;" horiz-adv-x="558" 
d="M422 50h31l-30 -156h-56l21 106h-367l96 496h60l-87 -446h272l87 446h60z" />
    <glyph glyph-name="uni0447" unicode="&#x447;" horiz-adv-x="540" 
d="M113 496h60l-33 -167q-2 -12 -3 -21.5t-1 -23.5q0 -45 25.5 -71t77.5 -26q29 0 58 14.5t53.5 40t42.5 60t26 73.5l24 121h60l-97 -496h-60l47 240q-29 -47 -72.5 -75t-103.5 -28q-28 0 -53.5 8.5t-45 26.5t-31 45.5t-11.5 65.5q0 16 2 30t6 34z" />
    <glyph glyph-name="uni0448" unicode="&#x448;" horiz-adv-x="738" 
d="M113 496h60l-87 -446h204l87 446h60l-87 -446h204l87 446h60l-97 -496h-588z" />
    <glyph glyph-name="uni0449" unicode="&#x449;" horiz-adv-x="745" 
d="M113 496h60l-87 -446h204l87 446h60l-87 -446h204l87 446h60l-87 -446h31l-30 -156h-56l21 106h-564z" />
    <glyph glyph-name="uni044A" unicode="&#x44a;" horiz-adv-x="539" 
d="M311 282q70 0 109 -32.5t39 -91.5q0 -38 -15.5 -67.5t-42.5 -49.5t-64 -30.5t-81 -10.5h-197l87 446h-100l10 50h160l-42 -214h137zM129 50h152q49 0 83.5 28.5t34.5 78.5q0 37 -23.5 57t-67.5 20h-143z" />
    <glyph glyph-name="uni044B" unicode="&#x44b;" horiz-adv-x="676" 
d="M578 496h60l-97 -496h-60zM269 282q70 0 109 -32.5t39 -91.5q0 -38 -15.5 -67.5t-42.5 -49.5t-64 -30.5t-81 -10.5h-197l97 496h60l-42 -214h137zM87 50h152q49 0 83.5 28.5t34.5 78.5q0 37 -23.5 57t-67.5 20h-143z" />
    <glyph glyph-name="uni044C" unicode="&#x44c;" horiz-adv-x="497" 
d="M269 282q70 0 109 -32.5t39 -91.5q0 -38 -15.5 -67.5t-42.5 -49.5t-64 -30.5t-81 -10.5h-197l97 496h60l-42 -214h137zM87 50h152q49 0 83.5 28.5t34.5 78.5q0 37 -23.5 57t-67.5 20h-143z" />
    <glyph glyph-name="uni044D" unicode="&#x44d;" horiz-adv-x="541" 
d="M155 275h281v13q0 87 -44 128.5t-110 41.5q-53 0 -99.5 -30.5t-81.5 -87.5l-43 30q40 70 99 105t129 35q45 0 83.5 -14t66.5 -42t44 -70t16 -98q0 -66 -19 -121t-53.5 -95t-84 -62t-110.5 -22q-41 0 -74 12.5t-59 32.5t-44.5 46.5t-28.5 55.5l47 28q10 -24 24.5 -46
t35 -39.5t47 -27.5t61.5 -10q81 0 129.5 50t62.5 135h-285z" />
    <glyph glyph-name="uni044E" unicode="&#x44e;" horiz-adv-x="759" 
d="M713 291q0 -66 -21 -121.5t-58.5 -96.5t-89.5 -64t-113 -23q-44 0 -85 14t-73.5 42t-52 70.5t-19.5 99.5v11h-80l-44 -223h-60l97 496h60l-44 -223h76q9 51 33.5 94t61 75t84 50t103.5 18q44 0 85 -13.5t72 -40.5t49.5 -68.5t18.5 -96.5zM436 36q44 0 83.5 19t69 52
t47 77.5t17.5 96.5q0 83 -47.5 131t-126.5 48q-49 0 -89 -21.5t-68.5 -56.5t-44.5 -79t-16 -89q0 -39 12.5 -72t36 -56.5t55.5 -36.5t71 -13z" />
    <glyph glyph-name="uni044F" unicode="&#x44f;" horiz-adv-x="487" 
d="M331 228h-94l-172 -228h-70l174 230q-45 10 -74.5 41.5t-29.5 79.5q0 31 11.5 57.5t34 46t54.5 30.5t73 11h205l-97 -496h-60zM373 446h-151q-47 0 -73.5 -27.5t-26.5 -63.5q0 -39 26.5 -58t59.5 -19h132z" />
    <glyph glyph-name="uni0450" unicode="&#x450;" horiz-adv-x="569" 
d="M92 243q-2 -8 -2 -16.5v-16.5q0 -35 12.5 -66.5t35 -55.5t53.5 -38t69 -14q34 0 61.5 9t50 25.5t41.5 40.5t36 54l43 -28q-42 -78 -100.5 -114.5t-138.5 -36.5q-44 0 -84 14t-70.5 43.5t-48.5 74.5t-18 108q0 59 21.5 111t59.5 90.5t89.5 60.5t112.5 22q51 0 91 -15.5
t67 -42.5t41 -63.5t14 -78.5q0 -12 -1.5 -23t-3.5 -25l-4 -19h-427zM311 460q-36 0 -69.5 -11.5t-60.5 -33t-47 -52.5t-29 -70h363q2 11 2 16.5v13.5q0 30 -12 55t-33 43t-50 28.5t-64 10.5zM356 562h-52l-72 138h82z" />
    <glyph glyph-name="uni0451" unicode="&#x451;" horiz-adv-x="569" 
d="M92 243q-2 -8 -2 -16.5v-16.5q0 -35 12.5 -66.5t35 -55.5t53.5 -38t69 -14q34 0 61.5 9t50 25.5t41.5 40.5t36 54l43 -28q-42 -78 -100.5 -114.5t-138.5 -36.5q-44 0 -84 14t-70.5 43.5t-48.5 74.5t-18 108q0 59 21.5 111t59.5 90.5t89.5 60.5t112.5 22q51 0 91 -15.5
t67 -42.5t41 -63.5t14 -78.5q0 -12 -1.5 -23t-3.5 -25l-4 -19h-427zM311 460q-36 0 -69.5 -11.5t-60.5 -33t-47 -52.5t-29 -70h363q2 11 2 16.5v13.5q0 30 -12 55t-33 43t-50 28.5t-64 10.5zM374 670h80l-15 -76h-80zM226 670h80l-15 -76h-80z" />
    <glyph glyph-name="uni0452" unicode="&#x452;" horiz-adv-x="563" 
d="M405 -94q-5 -24 -13.5 -45.5t-24 -37t-38.5 -25t-55 -9.5q-15 0 -26.5 2t-22.5 6l15 52q18 -8 37 -8q30 0 46 18.5t22 50.5l82 415q2 8 3 18t1 18q0 48 -27 73.5t-78 25.5q-31 0 -62 -13.5t-58 -38t-46.5 -58.5t-27.5 -75l-54 -275h-60l113 580h-69l10 48h69l14 72h60
l-14 -72h156l-10 -48h-156l-32 -163q34 42 82 67.5t104 25.5q65 0 105.5 -32.5t40.5 -103.5q0 -13 -1 -25t-5 -32z" />
    <glyph glyph-name="uni0453" unicode="&#x453;" horiz-adv-x="404" 
d="M114 496h287l-10 -50h-227l-87 -446h-60zM321 700h89l-124 -138h-52z" />
    <glyph glyph-name="uni0454" unicode="&#x454;" horiz-adv-x="550" 
d="M312 458q-43 0 -78 -14.5t-62 -39.5t-44.5 -58.5t-24.5 -70.5h287l-10 -52h-282q0 -91 44 -138t114 -47q67 0 112.5 35.5t74.5 86.5l43 -30q-42 -72 -99 -108t-137 -36q-43 0 -81.5 15.5t-67.5 45.5t-46 73t-17 98q0 58 19 111t55 93t88.5 64t119.5 24q80 0 131 -38.5
t71 -97.5l-47 -26q-22 59 -65.5 84.5t-97.5 25.5z" />
    <glyph glyph-name="uni0455" unicode="&#x455;" horiz-adv-x="478" 
d="M258 460q-18 0 -38 -5t-36.5 -15.5t-27.5 -26.5t-11 -37q0 -37 27 -57.5t94 -36.5t101 -48t34 -86q0 -37 -14 -67t-39 -51t-59.5 -32.5t-75.5 -11.5q-38 0 -69.5 11.5t-55 31t-38.5 46t-21 55.5l53 29q4 -25 14.5 -47.5t27 -39t39 -26.5t51.5 -10q60 0 93.5 30t33.5 78
q0 21 -5.5 35.5t-19 25t-35 19t-53.5 16.5q-65 17 -102 48t-37 83q0 31 13 57t36 44t54.5 28t68.5 10q71 0 111.5 -33t55.5 -86l-47 -24q-15 51 -47.5 72t-75.5 21z" />
    <glyph glyph-name="uni0456" unicode="&#x456;" horiz-adv-x="210" 
d="M113 496h60l-97 -496h-60zM139 670h76l-16 -80h-76z" />
    <glyph glyph-name="uni0457" unicode="&#x457;" horiz-adv-x="210" 
d="M113 496h60l-97 -496h-60zM210 670h80l-15 -76h-80zM62 670h80l-15 -76h-80z" />
    <glyph glyph-name="uni0458" unicode="&#x458;" horiz-adv-x="211" 
d="M-105 -151q18 -8 37 -8q30 0 46 18.5t22 50.5l114 586h60l-114 -590q-5 -24 -13.5 -45.5t-24 -37t-38.5 -25t-55 -9.5q-15 0 -26.5 2t-22.5 6zM140 670h76l-16 -80h-76z" />
    <glyph glyph-name="uni0459" unicode="&#x459;" horiz-adv-x="767" 
d="M374 446h-169l-108 -376q-12 -41 -35 -59t-59 -18q-19 0 -36 7l15 50q5 -2 10 -3.5t11 -1.5q27 0 38 37l121 414h281l-41 -214h137q70 0 109 -32.5t39 -91.5q0 -38 -15.5 -67.5t-42.5 -49.5t-64 -30.5t-81 -10.5h-197zM357 50h152q49 0 83.5 28.5t34.5 78.5
q0 37 -23.5 57t-67.5 20h-143z" />
    <glyph glyph-name="uni045A" unicode="&#x45a;" horiz-adv-x="808" 
d="M148 284h239l42 212h60l-42 -212h140q65 0 103 -33.5t38 -87.5q0 -40 -16 -70.5t-43.5 -51t-63.5 -31t-76 -10.5h-197l46 234h-239l-46 -234h-60l97 496h60zM402 50h149q24 0 45 6.5t37.5 20t26 34t9.5 47.5q0 37 -22 56.5t-60 19.5h-149z" />
    <glyph glyph-name="uni045B" unicode="&#x45b;" horiz-adv-x="565" 
d="M426 0h-60l64 325q2 8 3 18t1 18q0 48 -27 73.5t-78 25.5q-31 0 -62 -13.5t-58 -38t-46.5 -58.5t-27.5 -75l-54 -275h-60l113 580h-69l10 48h69l14 72h60l-14 -72h156l-10 -48h-156l-32 -163q34 42 82 67.5t104 25.5q65 0 105.5 -32.5t40.5 -103.5q0 -13 -1 -25t-5 -32z
" />
    <glyph glyph-name="uni045C" unicode="&#x45c;" horiz-adv-x="482" 
d="M174 496l-45 -233l246 233h81l-215 -202l147 -294h-68l-123 250l-87 -79l-33 -171h-60l97 496h60zM320 700h89l-124 -138h-52z" />
    <glyph glyph-name="uni045D" unicode="&#x45d;" horiz-adv-x="546" 
d="M94 87l340 409h73l-97 -496h-60l80 408l-340 -408h-73l97 496h60zM353 562h-52l-72 138h82z" />
    <glyph glyph-name="uni045E" unicode="&#x45e;" horiz-adv-x="477" 
d="M-22 -149q18 -8 37 -8q24 0 39.5 11.5t32.5 41.5l65 111l-105 489h60l88 -418l245 418h68l-368 -617q-16 -27 -30.5 -44.5t-29.5 -27.5t-32.5 -14t-40.5 -4q-11 0 -24 2t-24 7zM393 669q-8 -53 -37 -76t-76 -23q-39 0 -61 24.5t-22 55.5q0 11 2 19h57q-1 -5 -1 -7v-4
q0 -34 32 -34q20 0 32.5 12.5t16.5 32.5h57z" />
    <glyph glyph-name="uni045F" unicode="&#x45f;" horiz-adv-x="542" 
d="M19 0l96 496h60l-87 -446h268l87 446h60l-96 -496h-166l-21 -106h-56l21 106h-166z" />
    <glyph glyph-name="endash" unicode="&#x2013;" horiz-adv-x="502" 
d="M55 334h406l-9 -46h-406z" />
    <glyph glyph-name="emdash" unicode="&#x2014;" horiz-adv-x="770" 
d="M55 334h674l-9 -46h-674z" />
    <glyph glyph-name="quoteleft" unicode="&#x2018;" horiz-adv-x="189" 
d="M233 692l-75 -100h31l-16 -82h-80l16 82l110 115z" />
    <glyph glyph-name="quoteright" unicode="&#x2019;" horiz-adv-x="189" 
d="M70 518l75 100h-31l16 82h80l-16 -82l-110 -115z" />
    <glyph glyph-name="quotesinglbase" unicode="&#x201a;" horiz-adv-x="190" 
d="M-43 -100l75 100h-31l16 82h80l-16 -82l-110 -115z" />
    <glyph glyph-name="quotedblleft" unicode="&#x201c;" horiz-adv-x="303" 
d="M233 692l-75 -100h31l-16 -82h-80l16 82l110 115zM347 692l-75 -100h31l-16 -82h-80l16 82l110 115z" />
    <glyph glyph-name="quotedblright" unicode="&#x201d;" horiz-adv-x="303" 
d="M184 518l75 100h-31l16 82h80l-16 -82l-110 -115zM70 518l75 100h-31l16 82h80l-16 -82l-110 -115z" />
    <glyph glyph-name="quotedblbase" unicode="&#x201e;" horiz-adv-x="304" 
d="M71 -100l75 100h-31l16 82h80l-16 -82l-110 -115zM-43 -100l75 100h-31l16 82h80l-16 -82l-110 -115z" />
    <glyph glyph-name="dagger" unicode="&#x2020;" horiz-adv-x="442" 
d="M86 496h144l47 244h58l-47 -244h144l-10 -52h-144l-108 -554h-58l108 554h-144z" />
    <glyph glyph-name="daggerdbl" unicode="&#x2021;" horiz-adv-x="442" 
d="M86 496h144l47 244h58l-47 -244h144l-10 -52h-144l-51 -258h144l-10 -52h-144l-47 -244h-58l47 244h-144l10 52h144l51 258h-144z" />
    <glyph glyph-name="bullet" unicode="&#x2022;" horiz-adv-x="262" 
d="M52 275q0 32 23.5 55.5t55.5 23.5t55.5 -23.5t23.5 -55.5t-23.5 -55.5t-55.5 -23.5t-55.5 23.5t-23.5 55.5z" />
    <glyph glyph-name="ellipsis" unicode="&#x2026;" horiz-adv-x="536" 
d="M5 82h80l-15 -82h-80zM185 82h80l-15 -82h-80zM365 82h80l-15 -82h-80z" />
    <glyph glyph-name="perthousand" unicode="&#x2030;" horiz-adv-x="1172" 
d="M470 141q0 41 14.5 76.5t40 62t61 41.5t77.5 15q100 0 134 -73q26 34 65 53.5t88 19.5q75 0 113 -43t38 -110q0 -39 -14 -74.5t-39.5 -63t-61.5 -43.5t-79 -16t-77.5 21t-51.5 55q-23 -35 -63.5 -55.5t-94.5 -20.5q-32 0 -59 12t-47.5 32.5t-32 49t-11.5 61.5zM102 519
q0 41 14.5 76.5t40 62t61 41.5t77.5 15q75 0 113 -43t38 -110q0 -39 -14 -74.5t-39.5 -63t-61.5 -43.5t-79 -16q-32 0 -59 12t-47.5 32.5t-32 49t-11.5 61.5zM289 664q-28 0 -52 -11t-42 -30.5t-28.5 -45.5t-10.5 -56q0 -51 29.5 -79t74.5 -28q28 0 52 11.5t42 31t28 45
t10 53.5q0 52 -27.5 80.5t-75.5 28.5zM657 286q-28 0 -52 -11t-42 -30.5t-28.5 -45.5t-10.5 -56q0 -51 29.5 -79t74.5 -28q28 0 52 11.5t42 31t28 45t10 53.5q0 52 -27.5 80.5t-75.5 28.5zM944 286q-28 0 -52 -11t-42 -30.5t-28 -45.5t-10 -56q0 -51 29 -79t74 -28
q28 0 52 11.5t42 31t28 45t10 53.5q0 52 -27.5 80.5t-75.5 28.5zM157 37l563 661l36 -33l-563 -661z" />
    <glyph glyph-name="guilsinglleft" unicode="&#x2039;" horiz-adv-x="306" 
d="M314 469l-196 -199l110 -189h-64l-114 194l188 194h76z" />
    <glyph glyph-name="guilsinglright" unicode="&#x203a;" horiz-adv-x="306" 
d="M-3 81l196 199l-110 189h64l114 -194l-188 -194h-76z" />
    <glyph glyph-name="fraction" unicode="&#x2044;" horiz-adv-x="515" 
d="M-33 37l563 661l36 -33l-563 -661z" />
    <glyph glyph-name="zerosuperior" unicode="&#x2070;" horiz-adv-x="380" 
d="M386 553q0 -42 -12.5 -80t-35 -67t-55 -46t-72.5 -17q-26 0 -50 10t-42 29.5t-29 49t-11 69.5q0 36 11.5 72.5t33.5 66.5t54.5 48.5t75.5 18.5q57 0 94.5 -38t37.5 -116zM215 389q27 0 49 13t37.5 34.5t24 49.5t8.5 59q0 59 -22.5 87.5t-60.5 28.5q-30 0 -52.5 -14.5
t-37.5 -37t-22.5 -51.5t-7.5 -57q0 -55 22.5 -83.5t61.5 -28.5z" />
    <glyph glyph-name="foursuperior" unicode="&#x2074;" horiz-adv-x="371" 
d="M68 464l214 236h52l-46 -236h40l-9 -44h-40l-14 -70h-50l14 70h-170zM125 464h113l30 157z" />
    <glyph glyph-name="fivesuperior" unicode="&#x2075;" horiz-adv-x="348" 
d="M140 700h215l-8 -42h-173l-31 -110q14 19 39.5 30t48.5 11q46 0 72.5 -27t26.5 -81q0 -29 -10 -54.5t-28.5 -44t-45 -29t-58.5 -10.5q-50 0 -79 26.5t-29 68.5q0 15 6 27l45 -8q-3 -8 -3 -19q0 -24 16.5 -38.5t47.5 -14.5q40 0 65 26t25 64q0 35 -18 53.5t-46 18.5
q-31 0 -54 -16.5t-32 -33.5l-43 13z" />
    <glyph glyph-name="sixsuperior" unicode="&#x2076;" horiz-adv-x="351" 
d="M221 536q-34 0 -60 -22.5t-26 -60.5q0 -34 22 -51t51 -17q36 0 60 24t24 62q0 32 -20.5 48.5t-50.5 16.5zM298 607q4 8 4 20q0 18 -15 28t-40 10q-22 0 -40 -11t-32 -29.5t-23 -42.5t-13 -50q14 18 39.5 32t57.5 14q51 0 77.5 -27.5t26.5 -73.5q0 -29 -9.5 -53.5
t-27.5 -42.5t-43 -28t-56 -10q-51 0 -84 35.5t-33 103.5q0 39 10 79t30 72.5t51.5 53t73.5 20.5q47 0 70 -22.5t23 -54.5q0 -8 -1.5 -15.5t-3.5 -15.5z" />
    <glyph glyph-name="sevensuperior" unicode="&#x2077;" horiz-adv-x="306" 
d="M128 350h-54l203 307h-167l9 43h221l-8 -41z" />
    <glyph glyph-name="eightsuperior" unicode="&#x2078;" horiz-adv-x="334" 
d="M192 343q-24 0 -45 7t-37 20t-25 31t-9 40q0 32 17 58t54 41q-13 8 -23.5 25.5t-10.5 38.5t7 39.5t22 32.5t37.5 22.5t52.5 8.5q25 0 43.5 -7t31.5 -19t19.5 -27t6.5 -31q0 -30 -18.5 -54.5t-45.5 -34.5q17 -9 32 -27.5t15 -47.5q0 -28 -10 -49.5t-27 -36.5t-39.5 -22.5
t-47.5 -7.5zM192 385q29 0 49.5 20t20.5 54q0 26 -18 42t-44 16q-34 0 -52 -20.5t-18 -48.5q0 -30 18 -46.5t44 -16.5zM228 665q-26 0 -46.5 -16t-20.5 -45q0 -23 17.5 -36t37.5 -13q25 0 45 15t20 47q0 23 -16 35.5t-37 12.5z" />
    <glyph glyph-name="ninesuperior" unicode="&#x2079;" horiz-adv-x="334" 
d="M209 512q37 0 61.5 25t24.5 62q0 30 -21.5 48t-49.5 18q-38 0 -61 -24.5t-23 -59.5t19.5 -52t49.5 -17zM135 442q-4 -8 -4 -19q0 -17 15 -27.5t41 -10.5q47 0 74 38.5t36 97.5q-16 -22 -38 -35.5t-56 -13.5q-22 0 -42 7.5t-35.5 21t-24.5 33.5t-9 46t9.5 49t27 40.5
t42.5 27.5t57 10q54 0 84.5 -35.5t30.5 -100.5q0 -45 -9.5 -86t-29 -72.5t-49 -50.5t-69.5 -19q-42 0 -70 22t-28 56q0 17 6 29z" />
    <glyph glyph-name="zeroinferior" unicode="&#x2080;" horiz-adv-x="380" 
d="M281 -1q0 -42 -12.5 -80t-35 -67t-55 -46t-72.5 -17q-26 0 -50 10t-42 29.5t-29 49t-11 69.5q0 36 11.5 72.5t33.5 66.5t54.5 48.5t75.5 18.5q57 0 94.5 -38t37.5 -116zM110 -165q27 0 49 13t37.5 34.5t24 49.5t8.5 59q0 59 -22.5 87.5t-60.5 28.5q-30 0 -52.5 -14.5
t-37.5 -37t-22.5 -51.5t-7.5 -57q0 -55 22.5 -83.5t61.5 -28.5z" />
    <glyph glyph-name="oneinferior" unicode="&#x2081;" horiz-adv-x="239" 
d="M16 103q33 0 52.5 10t35.5 33h44l-69 -350h-48l55 282q-14 -13 -33.5 -18t-45.5 -5z" />
    <glyph glyph-name="twoinferior" unicode="&#x2082;" horiz-adv-x="334" 
d="M137 -32q27 22 38.5 43.5t11.5 44.5q0 25 -16.5 40t-47.5 15q-35 0 -54 -20t-19 -49q0 -7 2 -17l-44 -6q-3 10 -3 24q0 47 34.5 78.5t89.5 31.5q48 0 77 -26t29 -68q0 -38 -19.5 -67t-52.5 -56l-114 -94h154l-8 -46h-231l7 38z" />
    <glyph glyph-name="threeinferior" unicode="&#x2083;" horiz-adv-x="350" 
d="M39 -91q-4 -11 -4 -24q0 -23 19.5 -37.5t48.5 -14.5q33 0 54.5 18.5t21.5 50.5q0 34 -22.5 48.5t-62.5 14.5l7 39q35 0 61 14t26 46q0 25 -16 36t-41 11q-26 0 -45 -13t-19 -35v-7.5t2 -8.5l-41 -4q-2 8 -2 18q0 18 7.5 34.5t21.5 29t34 20.5t45 8q49 0 74 -23t25 -55
q0 -29 -16.5 -52.5t-48.5 -34.5q23 -8 41 -26.5t18 -49.5q0 -26 -9 -48.5t-25.5 -39t-40 -26t-51.5 -9.5q-23 0 -43 7t-35 19t-23.5 28.5t-8.5 35.5q0 11 1.5 21t6.5 18z" />
    <glyph glyph-name="fourinferior" unicode="&#x2084;" horiz-adv-x="371" 
d="M-12 -90l214 236h52l-46 -236h40l-9 -44h-40l-14 -70h-50l14 70h-170zM45 -90h113l30 157z" />
    <glyph glyph-name="fiveinferior" unicode="&#x2085;" horiz-adv-x="348" 
d="M40 146h215l-8 -42h-173l-31 -110q14 19 39.5 30t48.5 11q46 0 72.5 -27t26.5 -81q0 -29 -10 -54.5t-28.5 -44t-45 -29t-58.5 -10.5q-50 0 -79 26.5t-29 68.5q0 15 6 27l45 -8q-3 -8 -3 -19q0 -24 16.5 -38.5t47.5 -14.5q40 0 65 26t25 64q0 35 -18 53.5t-46 18.5
q-31 0 -54 -16.5t-32 -33.5l-43 13z" />
    <glyph glyph-name="sixinferior" unicode="&#x2086;" horiz-adv-x="351" 
d="M123 -18q-34 0 -60 -22.5t-26 -60.5q0 -34 22 -51t51 -17q36 0 60 24t24 62q0 32 -20.5 48.5t-50.5 16.5zM200 53q4 8 4 20q0 18 -15 28t-40 10q-22 0 -40 -11t-32 -29.5t-23 -42.5t-13 -50q14 18 39.5 32t57.5 14q51 0 77.5 -27.5t26.5 -73.5q0 -29 -9.5 -53.5
t-27.5 -42.5t-43 -28t-56 -10q-51 0 -84 35.5t-33 103.5q0 39 10 79t30 72.5t51.5 53t73.5 20.5q47 0 70 -22.5t23 -54.5q0 -8 -1.5 -15.5t-3.5 -15.5z" />
    <glyph glyph-name="seveninferior" unicode="&#x2087;" horiz-adv-x="306" 
d="M20 -204h-54l203 307h-167l9 43h221l-8 -41z" />
    <glyph glyph-name="eightinferior" unicode="&#x2088;" horiz-adv-x="334" 
d="M97 -211q-24 0 -45 7t-37 20t-25 31t-9 40q0 32 17 58t54 41q-13 8 -23.5 25.5t-10.5 38.5t7 39.5t22 32.5t37.5 22.5t52.5 8.5q25 0 43.5 -7t31.5 -19t19.5 -27t6.5 -31q0 -30 -18.5 -54.5t-45.5 -34.5q17 -9 32 -27.5t15 -47.5q0 -28 -10 -49.5t-27 -36.5t-39.5 -22.5
t-47.5 -7.5zM97 -169q29 0 49.5 20t20.5 54q0 26 -18 42t-44 16q-34 0 -52 -20.5t-18 -48.5q0 -30 18 -46.5t44 -16.5zM133 111q-26 0 -46.5 -16t-20.5 -45q0 -23 17.5 -36t37.5 -13q25 0 45 15t20 47q0 23 -16 35.5t-37 12.5z" />
    <glyph glyph-name="nineinferior" unicode="&#x2089;" horiz-adv-x="334" 
d="M104 -42q37 0 61.5 25t24.5 62q0 30 -21.5 48t-49.5 18q-38 0 -61 -24.5t-23 -59.5t19.5 -52t49.5 -17zM30 -112q-4 -8 -4 -19q0 -17 15 -27.5t41 -10.5q47 0 74 38.5t36 97.5q-16 -22 -38 -35.5t-56 -13.5q-22 0 -42 7.5t-35.5 21t-24.5 33.5t-9 46t9.5 49t27 40.5
t42.5 27.5t57 10q54 0 84.5 -35.5t30.5 -100.5q0 -45 -9.5 -86t-29 -72.5t-49 -50.5t-69.5 -19q-42 0 -70 22t-28 56q0 17 6 29z" />
    <glyph glyph-name="Euro" unicode="&#x20ac;" horiz-adv-x="741" 
d="M92 449h49q19 54 51 102.5t76 84.5t100 57t124 21q94 0 153 -47t79 -139l-53 -20q-17 83 -64.5 118.5t-128.5 35.5q-50 0 -92.5 -16.5t-77 -45t-61.5 -67.5t-46 -84h301l-31 -48h-284q-7 -25 -10 -50.5t-4 -51.5h300l-31 -48h-268q4 -47 18 -86.5t38.5 -67.5t60 -43.5
t82.5 -15.5q44 0 78.5 11t62 32.5t50.5 53.5t45 74l46 -18q-46 -102 -117 -153.5t-168 -51.5q-113 0 -180.5 70t-75.5 195h-82l31 48h50q1 49 14 102h-66z" />
    <glyph glyph-name="trademark" unicode="&#x2122;" horiz-adv-x="841" 
d="M115 700h294l-7 -40h-123l-70 -360h-48l70 360h-123zM469 700h48l80 -356l218 356h48l-77 -400h-42l60 306l-190 -306h-48l-71 314l-61 -314h-42z" />
    <glyph glyph-name="Omega" unicode="&#x2126;" horiz-adv-x="780" 
d="M634 0h-242l13 68q53 24 103 60t88.5 82t61.5 100.5t23 116.5q0 55 -17.5 98.5t-49.5 74t-76.5 46.5t-99.5 16q-71 0 -129.5 -27.5t-100.5 -72t-65.5 -100t-23.5 -111.5q0 -60 14 -105t35.5 -79t49 -58t54.5 -41l-13 -68h-241l11 58h176q-28 21 -54 49t-46 63.5t-32 79
t-12 95.5q0 74 27.5 141t78 117.5t121.5 80.5t158 30q69 0 123.5 -19.5t92.5 -56t58.5 -89.5t20.5 -119q0 -62 -20 -116.5t-55.5 -101t-84.5 -85t-108 -69.5h172z" />
    <glyph glyph-name="onethird" unicode="&#x2153;" horiz-adv-x="745" 
d="M110 657q33 0 52.5 10t35.5 33h44l-69 -350h-48l55 282q-14 -13 -33.5 -18t-45.5 -5zM65 37l563 661l36 -33l-563 -661zM488 113q-4 -11 -4 -24q0 -23 19.5 -37.5t48.5 -14.5q33 0 54.5 18.5t21.5 50.5q0 34 -22.5 48.5t-62.5 14.5l7 39q35 0 61 14t26 46q0 25 -16 36
t-41 11q-26 0 -45 -13t-19 -35v-7.5t2 -8.5l-41 -4q-2 8 -2 18q0 18 7.5 34.5t21.5 29t34 20.5t45 8q49 0 74 -23t25 -55q0 -29 -16.5 -52.5t-48.5 -34.5q23 -8 41 -26.5t18 -49.5q0 -26 -9 -48.5t-25.5 -39t-40 -26t-51.5 -9.5q-23 0 -43 7t-35 19t-23.5 28.5t-8.5 35.5
q0 11 1.5 21t6.5 18z" />
    <glyph glyph-name="twothirds" unicode="&#x2154;" horiz-adv-x="830" 
d="M565 113q-4 -11 -4 -24q0 -23 19.5 -37.5t48.5 -14.5q33 0 54.5 18.5t21.5 50.5q0 34 -22.5 48.5t-62.5 14.5l7 39q35 0 61 14t26 46q0 25 -16 36t-41 11q-26 0 -45 -13t-19 -35v-7.5t2 -8.5l-41 -4q-2 8 -2 18q0 18 7.5 34.5t21.5 29t34 20.5t45 8q49 0 74 -23t25 -55
q0 -29 -16.5 -52.5t-48.5 -34.5q23 -8 41 -26.5t18 -49.5q0 -26 -9 -48.5t-25.5 -39t-40 -26t-51.5 -9.5q-23 0 -43 7t-35 19t-23.5 28.5t-8.5 35.5q0 11 1.5 21t6.5 18zM150 36l563 661l36 -33l-563 -661zM244 522q27 22 38.5 43.5t11.5 44.5q0 25 -16.5 40t-47.5 15
q-35 0 -54 -20t-19 -49q0 -7 2 -17l-44 -6q-3 10 -3 24q0 47 34.5 78.5t89.5 31.5q48 0 77 -26t29 -68q0 -38 -19.5 -67t-52.5 -56l-114 -94h154l-8 -46h-231l7 38z" />
    <glyph glyph-name="oneeighth" unicode="&#x215b;" horiz-adv-x="769" 
d="M120 657q33 0 52.5 10t35.5 33h44l-69 -350h-48l55 282q-14 -13 -33.5 -18t-45.5 -5zM75 38l563 661l36 -33l-563 -661zM555 -7q-24 0 -45 7t-37 20t-25 31t-9 40q0 32 17 58t54 41q-13 8 -23.5 25.5t-10.5 38.5t7 39.5t22 32.5t37.5 22.5t52.5 8.5q25 0 43.5 -7
t31.5 -19t19.5 -27t6.5 -31q0 -30 -18.5 -54.5t-45.5 -34.5q17 -9 32 -27.5t15 -47.5q0 -28 -10 -49.5t-27 -36.5t-39.5 -22.5t-47.5 -7.5zM555 35q29 0 49.5 20t20.5 54q0 26 -18 42t-44 16q-34 0 -52 -20.5t-18 -48.5q0 -30 18 -46.5t44 -16.5zM591 315q-26 0 -46.5 -16
t-20.5 -45q0 -23 17.5 -36t37.5 -13q25 0 45 15t20 47q0 23 -16 35.5t-37 12.5z" />
    <glyph glyph-name="threeeighths" unicode="&#x215c;" horiz-adv-x="859" 
d="M623 -7q-24 0 -45 7t-37 20t-25 31t-9 40q0 32 17 58t54 41q-13 8 -23.5 25.5t-10.5 38.5t7 39.5t22 32.5t37.5 22.5t52.5 8.5q25 0 43.5 -7t31.5 -19t19.5 -27t6.5 -31q0 -30 -18.5 -54.5t-45.5 -34.5q17 -9 32 -27.5t15 -47.5q0 -28 -10 -49.5t-27 -36.5t-39.5 -22.5
t-47.5 -7.5zM623 35q29 0 49.5 20t20.5 54q0 26 -18 42t-44 16q-34 0 -52 -20.5t-18 -48.5q0 -30 18 -46.5t44 -16.5zM659 315q-26 0 -46.5 -16t-20.5 -45q0 -23 17.5 -36t37.5 -13q25 0 45 15t20 47q0 23 -16 35.5t-37 12.5zM154 35l563 661l36 -33l-563 -661zM158 463
q-4 -11 -4 -24q0 -23 19.5 -37.5t48.5 -14.5q33 0 54.5 18.5t21.5 50.5q0 34 -22.5 48.5t-62.5 14.5l7 39q35 0 61 14t26 46q0 25 -16 36t-41 11q-26 0 -45 -13t-19 -35v-7.5t2 -8.5l-41 -4q-2 8 -2 18q0 18 7.5 34.5t21.5 29t34 20.5t45 8q49 0 74 -23t25 -55
q0 -29 -16.5 -52.5t-48.5 -34.5q23 -8 41 -26.5t18 -49.5q0 -26 -9 -48.5t-25.5 -39t-40 -26t-51.5 -9.5q-23 0 -43 7t-35 19t-23.5 28.5t-8.5 35.5q0 11 1.5 21t6.5 18z" />
    <glyph glyph-name="fiveeighths" unicode="&#x215d;" horiz-adv-x="840" 
d="M136 37l563 661l36 -33l-563 -661zM624 -7q-24 0 -45 7t-37 20t-25 31t-9 40q0 32 17 58t54 41q-13 8 -23.5 25.5t-10.5 38.5t7 39.5t22 32.5t37.5 22.5t52.5 8.5q25 0 43.5 -7t31.5 -19t19.5 -27t6.5 -31q0 -30 -18.5 -54.5t-45.5 -34.5q17 -9 32 -27.5t15 -47.5
q0 -28 -10 -49.5t-27 -36.5t-39.5 -22.5t-47.5 -7.5zM624 35q29 0 49.5 20t20.5 54q0 26 -18 42t-44 16q-34 0 -52 -20.5t-18 -48.5q0 -30 18 -46.5t44 -16.5zM660 315q-26 0 -46.5 -16t-20.5 -45q0 -23 17.5 -36t37.5 -13q25 0 45 15t20 47q0 23 -16 35.5t-37 12.5z
M152 700h215l-8 -42h-173l-31 -110q14 19 39.5 30t48.5 11q46 0 72.5 -27t26.5 -81q0 -29 -10 -54.5t-28.5 -44t-45 -29t-58.5 -10.5q-50 0 -79 26.5t-29 68.5q0 15 6 27l45 -8q-3 -8 -3 -19q0 -24 16.5 -38.5t47.5 -14.5q40 0 65 26t25 64q0 35 -18 53.5t-46 18.5
q-31 0 -54 -16.5t-32 -33.5l-43 13z" />
    <glyph glyph-name="seveneighths" unicode="&#x215e;" horiz-adv-x="780" 
d="M72 37l563 661l36 -33l-563 -661zM566 -7q-24 0 -45 7t-37 20t-25 31t-9 40q0 32 17 58t54 41q-13 8 -23.5 25.5t-10.5 38.5t7 39.5t22 32.5t37.5 22.5t52.5 8.5q25 0 43.5 -7t31.5 -19t19.5 -27t6.5 -31q0 -30 -18.5 -54.5t-45.5 -34.5q17 -9 32 -27.5t15 -47.5
q0 -28 -10 -49.5t-27 -36.5t-39.5 -22.5t-47.5 -7.5zM566 35q29 0 49.5 20t20.5 54q0 26 -18 42t-44 16q-34 0 -52 -20.5t-18 -48.5q0 -30 18 -46.5t44 -16.5zM602 315q-26 0 -46.5 -16t-20.5 -45q0 -23 17.5 -36t37.5 -13q25 0 45 15t20 47q0 23 -16 35.5t-37 12.5z
M159 350h-54l203 307h-167l9 43h221l-8 -41z" />
    <glyph glyph-name="arrowleft" unicode="&#x2190;" horiz-adv-x="542" 
d="M212 120l-154 191l229 191l30 -37l-157 -131h338l-9 -46h-346l109 -135z" />
    <glyph glyph-name="arrowup" unicode="&#x2191;" horiz-adv-x="474" 
d="M401 362l-102 134l-66 -341h-48l67 340l-158 -133l-29 37l222 187l154 -192z" />
    <glyph glyph-name="arrowright" unicode="&#x2192;" horiz-adv-x="542" 
d="M334 502l154 -191l-229 -191l-30 37l157 131h-338l9 46h346l-109 135z" />
    <glyph glyph-name="arrowdown" unicode="&#x2193;" horiz-adv-x="474" 
d="M95 379l102 -134l66 341h48l-67 -340l158 133l29 -37l-222 -187l-154 192z" />
    <glyph glyph-name="arrowboth" unicode="&#x2194;" horiz-adv-x="745" 
d="M537 502l154 -191l-229 -191l-30 37l157 131h-447l109 -135l-40 -33l-154 191l229 191l30 -37l-157 -131h447l-109 135z" />
    <glyph glyph-name="arrowupdn" unicode="&#x2195;" horiz-adv-x="474" 
d="M77 256l102 -134l89 455l-158 -133l-29 37l222 187l154 -192l-40 -32l-102 134l-89 -455l158 133l29 -37l-222 -187l-154 192z" />
    <glyph glyph-name="uni2196" unicode="&#x2196;" horiz-adv-x="499" 
d="M72 194l53 271h271l-9 -48h-189l194 -244l-38 -32l-194 242l-37 -189h-51z" />
    <glyph glyph-name="uni2197" unicode="&#x2197;" horiz-adv-x="499" 
d="M336 194l35 183l-284 -240l-30 37l289 243h-187l9 48h271l-53 -271h-50z" />
    <glyph glyph-name="uni2198" unicode="&#x2198;" horiz-adv-x="499" 
d="M428 412l-53 -271h-271l9 48h189l-194 244l38 32l194 -242l37 189h51z" />
    <glyph glyph-name="uni2199" unicode="&#x2199;" horiz-adv-x="499" 
d="M164 412l-35 -183l284 240l30 -37l-289 -243h187l-9 -48h-271l53 271h50z" />
    <glyph glyph-name="partialdiff" unicode="&#x2202;" horiz-adv-x="574" 
d="M545 418q0 -80 -16 -157.5t-51.5 -138.5t-91.5 -98.5t-136 -37.5q-42 0 -81.5 13.5t-70 39.5t-48.5 65.5t-18 90.5q0 54 19.5 102.5t55 85t85.5 58t112 21.5q59 0 106 -27t72 -72q2 14 2.5 31t0.5 33q0 54 -9 97t-29 73t-51.5 46.5t-76.5 16.5q-23 0 -45.5 -5.5
t-40 -16.5t-28.5 -27t-11 -37q0 -9 1 -14t2 -9l-54 -21q-3 8 -5 16.5t-2 21.5q0 32 14.5 59t40 46.5t61 30t76.5 10.5q115 0 166 -78t51 -218zM249 38q45 0 82.5 18t65 48t42.5 69t15 81q0 39 -12.5 68t-33.5 48.5t-49.5 29.5t-60.5 10q-45 0 -82.5 -17t-65 -45.5t-43 -67
t-15.5 -81.5q0 -39 13.5 -69.5t36 -50.5t50.5 -30.5t57 -10.5z" />
    <glyph glyph-name="Delta" unicode="&#x2206;" horiz-adv-x="636" 
d="M363 700h67l141 -700h-623zM43 50h458l-108 546q-4 17 -5.5 28.5t-1.5 12.5q-1 -1 -6.5 -12.5t-16.5 -28.5z" />
    <glyph glyph-name="product" unicode="&#x220f;" horiz-adv-x="662" 
d="M168 700h480l-175 -904h-60l165 852h-360l-165 -852h-60z" />
    <glyph glyph-name="summation" unicode="&#x2211;" horiz-adv-x="562" 
d="M113 644l11 56h461l-11 -56h-396l159 -364l-299 -348h410l-10 -52h-480l11 59l302 351z" />
    <glyph glyph-name="minus" unicode="&#x2212;" horiz-adv-x="487" 
d="M62 388h391l-9 -46h-391z" />
    <glyph glyph-name="radical" unicode="&#x221a;" horiz-adv-x="579" 
d="M185 0l-49 304h-101l10 52h143l38 -269l348 613h58l-394 -700h-53z" />
    <glyph glyph-name="infinity" unicode="&#x221e;" horiz-adv-x="774" 
d="M60 279q0 33 11.5 64t33.5 54t54 37t73 14q31 0 55 -9t43.5 -23.5t34.5 -33.5t29 -40q18 21 37.5 40t42 33.5t48 23.5t56.5 9q34 0 59.5 -10t42.5 -27t25.5 -40t8.5 -48q0 -40 -13.5 -71.5t-37 -53.5t-54 -34t-64.5 -12q-31 0 -55 8.5t-43 22.5t-33.5 32.5t-27.5 39.5
q-17 -21 -36.5 -39.5t-42 -32.5t-49.5 -22.5t-60 -8.5q-35 0 -60.5 10t-43 27t-26 40.5t-8.5 49.5zM224 402q-23 0 -43 -9.5t-35 -25t-23.5 -37t-8.5 -45.5q0 -39 22.5 -63t67.5 -24q47 0 84 29.5t71 72.5q-12 20 -25 38.5t-29 32.5t-36 22.5t-45 8.5zM573 402
q-25 0 -46 -8.5t-39.5 -23t-35.5 -33t-33 -39.5q12 -20 25 -38t28.5 -32t34 -22t42.5 -8q19 0 39 8t36 23.5t26 38.5t10 53q0 35 -22 58t-65 23z" />
    <glyph glyph-name="integral" unicode="&#x222b;" horiz-adv-x="304" 
d="M85 -92q-12 -62 -45 -94t-101 -32q-11 0 -22.5 1.5t-19.5 3.5l16 52q7 -3 14.5 -5t18.5 -2q29 0 50.5 21.5t29.5 59.5l135 696q12 63 51 102t113 39q13 0 21.5 -1.5t16.5 -3.5l-9 -52q-15 7 -39 7q-31 0 -58 -22t-37 -74z" />
    <glyph glyph-name="approxequal" unicode="&#x2248;" horiz-adv-x="427" 
d="M138 280q-20 0 -31 -12.5t-11 -32.5q0 -5 2 -13l-55 -9q-2 4 -3 10t-1 18q0 35 23.5 62.5t74.5 27.5q32 0 53 -10.5t37 -22.5t30.5 -22.5t35.5 -10.5q17 0 25.5 11.5t8.5 29.5q0 5 -2 13l55 11q4 -10 4 -29q0 -41 -25.5 -64t-71.5 -23q-31 0 -52 10.5t-36.5 22.5
t-29.5 22.5t-31 10.5zM170 432q-20 0 -31 -12.5t-11 -32.5q0 -5 2 -13l-55 -9q-2 4 -3 10t-1 18q0 35 23.5 62.5t74.5 27.5q32 0 53 -10.5t37 -22.5t30.5 -22.5t35.5 -10.5q17 0 25.5 11.5t8.5 29.5q0 5 -2 13l55 11q4 -10 4 -29q0 -41 -25.5 -64t-71.5 -23q-31 0 -52 10.5
t-36.5 22.5t-29.5 22.5t-31 10.5z" />
    <glyph glyph-name="notequal" unicode="&#x2260;" horiz-adv-x="487" 
d="M84 468h229l106 134l37 -30l-82 -104h101l-9 -46h-128l-114 -144h215l-9 -46h-242l-105 -134l-37 30l82 104h-89l9 46h116l113 144h-202z" />
    <glyph glyph-name="lessequal" unicode="&#x2264;" horiz-adv-x="493" 
d="M57 422l428 194l-10 -61l-375 -168l308 -168l-10 -55l-354 194zM4 46h391l-9 -46h-391z" />
    <glyph glyph-name="greaterequal" unicode="&#x2265;" horiz-adv-x="493" 
d="M471 358l-428 -194l10 61l375 168l-308 168l10 55l354 -194zM4 46h391l-9 -46h-391z" />
    <glyph glyph-name="lozenge" unicode="&#x25ca;" horiz-adv-x="560" 
d="M255 0h-68l-149 350l286 350h68l150 -350zM477 358l-124 292l-249 -307l123 -293z" />
    <glyph glyph-name="apple" unicode="&#xf8ff;" horiz-adv-x="780" 
d="M686 22q0 -8 -6 -15t-16 -7q-3 0 -7 1l-267 77l-267 -77q-4 -1 -7 -1q-10 0 -16 7t-6 15v595q0 17 16 22l270 78q6 2 10 2t10 -2l270 -78q16 -5 16 -22v-595zM368 669l-230 -67q3 -47 22 -88t49.5 -72.5t71 -51.5t87.5 -24v303zM412 366q46 4 87 24t71.5 51.5t49.5 72.5
t22 88l-230 67v-303zM137 51l231 67v204q-74 6 -134.5 43.5t-96.5 97.5v-412zM643 463q-37 -60 -97 -97.5t-134 -43.5v-204l231 -67v412z" />
    <glyph glyph-name="a.alt" horiz-adv-x="529" 
d="M358 0q-8 11 -12.5 24.5t-4.5 36.5q0 14 3 32q-24 -48 -66.5 -77.5t-105.5 -29.5q-29 0 -56 9.5t-47 28t-32 45t-12 60.5q0 37 13 66t37 50t56.5 34t71.5 17l185 19l3 16q3 15 3 32q0 25 -9 43t-25.5 29.5t-39 17t-48.5 5.5q-24 0 -47.5 -5t-42.5 -16.5t-31 -29
t-12 -41.5v-5t1 -9l-51 -17q-2 8 -3 15t-1 12q0 36 14.5 63.5t40 46.5t61 28.5t76.5 9.5q89 0 133 -38t44 -104q0 -11 -0.5 -25t-5.5 -37l-36 -182q-7 -35 -7 -61q0 -17 2.5 -31.5t10.5 -31.5h-60zM184 40q40 0 72 18t56.5 47t40.5 67t23 77l3 17l-169 -19
q-58 -7 -91.5 -34.5t-33.5 -77.5q0 -43 28.5 -69t70.5 -26z" />
    <glyph glyph-name="aacute.alt" horiz-adv-x="529" 
d="M358 0q-8 11 -12.5 24.5t-4.5 36.5q0 14 3 32q-24 -48 -66.5 -77.5t-105.5 -29.5q-29 0 -56 9.5t-47 28t-32 45t-12 60.5q0 37 13 66t37 50t56.5 34t71.5 17l185 19l3 16q3 15 3 32q0 25 -9 43t-25.5 29.5t-39 17t-48.5 5.5q-24 0 -47.5 -5t-42.5 -16.5t-31 -29
t-12 -41.5v-5t1 -9l-51 -17q-2 8 -3 15t-1 12q0 36 14.5 63.5t40 46.5t61 28.5t76.5 9.5q89 0 133 -38t44 -104q0 -11 -0.5 -25t-5.5 -37l-36 -182q-7 -35 -7 -61q0 -17 2.5 -31.5t10.5 -31.5h-60zM184 40q40 0 72 18t56.5 47t40.5 67t23 77l3 17l-169 -19
q-58 -7 -91.5 -34.5t-33.5 -77.5q0 -43 28.5 -69t70.5 -26zM339 700h89l-124 -138h-52z" />
    <glyph glyph-name="acircumflex.alt" horiz-adv-x="529" 
d="M358 0q-8 11 -12.5 24.5t-4.5 36.5q0 14 3 32q-24 -48 -66.5 -77.5t-105.5 -29.5q-29 0 -56 9.5t-47 28t-32 45t-12 60.5q0 37 13 66t37 50t56.5 34t71.5 17l185 19l3 16q3 15 3 32q0 25 -9 43t-25.5 29.5t-39 17t-48.5 5.5q-24 0 -47.5 -5t-42.5 -16.5t-31 -29
t-12 -41.5v-5t1 -9l-51 -17q-2 8 -3 15t-1 12q0 36 14.5 63.5t40 46.5t61 28.5t76.5 9.5q89 0 133 -38t44 -104q0 -11 -0.5 -25t-5.5 -37l-36 -182q-7 -35 -7 -61q0 -17 2.5 -31.5t10.5 -31.5h-60zM184 40q40 0 72 18t56.5 47t40.5 67t23 77l3 17l-169 -19
q-58 -7 -91.5 -34.5t-33.5 -77.5q0 -43 28.5 -69t70.5 -26zM302 700h54l73 -138h-50l-61 78l-86 -78h-56z" />
    <glyph glyph-name="adieresis.alt" horiz-adv-x="529" 
d="M358 0q-8 11 -12.5 24.5t-4.5 36.5q0 14 3 32q-24 -48 -66.5 -77.5t-105.5 -29.5q-29 0 -56 9.5t-47 28t-32 45t-12 60.5q0 37 13 66t37 50t56.5 34t71.5 17l185 19l3 16q3 15 3 32q0 25 -9 43t-25.5 29.5t-39 17t-48.5 5.5q-24 0 -47.5 -5t-42.5 -16.5t-31 -29
t-12 -41.5v-5t1 -9l-51 -17q-2 8 -3 15t-1 12q0 36 14.5 63.5t40 46.5t61 28.5t76.5 9.5q89 0 133 -38t44 -104q0 -11 -0.5 -25t-5.5 -37l-36 -182q-7 -35 -7 -61q0 -17 2.5 -31.5t10.5 -31.5h-60zM184 40q40 0 72 18t56.5 47t40.5 67t23 77l3 17l-169 -19
q-58 -7 -91.5 -34.5t-33.5 -77.5q0 -43 28.5 -69t70.5 -26zM352 670h80l-15 -76h-80zM204 670h80l-15 -76h-80z" />
    <glyph glyph-name="atilde.alt" horiz-adv-x="529" 
d="M358 0q-8 11 -12.5 24.5t-4.5 36.5q0 14 3 32q-24 -48 -66.5 -77.5t-105.5 -29.5q-29 0 -56 9.5t-47 28t-32 45t-12 60.5q0 37 13 66t37 50t56.5 34t71.5 17l185 19l3 16q3 15 3 32q0 25 -9 43t-25.5 29.5t-39 17t-48.5 5.5q-24 0 -47.5 -5t-42.5 -16.5t-31 -29
t-12 -41.5v-5t1 -9l-51 -17q-2 8 -3 15t-1 12q0 36 14.5 63.5t40 46.5t61 28.5t76.5 9.5q89 0 133 -38t44 -104q0 -11 -0.5 -25t-5.5 -37l-36 -182q-7 -35 -7 -61q0 -17 2.5 -31.5t10.5 -31.5h-60zM184 40q40 0 72 18t56.5 47t40.5 67t23 77l3 17l-169 -19
q-58 -7 -91.5 -34.5t-33.5 -77.5q0 -43 28.5 -69t70.5 -26zM243 634q-17 0 -27.5 -11t-10.5 -27q0 -6 0.5 -9.5t1.5 -6.5l-51 -10q-2 5 -3 11.5t-1 15.5q0 35 22.5 61t70.5 26q30 0 48.5 -10.5t32 -23.5t26 -23.5t32.5 -10.5q17 0 27 10.5t10 26.5q0 5 -0.5 9t-1.5 8l51 10
q2 -7 3 -15t1 -16q0 -41 -24.5 -62t-63.5 -21q-33 0 -52 10.5t-32 23.5t-25.5 23.5t-33.5 10.5z" />
    <glyph glyph-name="agrave.alt" horiz-adv-x="529" 
d="M358 0q-8 11 -12.5 24.5t-4.5 36.5q0 14 3 32q-24 -48 -66.5 -77.5t-105.5 -29.5q-29 0 -56 9.5t-47 28t-32 45t-12 60.5q0 37 13 66t37 50t56.5 34t71.5 17l185 19l3 16q3 15 3 32q0 25 -9 43t-25.5 29.5t-39 17t-48.5 5.5q-24 0 -47.5 -5t-42.5 -16.5t-31 -29
t-12 -41.5v-5t1 -9l-51 -17q-2 8 -3 15t-1 12q0 36 14.5 63.5t40 46.5t61 28.5t76.5 9.5q89 0 133 -38t44 -104q0 -11 -0.5 -25t-5.5 -37l-36 -182q-7 -35 -7 -61q0 -17 2.5 -31.5t10.5 -31.5h-60zM184 40q40 0 72 18t56.5 47t40.5 67t23 77l3 17l-169 -19
q-58 -7 -91.5 -34.5t-33.5 -77.5q0 -43 28.5 -69t70.5 -26zM332 562h-52l-72 138h82z" />
    <glyph glyph-name="abreve.alt" horiz-adv-x="529" 
d="M358 0q-8 11 -12.5 24.5t-4.5 36.5q0 14 3 32q-24 -48 -66.5 -77.5t-105.5 -29.5q-29 0 -56 9.5t-47 28t-32 45t-12 60.5q0 37 13 66t37 50t56.5 34t71.5 17l185 19l3 16q3 15 3 32q0 25 -9 43t-25.5 29.5t-39 17t-48.5 5.5q-24 0 -47.5 -5t-42.5 -16.5t-31 -29
t-12 -41.5v-5t1 -9l-51 -17q-2 8 -3 15t-1 12q0 36 14.5 63.5t40 46.5t61 28.5t76.5 9.5q89 0 133 -38t44 -104q0 -11 -0.5 -25t-5.5 -37l-36 -182q-7 -35 -7 -61q0 -17 2.5 -31.5t10.5 -31.5h-60zM184 40q40 0 72 18t56.5 47t40.5 67t23 77l3 17l-169 -19
q-58 -7 -91.5 -34.5t-33.5 -77.5q0 -43 28.5 -69t70.5 -26zM411 669q-8 -53 -37 -76t-76 -23q-39 0 -61 24.5t-22 55.5q0 11 2 19h57q-1 -5 -1 -7v-4q0 -34 32 -34q20 0 32.5 12.5t16.5 32.5h57z" />
    <glyph glyph-name="aogonek.alt" horiz-adv-x="529" 
d="M267 -118q0 45 25.5 74.5t62.5 46.5q-7 10 -10.5 23.5t-3.5 34.5q0 14 3 32q-24 -48 -66.5 -77.5t-105.5 -29.5q-29 0 -56 9.5t-47 28t-32 45t-12 60.5q0 37 13 66t37 50t56.5 34t71.5 17l185 19l3 16q3 15 3 32q0 25 -9 43t-25.5 29.5t-39 17t-48.5 5.5q-24 0 -47.5 -5
t-42.5 -16.5t-31 -29t-12 -41.5v-5t1 -9l-51 -17q-2 8 -3 15t-1 12q0 36 14.5 63.5t40 46.5t61 28.5t76.5 9.5q89 0 133 -38t44 -104q0 -11 -0.5 -25t-5.5 -37l-36 -182q-7 -35 -7 -61q0 -17 2.5 -31.5t10.5 -31.5q-14 -6 -30 -15.5t-29.5 -21.5t-22.5 -26t-9 -30
q0 -21 13.5 -32t33.5 -11q5 0 9 0.5t9 1.5l-3 -58q-10 -3 -19 -4.5t-20 -1.5q-35 0 -59 19t-24 61zM184 40q40 0 72 18t56.5 47t40.5 67t23 77l3 17l-169 -19q-58 -7 -91.5 -34.5t-33.5 -77.5q0 -43 28.5 -69t70.5 -26z" />
    <glyph glyph-name="amacron.alt" horiz-adv-x="529" 
d="M358 0q-8 11 -12.5 24.5t-4.5 36.5q0 14 3 32q-24 -48 -66.5 -77.5t-105.5 -29.5q-29 0 -56 9.5t-47 28t-32 45t-12 60.5q0 37 13 66t37 50t56.5 34t71.5 17l185 19l3 16q3 15 3 32q0 25 -9 43t-25.5 29.5t-39 17t-48.5 5.5q-24 0 -47.5 -5t-42.5 -16.5t-31 -29
t-12 -41.5v-5t1 -9l-51 -17q-2 8 -3 15t-1 12q0 36 14.5 63.5t40 46.5t61 28.5t76.5 9.5q89 0 133 -38t44 -104q0 -11 -0.5 -25t-5.5 -37l-36 -182q-7 -35 -7 -61q0 -17 2.5 -31.5t10.5 -31.5h-60zM184 40q40 0 72 18t56.5 47t40.5 67t23 77l3 17l-169 -19
q-58 -7 -91.5 -34.5t-33.5 -77.5q0 -43 28.5 -69t70.5 -26zM228 662h206l-11 -54h-206z" />
    <glyph glyph-name="aring.alt" horiz-adv-x="529" 
d="M358 0q-8 11 -12.5 24.5t-4.5 36.5q0 14 3 32q-24 -48 -66.5 -77.5t-105.5 -29.5q-29 0 -56 9.5t-47 28t-32 45t-12 60.5q0 37 13 66t37 50t56.5 34t71.5 17l185 19l3 16q3 15 3 32q0 25 -9 43t-25.5 29.5t-39 17t-48.5 5.5q-24 0 -47.5 -5t-42.5 -16.5t-31 -29
t-12 -41.5v-5t1 -9l-51 -17q-2 8 -3 15t-1 12q0 36 14.5 63.5t40 46.5t61 28.5t76.5 9.5q89 0 133 -38t44 -104q0 -11 -0.5 -25t-5.5 -37l-36 -182q-7 -35 -7 -61q0 -17 2.5 -31.5t10.5 -31.5h-60zM184 40q40 0 72 18t56.5 47t40.5 67t23 77l3 17l-169 -19
q-58 -7 -91.5 -34.5t-33.5 -77.5q0 -43 28.5 -69t70.5 -26zM207 635q0 40 28 67.5t68 27.5t68 -27.5t28 -67.5t-28 -67.5t-68 -27.5t-68 27.5t-28 67.5zM251 635q0 -22 14.5 -37.5t37.5 -15.5t37.5 15.5t14.5 37.5t-14.5 37.5t-37.5 15.5t-37.5 -15.5t-14.5 -37.5z" />
    <glyph glyph-name="ae.alt" horiz-adv-x="911" 
d="M434 243q-2 -8 -2 -16.5v-16.5q0 -35 12.5 -66.5t35 -55.5t53.5 -38t69 -14q34 0 61.5 9t50 25.5t41.5 40.5t36 54l43 -28q-42 -78 -100.5 -114.5t-138.5 -36.5q-35 0 -67 8.5t-59.5 26.5t-48.5 46t-32 67q-20 -41 -42.5 -69.5t-48 -46t-56 -25t-67.5 -7.5
q-27 0 -53.5 9.5t-48 28t-34.5 45t-13 60.5t13.5 64t40 52.5t64.5 35t86 12.5h159l7 37q3 18 3 34q0 46 -32.5 70t-86.5 24q-28 0 -53.5 -5t-44.5 -16.5t-30.5 -28.5t-11.5 -41v-8.5t1 -8.5l-51 -17q-4 15 -4 30q0 35 15 62.5t41.5 46t61.5 28.5t76 10q65 0 109 -23t61 -62
q37 38 89.5 61.5t118.5 23.5q51 0 91 -15.5t67 -42.5t41 -63.5t14 -78.5q0 -12 -1.5 -23t-3.5 -25l-4 -19h-427zM653 460q-36 0 -69.5 -11.5t-61 -33t-47.5 -52.5t-29 -70h364q2 11 2 16.5v13.5q0 30 -12 55t-33 43t-50 28.5t-64 10.5zM194 40q36 0 66.5 15t54.5 42
t40.5 64.5t24.5 81.5h-149q-66 0 -106 -29t-40 -80q0 -47 30.5 -70.5t78.5 -23.5z" />
    <glyph glyph-name="aeacute.alt" horiz-adv-x="911" 
d="M434 243q-2 -8 -2 -16.5v-16.5q0 -35 12.5 -66.5t35 -55.5t53.5 -38t69 -14q34 0 61.5 9t50 25.5t41.5 40.5t36 54l43 -28q-42 -78 -100.5 -114.5t-138.5 -36.5q-35 0 -67 8.5t-59.5 26.5t-48.5 46t-32 67q-20 -41 -42.5 -69.5t-48 -46t-56 -25t-67.5 -7.5
q-27 0 -53.5 9.5t-48 28t-34.5 45t-13 60.5t13.5 64t40 52.5t64.5 35t86 12.5h159l7 37q3 18 3 34q0 46 -32.5 70t-86.5 24q-28 0 -53.5 -5t-44.5 -16.5t-30.5 -28.5t-11.5 -41v-8.5t1 -8.5l-51 -17q-4 15 -4 30q0 35 15 62.5t41.5 46t61.5 28.5t76 10q65 0 109 -23t61 -62
q37 38 89.5 61.5t118.5 23.5q51 0 91 -15.5t67 -42.5t41 -63.5t14 -78.5q0 -12 -1.5 -23t-3.5 -25l-4 -19h-427zM653 460q-36 0 -69.5 -11.5t-61 -33t-47.5 -52.5t-29 -70h364q2 11 2 16.5v13.5q0 30 -12 55t-33 43t-50 28.5t-64 10.5zM194 40q36 0 66.5 15t54.5 42
t40.5 64.5t24.5 81.5h-149q-66 0 -106 -29t-40 -80q0 -47 30.5 -70.5t78.5 -23.5zM527 700h89l-124 -138h-52z" />
    <glyph glyph-name="alpha.alt" horiz-adv-x="625" 
d="M556 496l-76 -393q-3 -14 -3 -25q0 -17 8 -29.5t31 -12.5q14 0 27 5v-47q-22 -8 -44 -8q-39 0 -59.5 24.5t-20.5 69.5q-32 -48 -82 -71t-101 -23q-96 0 -148 58t-52 166q0 64 21.5 119t59 95.5t86.5 63t105 22.5q69 0 108.5 -28.5t60.5 -79.5l19 94h60zM244 36
q48 0 87 20.5t66.5 55t43 80t15.5 94.5q0 40 -10.5 72.5t-30 55t-46.5 34.5t-60 12q-45 0 -84 -19.5t-67.5 -54t-45 -81t-16.5 -100.5q0 -37 10.5 -68t30 -53.5t46.5 -35t61 -12.5z" />
    <glyph glyph-name="alphatonos.alt" horiz-adv-x="625" 
d="M556 496l-76 -393q-3 -14 -3 -25q0 -17 8 -29.5t31 -12.5q14 0 27 5v-47q-22 -8 -44 -8q-39 0 -59.5 24.5t-20.5 69.5q-32 -48 -82 -71t-101 -23q-96 0 -148 58t-52 166q0 64 21.5 119t59 95.5t86.5 63t105 22.5q69 0 108.5 -28.5t60.5 -79.5l19 94h60zM244 36
q48 0 87 20.5t66.5 55t43 80t15.5 94.5q0 40 -10.5 72.5t-30 55t-46.5 34.5t-60 12q-45 0 -84 -19.5t-67.5 -54t-45 -81t-16.5 -100.5q0 -37 10.5 -68t30 -53.5t46.5 -35t61 -12.5zM349 700h86l-104 -138h-53z" />
    <glyph glyph-name="delta.alt" horiz-adv-x="579" 
d="M358 666q-27 0 -55 -5.5t-50.5 -17t-36.5 -29t-14 -40.5q0 -38 43.5 -65.5t131.5 -53.5q31 -9 59 -25t48.5 -40t32.5 -56t12 -74q0 -59 -20 -109t-56.5 -86.5t-87.5 -57.5t-114 -21q-43 0 -82 14t-68.5 40.5t-47 65.5t-17.5 89q0 42 14 82.5t41.5 74t68 58.5t94.5 37
q-21 9 -40 20.5t-34 26.5t-23.5 33.5t-8.5 42.5q0 34 18 61t47.5 45.5t68 28t79.5 9.5q90 0 137 -31t47 -75q0 -20 -5.5 -36t-19.5 -35l-44 22q15 18 15 41q0 30 -35 48t-98 18zM262 34q43 0 81 16t66.5 44.5t45 67.5t16.5 85q0 81 -45 124t-120 43q-42 0 -80.5 -18t-68 -48
t-46.5 -68.5t-17 -79.5q0 -37 12 -67.5t34.5 -52.5t53 -34t68.5 -12z" />
    <glyph glyph-name="zero.slash" horiz-adv-x="706" 
d="M665 417q0 -84 -22 -162t-65 -137.5t-107.5 -95.5t-149.5 -36q-59 0 -108 22t-84.5 61t-55.5 94t-20 121q0 83 24 160.5t69 137.5t108.5 96t142.5 36q64 0 113.5 -20.5t84 -59t52.5 -93.5t18 -124zM113 284q0 -48 10 -86t30 -68l379 481q-56 51 -139 51q-65 0 -116.5 -33
t-88 -86t-56 -121t-19.5 -138zM322 38q68 0 121 30.5t89 81.5t54.5 118t18.5 139q0 97 -40 162l-377 -481q26 -24 60.5 -37t73.5 -13z" />
    <glyph glyph-name="zerosuperior.slash" horiz-adv-x="380" 
d="M386 553q0 -42 -12.5 -80t-35 -67t-55 -46t-72.5 -17q-26 0 -50 10t-42 29.5t-29 49t-11 69.5q0 36 11.5 72.5t33.5 66.5t54.5 48.5t75.5 18.5q57 0 94.5 -38t37.5 -116zM215 389q27 0 49 13t37.5 34.5t24 49.5t8.5 59q0 43 -12 70l-148 -216q9 -5 19 -7.5t22 -2.5z
M131 501q0 -40 12 -65l149 214q-19 11 -41 11q-30 0 -52.5 -14.5t-37.5 -37t-22.5 -51.5t-7.5 -57z" />
    <glyph glyph-name="zeroinferior.slash" horiz-adv-x="380" 
d="M281 -1q0 -42 -12.5 -80t-35 -67t-55 -46t-72.5 -17q-26 0 -50 10t-42 29.5t-29 49t-11 69.5q0 36 11.5 72.5t33.5 66.5t54.5 48.5t75.5 18.5q57 0 94.5 -38t37.5 -116zM110 -165q27 0 49 13t37.5 34.5t24 49.5t8.5 59q0 43 -12 70l-148 -216q9 -5 19 -7.5t22 -2.5z
M26 -53q0 -40 12 -65l149 214q-19 11 -41 11q-30 0 -52.5 -14.5t-37.5 -37t-22.5 -51.5t-7.5 -57z" />
    <glyph glyph-name="zero.posn" horiz-adv-x="640" 
d="M595 332q0 -73 -23.5 -136t-65.5 -109.5t-100 -73.5t-127 -27q-50 0 -93 17.5t-75.5 50.5t-51 79t-18.5 103q0 63 21.5 124t63 109.5t101 78.5t135.5 30q51 0 93.5 -15.5t73.5 -46.5t48.5 -77t17.5 -107zM282 36q61 0 108 25.5t79.5 67.5t49 95t16.5 107q0 48 -14 84.5
t-38 61.5t-57 38t-70 13q-58 0 -105 -25.5t-80.5 -66.5t-51.5 -92.5t-18 -104.5q0 -47 14.5 -84.5t39 -64t57.5 -40.5t70 -14z" />
    <glyph glyph-name="one.posn" horiz-adv-x="312" 
d="M72 476q54 0 89 23t63 65h52l-109 -564h-60l92 476q-29 -31 -60.5 -41.5t-76.5 -10.5z" />
    <glyph glyph-name="two.posn" horiz-adv-x="501" 
d="M258 232q35 27 59.5 50t39.5 44.5t21.5 43t6.5 47.5q0 50 -31 80.5t-88 30.5q-32 0 -56.5 -10t-41.5 -28t-26 -42t-9 -52q0 -9 1 -17.5t3 -15.5l-58 -13q-6 16 -6 41q0 40 13.5 74t39 59t61.5 39.5t80 14.5q39 0 72 -11t56.5 -31.5t36.5 -50.5t13 -67q0 -62 -37 -115
t-112 -110l-176 -135h280l-12 -58h-383l8 41z" />
    <glyph glyph-name="three.posn" horiz-adv-x="553" 
d="M117 144q-6 -14 -10 -30t-4 -35q0 -25 10.5 -47t29.5 -38t45 -25t57 -9q36 0 67 11t54 31t36 49.5t13 65.5q0 33 -13 56.5t-36 38t-53.5 21t-65.5 6.5l9 50q81 0 132.5 31.5t51.5 97.5q0 54 -36.5 82t-91.5 28q-31 0 -58 -9.5t-47.5 -27t-32 -42t-11.5 -54.5
q0 -6 0.5 -12.5t1.5 -11.5l-58 -8q-2 10 -2 17v16q0 40 16.5 73.5t45 57.5t67 37.5t83.5 13.5t78.5 -11.5t56.5 -32t34.5 -48t11.5 -60.5q0 -63 -34.5 -103.5t-97.5 -57.5q20 -7 39.5 -20t35 -31.5t25 -42t9.5 -51.5q0 -48 -17.5 -87t-48.5 -66.5t-73.5 -42t-91.5 -14.5
q-51 0 -88.5 14.5t-62 38t-36.5 54t-12 62.5q0 22 5.5 42.5t13.5 36.5z" />
    <glyph glyph-name="four.posn" horiz-adv-x="569" 
d="M23 128l411 436h60l-85 -436h85l-10 -50h-85l-30 -154h-60l30 154h-326zM91 128h258l67 342z" />
    <glyph glyph-name="five.posn" horiz-adv-x="585" 
d="M159 564h373l-10 -50h-323l-71 -224q35 39 82 63t101 24q87 0 137.5 -48.5t50.5 -154.5q0 -51 -18 -99t-52.5 -84.5t-84 -58.5t-113.5 -22q-39 0 -74 11.5t-61.5 32t-41.5 48.5t-15 61q0 18 4.5 35.5t10.5 28.5l53 -12q-5 -11 -7.5 -22t-2.5 -26q0 -24 11.5 -44t30.5 -34
t44.5 -21.5t52.5 -7.5q48 0 85.5 17t64 45.5t40 66.5t13.5 80q0 81 -40.5 119.5t-109.5 38.5q-26 0 -52 -9t-50 -24t-44 -35t-33 -41l-52 14z" />
    <glyph glyph-name="six.posn" horiz-adv-x="570" 
d="M454 459q7 17 9.5 28t2.5 28q0 16 -7.5 31.5t-22 28t-36 20t-49.5 7.5q-84 0 -147 -77t-89 -219q14 26 35.5 46.5t47 35t53 22.5t53.5 8q40 0 75 -11.5t61 -35.5t40.5 -60.5t14.5 -85.5q0 -52 -17 -95.5t-48 -75.5t-74.5 -50t-95.5 -18q-53 0 -92 19.5t-65 53.5
t-38.5 79.5t-12.5 96.5q0 41 8 88.5t24 94t41 89.5t58.5 75.5t76 52t94.5 19.5q78 0 124 -37t46 -101q0 -21 -5 -38t-11 -31zM297 366q-38 0 -70.5 -14t-56.5 -39t-37.5 -58t-13.5 -70q0 -32 11 -59t31 -46.5t47 -30.5t59 -11q36 0 66.5 13.5t53 37.5t35.5 57.5t13 72.5
q0 35 -11 62.5t-29.5 46t-44 28.5t-53.5 10z" />
    <glyph glyph-name="seven.posn" horiz-adv-x="513" 
d="M152 -76h-60l337 590h-339l10 50h402l-9 -44z" />
    <glyph glyph-name="eight.posn" horiz-adv-x="560" 
d="M256 -14q-45 0 -82 14t-62.5 38.5t-39.5 57t-14 69.5q0 33 10.5 62.5t29 54t43.5 42.5t55 28q-14 7 -26.5 19.5t-22 28.5t-15.5 35t-6 39q0 39 14 72t40.5 57t65 37.5t86.5 13.5q40 0 73.5 -12t56.5 -33t36 -49.5t13 -61.5q0 -54 -31 -97.5t-83 -63.5q36 -20 62 -54
t26 -88q0 -47 -17 -85.5t-48 -66t-73 -42.5t-91 -15zM257 36q33 0 64 10.5t54.5 30.5t37.5 49t14 67q0 60 -38.5 92.5t-104.5 32.5q-35 0 -65 -11t-52.5 -30.5t-35.5 -47.5t-13 -62q0 -31 10.5 -55.5t29.5 -41t44.5 -25.5t54.5 -9zM327 604q-29 0 -54.5 -8.5t-45.5 -24.5
t-31.5 -40t-11.5 -54q0 -28 10 -49t27 -35.5t39.5 -21.5t46.5 -7q29 0 55.5 8t46.5 24t32 40.5t12 57.5q0 48 -34.5 79t-91.5 31z" />
    </font>
</defs>
</svg>
